<svg width="136" height="112" viewBox="0 0 136 112" fill="none" xmlns="http://www.w3.org/2000/svg">
<path opacity="0.1" d="M68 0V112" stroke="white"/>
<path opacity="0.5" d="M17.832 40.296C17.832 40.576 17.768 40.804 17.64 40.98C17.56 41.1 17.424 41.26 17.232 41.46C17.04 41.652 16.884 41.78 16.764 41.844C16.508 41.988 16.26 42.06 16.02 42.06H13.932C13.412 42.06 12.904 41.728 12.408 41.064C12.36 41 12.288 40.876 12.192 40.692L13.38 40.296C13.54 40.52 13.716 40.704 13.908 40.848C13.924 40.856 13.952 40.86 13.992 40.86H15.96L16.032 40.848C16.12 40.8 16.232 40.708 16.368 40.572C16.504 40.436 16.572 40.344 16.572 40.296V39.588C16.572 39.468 16.524 39.4 16.428 39.384L13.308 38.496C13.012 38.416 12.78 38.252 12.612 38.004C12.452 37.756 12.372 37.484 12.372 37.188V36.54C12.372 36.26 12.432 36.032 12.552 35.856C12.632 35.744 12.768 35.592 12.96 35.4C13.16 35.2 13.32 35.064 13.44 34.992C13.696 34.848 13.944 34.776 14.184 34.776H15.96C16.472 34.776 16.98 35.108 17.484 35.772C17.564 35.884 17.644 36.024 17.724 36.192L16.512 36.54C16.328 36.276 16.152 36.092 15.984 35.988C15.976 35.98 15.952 35.976 15.912 35.976H14.22L14.148 35.988C14.052 36.036 13.94 36.124 13.812 36.252C13.692 36.38 13.632 36.468 13.632 36.516V37.116C13.632 37.236 13.676 37.304 13.764 37.32L16.896 38.232C17.184 38.312 17.412 38.48 17.58 38.736C17.748 38.984 17.832 39.252 17.832 39.54V40.296Z" fill="white"/>
<path opacity="0.5" d="M111.424 30.824L109.756 38H108.328L107.176 33.188L106.012 38H104.572L102.928 30.824H104.224L105.304 35.864L106.492 30.824H107.836L109.024 35.864L110.092 30.824H111.424Z" fill="white"/>
<path opacity="0.4" d="M27.88 59H22.616V50.628H27.88V52.028H24.086V54.142H27.614V55.542H24.086V57.6H27.88V59Z" fill="white"/>
<path fill-rule="evenodd" clip-rule="evenodd" d="M108 45.7727V40.5H107V45.6203C95.9587 43.9691 82.5101 43 68 43C47.1399 43 28.4737 45.0029 16 48.156V43.5H15V48.4148C5.61627 50.9006 0 54.0605 0 57.5C0 65.5081 30.4446 72 68 72C105.555 72 136 65.5081 136 57.5C136 52.68 124.971 48.4092 108 45.7727ZM119.5 65.9385V60.5H118.5V66.1827C117.652 66.3851 116.777 66.5826 115.875 66.775C103.656 69.3805 86.7293 71 68 71C52.1115 71 37.5202 69.8345 26 67.8903V61.5H25V67.7183C23.3032 67.4206 21.6763 67.1058 20.1253 66.775C14.0078 65.4706 9.12401 63.9299 5.79395 62.2511C4.1273 61.4109 2.90063 60.561 2.10303 59.7299C1.30942 58.9029 1 58.1607 1 57.5C1 56.3545 1.96038 54.9631 4.49177 53.4595C6.95366 51.9973 10.602 50.6144 15.2561 49.3814C27.6067 46.1096 46.6237 44 68 44C86.7293 44 103.656 45.6195 115.875 48.225C121.992 49.5294 126.876 51.0701 130.206 52.7489C131.873 53.5891 133.099 54.439 133.897 55.2701C134.691 56.0971 135 56.8393 135 57.5C135 58.1607 134.691 58.9029 133.897 59.7299C133.099 60.561 131.873 61.4109 130.206 62.2511C127.563 63.5837 123.941 64.8291 119.5 65.9385ZM118.5 66.1827L119.5 65.9385C119.171 66.0207 118.838 66.1021 118.5 66.1827Z" fill="url(#paint0_linear)"/>
<path opacity="0.4" d="M91.5 66L86 54.75L97 54L91.5 66Z" fill="#E12033"/>
<path d="M72 60.5L60 57.5V55H63L70 56.5L71.5 54H74.5V56.5L72 60.5Z" fill="#E12033"/>
<path opacity="0.4" d="M121.538 58H119.984L117.086 52.442V58H115.616V49.628H117.198L120.068 55.256V49.628H121.538V58Z" fill="white"/>
<defs>
<linearGradient id="paint0_linear" x1="68" y1="40.5" x2="68" y2="72" gradientUnits="userSpaceOnUse">
<stop stop-color="#C4C4C4" stop-opacity="0.35"/>
<stop offset="1" stop-color="white" stop-opacity="0.83"/>
</linearGradient>
</defs>
</svg>
