<svg width="229" height="141" viewBox="0 0 229 141" fill="none" xmlns="http://www.w3.org/2000/svg">
<rect x="215.728" y="115.707" width="17" height="17" transform="rotate(45 215.728 115.707)" stroke="white"/>
<path d="M215.5 128.5L115.5 28.5H0" stroke="url(#paint0_linear)"/>
<path d="M7.488 12.144C7.38133 12.3893 7.26933 12.592 7.152 12.752C6.49067 13.6373 5.81333 14.08 5.12 14.08H3.12C2.768 14.08 2.43733 13.984 2.128 13.792C1.968 13.696 1.76 13.52 1.504 13.264C1.248 13.008 1.06667 12.8053 0.96 12.656C0.789333 12.4 0.704 12.096 0.704 11.744V6.704C0.704 6.36267 0.789333 6.064 0.96 5.808C1.06667 5.648 1.248 5.44 1.504 5.184C1.77067 4.91733 1.97867 4.74133 2.128 4.656C2.46933 4.464 2.8 4.368 3.12 4.368H5.12C5.80267 4.368 6.48 4.81067 7.152 5.696C7.216 5.78133 7.328 5.968 7.488 6.256L5.856 6.72C5.536 6.32533 5.296 6.08 5.136 5.984C5.12533 5.97333 5.104 5.968 5.072 5.968H3.184L3.12 5.984C2.84267 6.13333 2.60267 6.368 2.4 6.688C2.38933 6.70933 2.384 6.768 2.384 6.864V11.728C2.384 11.8133 2.46933 11.9413 2.64 12.112C2.82133 12.272 2.98133 12.3893 3.12 12.464C3.13067 12.4747 3.168 12.48 3.232 12.48H5.056C5.088 12.48 5.11467 12.4747 5.136 12.464C5.232 12.4213 5.33867 12.336 5.456 12.208C5.584 12.08 5.68533 11.9627 5.76 11.856L5.856 11.712L7.488 12.144ZM16.1077 11.728C16.1077 12.08 16.0224 12.384 15.8517 12.64C15.7237 12.8107 15.5318 13.024 15.2758 13.28C15.0304 13.536 14.8331 13.7067 14.6838 13.792C14.3744 13.984 14.0437 14.08 13.6918 14.08H11.2597C10.9077 14.08 10.5771 13.984 10.2677 13.792C10.1184 13.7067 9.91042 13.536 9.64375 13.28C9.38775 13.0133 9.20642 12.8 9.09975 12.64C8.92908 12.384 8.84375 12.08 8.84375 11.728V6.72C8.84375 6.368 8.92908 6.064 9.09975 5.808C9.20642 5.648 9.38775 5.44 9.64375 5.184C9.91042 4.91733 10.1184 4.74133 10.2677 4.656C10.5771 4.464 10.9077 4.368 11.2597 4.368H13.6918C14.0437 4.368 14.3744 4.464 14.6838 4.656C14.8331 4.74133 15.0304 4.912 15.2758 5.168C15.5318 5.424 15.7237 5.63733 15.8517 5.808C16.0224 6.064 16.1077 6.368 16.1077 6.72V11.728ZM10.5237 6.768V11.712C10.5237 11.744 10.5291 11.7653 10.5397 11.776C10.7531 12.096 10.9877 12.3253 11.2437 12.464C11.2651 12.4747 11.2917 12.48 11.3237 12.48H13.6277C13.6597 12.48 13.6864 12.4747 13.7077 12.464C13.9638 12.3253 14.1984 12.096 14.4117 11.776L14.4278 11.712V6.768C14.4278 6.72533 14.4224 6.69867 14.4117 6.688C14.1877 6.35733 13.9531 6.12267 13.7077 5.984C13.6864 5.97333 13.6597 5.968 13.6277 5.968H11.3237C11.2811 5.968 11.2544 5.97333 11.2437 5.984C10.9984 6.12267 10.7637 6.35733 10.5397 6.688L10.5237 6.768ZM24.2976 14H22.5216L19.2096 7.648V14H17.5296V4.432H19.3376L22.6176 10.864V4.432H24.2976V14ZM32.6558 14H30.8798L27.5678 7.648V14H25.8878V4.432H27.6958L30.9758 10.864V4.432H32.6558V14ZM40.2619 14H34.2459V4.432H40.2619V6.032H35.9259V8.448H39.9579V10.048H35.9259V12.4H40.2619V14ZM48.5599 12.144C48.4532 12.3893 48.3412 12.592 48.2239 12.752C47.5625 13.6373 46.8852 14.08 46.1919 14.08H44.1919C43.8399 14.08 43.5092 13.984 43.1999 13.792C43.0399 13.696 42.8319 13.52 42.5759 13.264C42.3199 13.008 42.1385 12.8053 42.0319 12.656C41.8612 12.4 41.7759 12.096 41.7759 11.744V6.704C41.7759 6.36267 41.8612 6.064 42.0319 5.808C42.1385 5.648 42.3199 5.44 42.5759 5.184C42.8425 4.91733 43.0505 4.74133 43.1999 4.656C43.5412 4.464 43.8719 4.368 44.1919 4.368H46.1919C46.8745 4.368 47.5519 4.81067 48.2239 5.696C48.2879 5.78133 48.3999 5.968 48.5599 6.256L46.9279 6.72C46.6079 6.32533 46.3679 6.08 46.2079 5.984C46.1972 5.97333 46.1759 5.968 46.1439 5.968H44.2559L44.1919 5.984C43.9145 6.13333 43.6745 6.368 43.4719 6.688C43.4612 6.70933 43.4559 6.768 43.4559 6.864V11.728C43.4559 11.8133 43.5412 11.9413 43.7119 12.112C43.8932 12.272 44.0532 12.3893 44.1919 12.464C44.2025 12.4747 44.2399 12.48 44.3039 12.48H46.1279C46.1599 12.48 46.1865 12.4747 46.2079 12.464C46.3039 12.4213 46.4105 12.336 46.5279 12.208C46.6559 12.08 46.7572 11.9627 46.8319 11.856L46.9279 11.712L48.5599 12.144ZM56.2516 6.032H53.6596V14H51.9796V6.032H49.3876V4.432H56.2516V6.032ZM63.2581 14H57.2421V4.432H63.2581V6.032H58.9221V8.448H62.9541V10.048H58.9221V12.4H63.2581V14ZM71.5401 11.68C71.5401 12.0533 71.4601 12.3573 71.3001 12.592C71.1935 12.7413 71.0121 12.944 70.7561 13.2C70.5001 13.4453 70.2868 13.616 70.1161 13.712C69.7748 13.904 69.4548 14 69.1561 14H64.7721V4.432H69.1561C69.5295 4.432 69.8548 4.52267 70.1321 4.704C70.2921 4.8 70.4948 4.976 70.7401 5.232C70.9855 5.488 71.1668 5.70133 71.2841 5.872C71.4548 6.10667 71.5401 6.41067 71.5401 6.784V11.68ZM66.4521 12.4H69.0441C69.1081 12.4 69.1455 12.3947 69.1561 12.384C69.2841 12.3093 69.4335 12.192 69.6041 12.032C69.7748 11.8613 69.8601 11.7333 69.8601 11.648V6.832C69.8601 6.8 69.8548 6.77333 69.8441 6.752C69.6415 6.42133 69.4068 6.18667 69.1401 6.048C69.1295 6.03733 69.0815 6.032 68.9961 6.032H66.4521V12.4Z" fill="white"/>
<path d="M92 5.139L87.0582 0H86.1928V6.831L82.2203 2.7L81 3.969L85.8379 9L81 14.031L82.2203 15.3L86.1928 11.169V18H87.0582L92 12.861L88.2785 9L92 5.139ZM87.9237 3.447L89.5507 5.139L87.9237 6.831V3.447ZM89.5507 12.861L87.9237 14.553V11.169L89.5507 12.861Z" fill="#E60D2E"/>
<path d="M0.147 44.8845C0.273 44.9685 0.5215 45.0385 0.749 45.0385C1.3055 45.0385 1.5715 44.72 1.5715 44.356C1.5715 44.0095 1.372 43.817 0.973 43.663C0.6475 43.537 0.504 43.4285 0.504 43.208C0.504 43.047 0.6265 42.8545 0.9485 42.8545C1.162 42.8545 1.3195 42.921 1.393 42.9665L1.477 42.718C1.3755 42.6585 1.197 42.6025 0.959 42.6025C0.5005 42.6025 0.196 42.8755 0.196 43.243C0.196 43.572 0.434 43.775 0.819 43.915C1.1375 44.034 1.2635 44.1635 1.2635 44.3805C1.2635 44.6185 1.0815 44.783 0.77 44.783C0.56 44.783 0.364 44.7165 0.2275 44.629L0.147 44.8845ZM3.45108 44.209C3.45808 44.174 3.46158 44.1285 3.46158 44.0655C3.46158 43.754 3.31808 43.271 2.76158 43.271C2.26808 43.271 1.96708 43.67 1.96708 44.181C1.96708 44.692 2.27858 45.0385 2.80008 45.0385C3.06958 45.0385 3.25858 44.979 3.36708 44.93L3.31108 44.7095C3.19908 44.7585 3.06258 44.797 2.84208 44.797C2.53058 44.797 2.26808 44.6255 2.26108 44.209H3.45108ZM2.26458 43.9885C2.28908 43.775 2.42208 43.4915 2.73708 43.4915C3.08358 43.4915 3.16758 43.796 3.16408 43.9885H2.26458ZM5.1205 43.9605C5.1205 43.6245 4.9945 43.271 4.4765 43.271C4.263 43.271 4.0565 43.3305 3.9165 43.418L3.9865 43.6245C4.1055 43.544 4.27 43.4985 4.431 43.4985C4.7775 43.495 4.816 43.7505 4.816 43.887V43.922C4.1615 43.9185 3.7975 44.1425 3.7975 44.552C3.7975 44.797 3.9725 45.0385 4.3155 45.0385C4.557 45.0385 4.739 44.9195 4.8335 44.7865H4.844L4.8685 45H5.145C5.1275 44.8845 5.1205 44.741 5.1205 44.594V43.9605ZM4.823 44.4295C4.823 44.4575 4.8195 44.4925 4.809 44.5275C4.76 44.671 4.6165 44.811 4.3925 44.811C4.2385 44.811 4.1055 44.72 4.1055 44.517C4.1055 44.188 4.487 44.1285 4.823 44.1355V44.4295ZM5.70648 45H6.01448V44.097C6.01448 44.048 6.01798 43.9955 6.02498 43.9535C6.06698 43.7225 6.22098 43.5615 6.43798 43.5615C6.47998 43.5615 6.51148 43.5615 6.54298 43.5685V43.278C6.51498 43.2745 6.49048 43.271 6.45898 43.271C6.25248 43.271 6.06348 43.4145 5.98648 43.642H5.97598L5.96198 43.306H5.69248C5.70298 43.4635 5.70648 43.635 5.70648 43.8345V45ZM8.05982 44.7095C7.97232 44.748 7.85682 44.79 7.68182 44.79C7.34582 44.79 7.09382 44.5485 7.09382 44.1565C7.09382 43.8065 7.30382 43.516 7.69232 43.516C7.86032 43.516 7.97582 43.558 8.04932 43.5965L8.11932 43.362C8.03532 43.3165 7.87432 43.271 7.69232 43.271C7.13932 43.271 6.78232 43.6525 6.78232 44.174C6.78232 44.692 7.11482 45.0385 7.62582 45.0385C7.85332 45.0385 8.03182 44.979 8.11232 44.9405L8.05982 44.7095ZM8.56116 45H8.86916V43.978C8.86916 43.922 8.87266 43.8765 8.89016 43.831C8.94966 43.6665 9.10366 43.5265 9.30316 43.5265C9.59366 43.5265 9.69516 43.754 9.69516 44.027V45H10.0032V43.992C10.0032 43.411 9.63916 43.271 9.41166 43.271C9.29616 43.271 9.18766 43.3025 9.09666 43.355C9.00216 43.4075 8.92516 43.488 8.87616 43.5755H8.86916V42.515H8.56116V45ZM11.4193 45.693H11.7238V44.7725H11.7308C11.8323 44.9405 12.0283 45.0385 12.2523 45.0385C12.6513 45.0385 13.0258 44.7375 13.0258 44.1285C13.0258 43.6175 12.7178 43.271 12.3048 43.271C12.0283 43.271 11.8253 43.39 11.7028 43.5965H11.6958L11.6783 43.306H11.4053C11.4123 43.467 11.4193 43.642 11.4193 43.859V45.693ZM11.7238 44.0165C11.7238 43.978 11.7343 43.9325 11.7448 43.894C11.8008 43.663 12.0003 43.516 12.2103 43.516C12.5358 43.516 12.7143 43.8065 12.7143 44.1425C12.7143 44.531 12.5253 44.797 12.1998 44.797C11.9793 44.797 11.7938 44.65 11.7378 44.4365C11.7273 44.398 11.7238 44.356 11.7238 44.3105V44.0165ZM14.6894 43.9605C14.6894 43.6245 14.5634 43.271 14.0454 43.271C13.8319 43.271 13.6254 43.3305 13.4854 43.418L13.5554 43.6245C13.6744 43.544 13.8389 43.4985 13.9999 43.4985C14.3464 43.495 14.3849 43.7505 14.3849 43.887V43.922C13.7304 43.9185 13.3664 44.1425 13.3664 44.552C13.3664 44.797 13.5414 45.0385 13.8844 45.0385C14.1259 45.0385 14.3079 44.9195 14.4024 44.7865H14.4129L14.4374 45H14.7139C14.6964 44.8845 14.6894 44.741 14.6894 44.594V43.9605ZM14.3919 44.4295C14.3919 44.4575 14.3884 44.4925 14.3779 44.5275C14.3289 44.671 14.1854 44.811 13.9614 44.811C13.8074 44.811 13.6744 44.72 13.6744 44.517C13.6744 44.188 14.0559 44.1285 14.3919 44.1355V44.4295ZM16.4304 44.7095C16.3429 44.748 16.2274 44.79 16.0524 44.79C15.7164 44.79 15.4644 44.5485 15.4644 44.1565C15.4644 43.8065 15.6744 43.516 16.0629 43.516C16.2309 43.516 16.3464 43.558 16.4199 43.5965L16.4899 43.362C16.4059 43.3165 16.2449 43.271 16.0629 43.271C15.5099 43.271 15.1529 43.6525 15.1529 44.174C15.1529 44.692 15.4854 45.0385 15.9964 45.0385C16.2239 45.0385 16.4024 44.979 16.4829 44.9405L16.4304 44.7095ZM17.2363 42.515H16.9318V45H17.2363V44.363L17.3938 44.188L17.9748 45H18.3528L17.6073 44.0025L18.2583 43.306H17.8908L17.3903 43.8905C17.3413 43.95 17.2853 44.0235 17.2433 44.083H17.2363V42.515ZM19.9114 43.9605C19.9114 43.6245 19.7854 43.271 19.2674 43.271C19.0539 43.271 18.8474 43.3305 18.7074 43.418L18.7774 43.6245C18.8964 43.544 19.0609 43.4985 19.2219 43.4985C19.5684 43.495 19.6069 43.7505 19.6069 43.887V43.922C18.9524 43.9185 18.5884 44.1425 18.5884 44.552C18.5884 44.797 18.7634 45.0385 19.1064 45.0385C19.3479 45.0385 19.5299 44.9195 19.6244 44.7865H19.6349L19.6594 45H19.9359C19.9184 44.8845 19.9114 44.741 19.9114 44.594V43.9605ZM19.6139 44.4295C19.6139 44.4575 19.6104 44.4925 19.5999 44.5275C19.5509 44.671 19.4074 44.811 19.1834 44.811C19.0294 44.811 18.8964 44.72 18.8964 44.517C18.8964 44.188 19.2779 44.1285 19.6139 44.1355V44.4295ZM21.9464 43.768C21.9464 43.565 21.9499 43.425 21.9604 43.306H21.6874L21.6769 43.5615H21.6699C21.5929 43.4215 21.4354 43.271 21.1414 43.271C20.7494 43.271 20.3749 43.593 20.3749 44.167C20.3749 44.636 20.6759 44.993 21.0959 44.993C21.3584 44.993 21.5439 44.867 21.6349 44.7095H21.6419V44.895C21.6419 45.3255 21.4109 45.49 21.0959 45.49C20.8859 45.49 20.7109 45.427 20.5989 45.3535L20.5219 45.5915C20.6584 45.6825 20.8824 45.7315 21.0854 45.7315C21.2989 45.7315 21.5369 45.679 21.7049 45.5285C21.8659 45.378 21.9464 45.1435 21.9464 44.7515V43.768ZM21.6384 44.279C21.6384 44.3315 21.6314 44.391 21.6139 44.4435C21.5509 44.6395 21.3794 44.7585 21.1869 44.7585C20.8579 44.7585 20.6864 44.482 20.6864 44.1495C20.6864 43.7575 20.8964 43.509 21.1904 43.509C21.4179 43.509 21.5649 43.656 21.6209 43.838C21.6349 43.8765 21.6384 43.922 21.6384 43.9745V44.279ZM23.9015 44.209C23.9085 44.174 23.912 44.1285 23.912 44.0655C23.912 43.754 23.7685 43.271 23.212 43.271C22.7185 43.271 22.4175 43.67 22.4175 44.181C22.4175 44.692 22.729 45.0385 23.2505 45.0385C23.52 45.0385 23.709 44.979 23.8175 44.93L23.7615 44.7095C23.6495 44.7585 23.513 44.797 23.2925 44.797C22.981 44.797 22.7185 44.6255 22.7115 44.209H23.9015ZM22.715 43.9885C22.7395 43.775 22.8725 43.4915 23.1875 43.4915C23.534 43.4915 23.618 43.796 23.6145 43.9885H22.715ZM24.2654 44.9195C24.3844 44.9895 24.5559 45.0385 24.7414 45.0385C25.1369 45.0385 25.3714 44.8285 25.3714 44.5275C25.3714 44.2755 25.2174 44.1285 24.9269 44.02C24.7064 43.9325 24.6084 43.8695 24.6084 43.7295C24.6084 43.6035 24.7064 43.4985 24.8884 43.4985C25.0459 43.4985 25.1684 43.558 25.2349 43.6L25.3084 43.376C25.2174 43.3165 25.0669 43.271 24.8954 43.271C24.5349 43.271 24.3109 43.495 24.3109 43.768C24.3109 43.971 24.4544 44.1355 24.7624 44.2475C24.9864 44.3315 25.0739 44.4085 25.0739 44.5555C25.0739 44.699 24.9689 44.8075 24.7484 44.8075C24.5944 44.8075 24.4334 44.7445 24.3389 44.6885L24.2654 44.9195ZM25.9891 43.803C26.1186 43.803 26.1991 43.7085 26.1991 43.586C26.1991 43.4565 26.1186 43.3655 25.9926 43.3655C25.8736 43.3655 25.7861 43.4565 25.7861 43.586C25.7861 43.7085 25.8701 43.803 25.9891 43.803ZM25.9891 45.0385C26.1186 45.0385 26.1991 44.944 26.1991 44.8215C26.1991 44.692 26.1186 44.601 25.9926 44.601C25.8736 44.601 25.7861 44.692 25.7861 44.8215C25.7861 44.944 25.8701 45.0385 25.9891 45.0385ZM36.6186 45.693H36.9231V44.7725H36.9301C37.0316 44.9405 37.2276 45.0385 37.4516 45.0385C37.8506 45.0385 38.2251 44.7375 38.2251 44.1285C38.2251 43.6175 37.9171 43.271 37.5041 43.271C37.2276 43.271 37.0246 43.39 36.9021 43.5965H36.8951L36.8776 43.306H36.6046C36.6116 43.467 36.6186 43.642 36.6186 43.859V45.693ZM36.9231 44.0165C36.9231 43.978 36.9336 43.9325 36.9441 43.894C37.0001 43.663 37.1996 43.516 37.4096 43.516C37.7351 43.516 37.9136 43.8065 37.9136 44.1425C37.9136 44.531 37.7246 44.797 37.3991 44.797C37.1786 44.797 36.9931 44.65 36.9371 44.4365C36.9266 44.398 36.9231 44.356 36.9231 44.3105V44.0165ZM39.0033 42.515H38.6988V45H39.0033V44.363L39.1608 44.188L39.7418 45H40.1198L39.3743 44.0025L40.0253 43.306H39.6578L39.1573 43.8905C39.1083 43.95 39.0523 44.0235 39.0103 44.083H39.0033V42.515ZM41.8759 43.768C41.8759 43.565 41.8794 43.425 41.8899 43.306H41.6169L41.6064 43.5615H41.5994C41.5224 43.4215 41.3649 43.271 41.0709 43.271C40.6789 43.271 40.3044 43.593 40.3044 44.167C40.3044 44.636 40.6054 44.993 41.0254 44.993C41.2879 44.993 41.4734 44.867 41.5644 44.7095H41.5714V44.895C41.5714 45.3255 41.3404 45.49 41.0254 45.49C40.8154 45.49 40.6404 45.427 40.5284 45.3535L40.4514 45.5915C40.5879 45.6825 40.8119 45.7315 41.0149 45.7315C41.2284 45.7315 41.4664 45.679 41.6344 45.5285C41.7954 45.378 41.8759 45.1435 41.8759 44.7515V43.768ZM41.5679 44.279C41.5679 44.3315 41.5609 44.391 41.5434 44.4435C41.4804 44.6395 41.3089 44.7585 41.1164 44.7585C40.7874 44.7585 40.6159 44.482 40.6159 44.1495C40.6159 43.7575 40.8259 43.509 41.1199 43.509C41.3474 43.509 41.4944 43.656 41.5504 43.838C41.5644 43.8765 41.5679 43.922 41.5679 43.9745V44.279ZM43.1832 44.9195C43.3022 44.9895 43.4737 45.0385 43.6592 45.0385C44.0547 45.0385 44.2892 44.8285 44.2892 44.5275C44.2892 44.2755 44.1352 44.1285 43.8447 44.02C43.6242 43.9325 43.5262 43.8695 43.5262 43.7295C43.5262 43.6035 43.6242 43.4985 43.8062 43.4985C43.9637 43.4985 44.0862 43.558 44.1527 43.6L44.2262 43.376C44.1352 43.3165 43.9847 43.271 43.8132 43.271C43.4527 43.271 43.2287 43.495 43.2287 43.768C43.2287 43.971 43.3722 44.1355 43.6802 44.2475C43.9042 44.3315 43.9917 44.4085 43.9917 44.5555C43.9917 44.699 43.8867 44.8075 43.6662 44.8075C43.5122 44.8075 43.3512 44.7445 43.2567 44.6885L43.1832 44.9195ZM46.1354 44.209C46.1424 44.174 46.1459 44.1285 46.1459 44.0655C46.1459 43.754 46.0024 43.271 45.4459 43.271C44.9524 43.271 44.6514 43.67 44.6514 44.181C44.6514 44.692 44.9629 45.0385 45.4844 45.0385C45.7539 45.0385 45.9429 44.979 46.0514 44.93L45.9954 44.7095C45.8834 44.7585 45.7469 44.797 45.5264 44.797C45.2149 44.797 44.9524 44.6255 44.9454 44.209H46.1354ZM44.9489 43.9885C44.9734 43.775 45.1064 43.4915 45.4214 43.4915C45.7679 43.4915 45.8519 43.796 45.8484 43.9885H44.9489ZM47.8048 43.9605C47.8048 43.6245 47.6788 43.271 47.1608 43.271C46.9473 43.271 46.7408 43.3305 46.6008 43.418L46.6708 43.6245C46.7898 43.544 46.9543 43.4985 47.1153 43.4985C47.4618 43.495 47.5003 43.7505 47.5003 43.887V43.922C46.8458 43.9185 46.4818 44.1425 46.4818 44.552C46.4818 44.797 46.6568 45.0385 46.9998 45.0385C47.2413 45.0385 47.4233 44.9195 47.5178 44.7865H47.5283L47.5528 45H47.8293C47.8118 44.8845 47.8048 44.741 47.8048 44.594V43.9605ZM47.5073 44.4295C47.5073 44.4575 47.5038 44.4925 47.4933 44.5275C47.4443 44.671 47.3008 44.811 47.0768 44.811C46.9228 44.811 46.7898 44.72 46.7898 44.517C46.7898 44.188 47.1713 44.1285 47.5073 44.1355V44.4295ZM49.5458 44.7095C49.4583 44.748 49.3428 44.79 49.1678 44.79C48.8318 44.79 48.5798 44.5485 48.5798 44.1565C48.5798 43.8065 48.7898 43.516 49.1783 43.516C49.3463 43.516 49.4618 43.558 49.5353 43.5965L49.6053 43.362C49.5213 43.3165 49.3603 43.271 49.1783 43.271C48.6253 43.271 48.2683 43.6525 48.2683 44.174C48.2683 44.692 48.6008 45.0385 49.1118 45.0385C49.3393 45.0385 49.5178 44.979 49.5983 44.9405L49.5458 44.7095ZM50.0471 45H50.3551V44.097C50.3551 44.048 50.3586 43.9955 50.3656 43.9535C50.4076 43.7225 50.5616 43.5615 50.7786 43.5615C50.8206 43.5615 50.8521 43.5615 50.8836 43.5685V43.278C50.8556 43.2745 50.8311 43.271 50.7996 43.271C50.5931 43.271 50.4041 43.4145 50.3271 43.642H50.3166L50.3026 43.306H50.0331C50.0436 43.4635 50.0471 43.635 50.0471 43.8345V45ZM51.2933 45H51.6013V43.978C51.6013 43.922 51.6048 43.8765 51.6223 43.831C51.6818 43.6665 51.8358 43.5265 52.0353 43.5265C52.3258 43.5265 52.4273 43.754 52.4273 44.027V45H52.7353V43.992C52.7353 43.411 52.3713 43.271 52.1438 43.271C52.0283 43.271 51.9198 43.3025 51.8288 43.355C51.7343 43.4075 51.6573 43.488 51.6083 43.5755H51.6013V42.515H51.2933V45ZM54.1269 44.1635L55.7509 45V44.7585L54.3824 44.0725V44.0655L55.7509 43.3795V43.138L54.1269 43.9745V44.1635ZM57.4789 45.693H57.7834V43.7715C57.7834 43.5965 57.7904 43.446 57.7974 43.306H57.5069L57.4964 43.5615H57.4894C57.4054 43.4005 57.2304 43.271 56.9679 43.271C56.6109 43.271 56.2014 43.5475 56.2014 44.1845C56.2014 44.699 56.5234 45.0385 56.9189 45.0385C57.1919 45.0385 57.3774 44.9055 57.4719 44.741H57.4789V45.693ZM57.4789 44.3105C57.4789 44.356 57.4684 44.4155 57.4544 44.461C57.3844 44.671 57.2129 44.7935 57.0134 44.7935C56.6739 44.7935 56.5129 44.503 56.5129 44.1635C56.5129 43.7855 56.7054 43.516 57.0239 43.516C57.2549 43.516 57.4159 43.677 57.4649 43.866C57.4754 43.9045 57.4789 43.95 57.4789 43.992V44.3105ZM59.801 43.306H59.493V44.342C59.493 44.4015 59.4825 44.4575 59.465 44.4995C59.409 44.6395 59.2655 44.783 59.059 44.783C58.7825 44.783 58.681 44.5625 58.681 44.2405V43.306H58.373V44.2965C58.373 44.888 58.6915 45.0385 58.9575 45.0385C59.2585 45.0385 59.4405 44.86 59.5175 44.7235H59.5245L59.542 45H59.815C59.8045 44.867 59.801 44.713 59.801 44.5345V43.306ZM61.7603 44.209C61.7673 44.174 61.7708 44.1285 61.7708 44.0655C61.7708 43.754 61.6273 43.271 61.0708 43.271C60.5773 43.271 60.2763 43.67 60.2763 44.181C60.2763 44.692 60.5878 45.0385 61.1093 45.0385C61.3788 45.0385 61.5678 44.979 61.6763 44.93L61.6203 44.7095C61.5083 44.7585 61.3718 44.797 61.1513 44.797C60.8398 44.797 60.5773 44.6255 60.5703 44.209H61.7603ZM60.5738 43.9885C60.5983 43.775 60.7313 43.4915 61.0463 43.4915C61.3928 43.4915 61.4768 43.796 61.4733 43.9885H60.5738ZM62.2397 45H62.5477V44.097C62.5477 44.048 62.5512 43.9955 62.5582 43.9535C62.6002 43.7225 62.7542 43.5615 62.9712 43.5615C63.0132 43.5615 63.0447 43.5615 63.0762 43.5685V43.278C63.0482 43.2745 63.0237 43.271 62.9922 43.271C62.7857 43.271 62.5967 43.4145 62.5197 43.642H62.5092L62.4952 43.306H62.2257C62.2362 43.4635 62.2397 43.635 62.2397 43.8345V45ZM63.3371 43.306L63.9601 44.867C63.9776 44.9055 63.9846 44.93 63.9846 44.9475C63.9846 44.965 63.9741 44.9895 63.9601 45.021C63.8866 45.1785 63.7851 45.2975 63.7011 45.364C63.6101 45.441 63.5086 45.49 63.4316 45.5145L63.5086 45.77C63.5856 45.756 63.7326 45.7035 63.8866 45.574C64.0966 45.3885 64.2471 45.0945 64.4676 44.5135L64.9296 43.306H64.6041L64.2681 44.3C64.2261 44.4225 64.1911 44.552 64.1596 44.6535H64.1526C64.1246 44.552 64.0826 44.419 64.0406 44.307L63.6731 43.306H63.3371ZM66.8955 43.9675L65.2715 43.138V43.3795L66.6505 44.0655V44.0725L65.2715 44.7585V45L66.8955 44.167V43.9675ZM0.2625 46.641V49H0.5705V46.641H0.2625ZM1.21458 49H1.52258V47.9815C1.52258 47.929 1.52958 47.8765 1.54358 47.838C1.59958 47.6665 1.75708 47.523 1.95658 47.523C2.24708 47.523 2.34858 47.7505 2.34858 48.0235V49H2.65658V47.992C2.65658 47.411 2.29258 47.271 2.05808 47.271C1.77808 47.271 1.58208 47.4285 1.49808 47.586H1.49108L1.47358 47.306H1.20058C1.21108 47.446 1.21458 47.586 1.21458 47.7645V49ZM3.12799 48.9195C3.24699 48.9895 3.41849 49.0385 3.60399 49.0385C3.99949 49.0385 4.23399 48.8285 4.23399 48.5275C4.23399 48.2755 4.07999 48.1285 3.78949 48.02C3.56899 47.9325 3.47099 47.8695 3.47099 47.7295C3.47099 47.6035 3.56899 47.4985 3.75099 47.4985C3.90849 47.4985 4.03099 47.558 4.09749 47.6L4.17099 47.376C4.07999 47.3165 3.92949 47.271 3.75799 47.271C3.39749 47.271 3.17349 47.495 3.17349 47.768C3.17349 47.971 3.31699 48.1355 3.62499 48.2475C3.84899 48.3315 3.93649 48.4085 3.93649 48.5555C3.93649 48.699 3.83149 48.8075 3.61099 48.8075C3.45699 48.8075 3.29599 48.7445 3.20149 48.6885L3.12799 48.9195ZM4.78868 46.991V47.306H4.52618V47.5405H4.78868V48.4645C4.78868 48.664 4.82368 48.8145 4.90768 48.909C4.98118 48.9895 5.09668 49.0385 5.24018 49.0385C5.35918 49.0385 5.45368 49.0175 5.51318 48.9965L5.49918 48.762C5.45368 48.776 5.40468 48.783 5.32068 48.783C5.14918 48.783 5.08968 48.664 5.08968 48.454V47.5405H5.53068V47.306H5.08968V46.9L4.78868 46.991ZM7.15487 47.9605C7.15487 47.6245 7.02887 47.271 6.51087 47.271C6.29737 47.271 6.09087 47.3305 5.95087 47.418L6.02087 47.6245C6.13987 47.544 6.30437 47.4985 6.46537 47.4985C6.81188 47.495 6.85037 47.7505 6.85037 47.887V47.922C6.19587 47.9185 5.83187 48.1425 5.83187 48.552C5.83187 48.797 6.00687 49.0385 6.34987 49.0385C6.59137 49.0385 6.77337 48.9195 6.86788 48.7865H6.87837L6.90287 49H7.17937C7.16187 48.8845 7.15487 48.741 7.15487 48.594V47.9605ZM6.85737 48.4295C6.85737 48.4575 6.85387 48.4925 6.84337 48.5275C6.79437 48.671 6.65087 48.811 6.42687 48.811C6.27287 48.811 6.13987 48.72 6.13987 48.517C6.13987 48.188 6.52137 48.1285 6.85737 48.1355V48.4295ZM7.74085 49H8.04885V46.515H7.74085V49ZM8.6555 49H8.9635V46.515H8.6555V49ZM11.5893 47.9605C11.5893 47.6245 11.4633 47.271 10.9453 47.271C10.7318 47.271 10.5253 47.3305 10.3853 47.418L10.4553 47.6245C10.5743 47.544 10.7388 47.4985 10.8998 47.4985C11.2463 47.495 11.2848 47.7505 11.2848 47.887V47.922C10.6303 47.9185 10.2663 48.1425 10.2663 48.552C10.2663 48.797 10.4413 49.0385 10.7843 49.0385C11.0258 49.0385 11.2078 48.9195 11.3023 48.7865H11.3128L11.3373 49H11.6138C11.5963 48.8845 11.5893 48.741 11.5893 48.594V47.9605ZM11.2918 48.4295C11.2918 48.4575 11.2883 48.4925 11.2778 48.5275C11.2288 48.671 11.0853 48.811 10.8613 48.811C10.7073 48.811 10.5743 48.72 10.5743 48.517C10.5743 48.188 10.9558 48.1285 11.2918 48.1355V48.4295ZM13.0045 49.693H13.309V48.7725H13.316C13.4175 48.9405 13.6135 49.0385 13.8375 49.0385C14.2365 49.0385 14.611 48.7375 14.611 48.1285C14.611 47.6175 14.303 47.271 13.89 47.271C13.6135 47.271 13.4105 47.39 13.288 47.5965H13.281L13.2635 47.306H12.9905C12.9975 47.467 13.0045 47.642 13.0045 47.859V49.693ZM13.309 48.0165C13.309 47.978 13.3195 47.9325 13.33 47.894C13.386 47.663 13.5855 47.516 13.7955 47.516C14.121 47.516 14.2995 47.8065 14.2995 48.1425C14.2995 48.531 14.1105 48.797 13.785 48.797C13.5645 48.797 13.379 48.65 13.323 48.4365C13.3125 48.398 13.309 48.356 13.309 48.3105V48.0165ZM16.2747 47.9605C16.2747 47.6245 16.1487 47.271 15.6307 47.271C15.4172 47.271 15.2107 47.3305 15.0707 47.418L15.1407 47.6245C15.2597 47.544 15.4242 47.4985 15.5852 47.4985C15.9317 47.495 15.9702 47.7505 15.9702 47.887V47.922C15.3157 47.9185 14.9517 48.1425 14.9517 48.552C14.9517 48.797 15.1267 49.0385 15.4697 49.0385C15.7112 49.0385 15.8932 48.9195 15.9877 48.7865H15.9982L16.0227 49H16.2992C16.2817 48.8845 16.2747 48.741 16.2747 48.594V47.9605ZM15.9772 48.4295C15.9772 48.4575 15.9737 48.4925 15.9632 48.5275C15.9142 48.671 15.7707 48.811 15.5467 48.811C15.3927 48.811 15.2597 48.72 15.2597 48.517C15.2597 48.188 15.6412 48.1285 15.9772 48.1355V48.4295ZM18.0157 48.7095C17.9282 48.748 17.8127 48.79 17.6377 48.79C17.3017 48.79 17.0497 48.5485 17.0497 48.1565C17.0497 47.8065 17.2597 47.516 17.6482 47.516C17.8162 47.516 17.9317 47.558 18.0052 47.5965L18.0752 47.362C17.9912 47.3165 17.8302 47.271 17.6482 47.271C17.0952 47.271 16.7382 47.6525 16.7382 48.174C16.7382 48.692 17.0707 49.0385 17.5817 49.0385C17.8092 49.0385 17.9877 48.979 18.0682 48.9405L18.0157 48.7095ZM18.8215 46.515H18.517V49H18.8215V48.363L18.979 48.188L19.56 49H19.938L19.1925 48.0025L19.8435 47.306H19.476L18.9755 47.8905C18.9265 47.95 18.8705 48.0235 18.8285 48.083H18.8215V46.515ZM21.4967 47.9605C21.4967 47.6245 21.3707 47.271 20.8527 47.271C20.6392 47.271 20.4327 47.3305 20.2927 47.418L20.3627 47.6245C20.4817 47.544 20.6462 47.4985 20.8072 47.4985C21.1537 47.495 21.1922 47.7505 21.1922 47.887V47.922C20.5377 47.9185 20.1737 48.1425 20.1737 48.552C20.1737 48.797 20.3487 49.0385 20.6917 49.0385C20.9332 49.0385 21.1152 48.9195 21.2097 48.7865H21.2202L21.2447 49H21.5212C21.5037 48.8845 21.4967 48.741 21.4967 48.594V47.9605ZM21.1992 48.4295C21.1992 48.4575 21.1957 48.4925 21.1852 48.5275C21.1362 48.671 20.9927 48.811 20.7687 48.811C20.6147 48.811 20.4817 48.72 20.4817 48.517C20.4817 48.188 20.8632 48.1285 21.1992 48.1355V48.4295ZM23.5316 47.768C23.5316 47.565 23.5351 47.425 23.5456 47.306H23.2726L23.2621 47.5615H23.2551C23.1781 47.4215 23.0206 47.271 22.7266 47.271C22.3346 47.271 21.9601 47.593 21.9601 48.167C21.9601 48.636 22.2611 48.993 22.6811 48.993C22.9436 48.993 23.1291 48.867 23.2201 48.7095H23.2271V48.895C23.2271 49.3255 22.9961 49.49 22.6811 49.49C22.4711 49.49 22.2961 49.427 22.1841 49.3535L22.1071 49.5915C22.2436 49.6825 22.4676 49.7315 22.6706 49.7315C22.8841 49.7315 23.1221 49.679 23.2901 49.5285C23.4511 49.378 23.5316 49.1435 23.5316 48.7515V47.768ZM23.2236 48.279C23.2236 48.3315 23.2166 48.391 23.1991 48.4435C23.1361 48.6395 22.9646 48.7585 22.7721 48.7585C22.4431 48.7585 22.2716 48.482 22.2716 48.1495C22.2716 47.7575 22.4816 47.509 22.7756 47.509C23.0031 47.509 23.1501 47.656 23.2061 47.838C23.2201 47.8765 23.2236 47.922 23.2236 47.9745V48.279ZM25.4867 48.209C25.4937 48.174 25.4972 48.1285 25.4972 48.0655C25.4972 47.754 25.3537 47.271 24.7972 47.271C24.3037 47.271 24.0027 47.67 24.0027 48.181C24.0027 48.692 24.3142 49.0385 24.8357 49.0385C25.1052 49.0385 25.2942 48.979 25.4027 48.93L25.3467 48.7095C25.2347 48.7585 25.0982 48.797 24.8777 48.797C24.5662 48.797 24.3037 48.6255 24.2967 48.209H25.4867ZM24.3002 47.9885C24.3247 47.775 24.4577 47.4915 24.7727 47.4915C25.1192 47.4915 25.2032 47.796 25.1997 47.9885H24.3002ZM26.0991 47.803C26.2286 47.803 26.3091 47.7085 26.3091 47.586C26.3091 47.4565 26.2286 47.3655 26.1026 47.3655C25.9836 47.3655 25.8961 47.4565 25.8961 47.586C25.8961 47.7085 25.9801 47.803 26.0991 47.803ZM26.0991 49.0385C26.2286 49.0385 26.3091 48.944 26.3091 48.8215C26.3091 48.692 26.2286 48.601 26.1026 48.601C25.9836 48.601 25.8961 48.692 25.8961 48.8215C25.8961 48.944 25.9801 49.0385 26.0991 49.0385ZM36.7286 49.693H37.0331V48.7725H37.0401C37.1416 48.9405 37.3376 49.0385 37.5616 49.0385C37.9606 49.0385 38.3351 48.7375 38.3351 48.1285C38.3351 47.6175 38.0271 47.271 37.6141 47.271C37.3376 47.271 37.1346 47.39 37.0121 47.5965H37.0051L36.9876 47.306H36.7146C36.7216 47.467 36.7286 47.642 36.7286 47.859V49.693ZM37.0331 48.0165C37.0331 47.978 37.0436 47.9325 37.0541 47.894C37.1101 47.663 37.3096 47.516 37.5196 47.516C37.8451 47.516 38.0236 47.8065 38.0236 48.1425C38.0236 48.531 37.8346 48.797 37.5091 48.797C37.2886 48.797 37.1031 48.65 37.0471 48.4365C37.0366 48.398 37.0331 48.356 37.0331 48.3105V48.0165ZM39.1133 46.515H38.8088V49H39.1133V48.363L39.2708 48.188L39.8518 49H40.2298L39.4843 48.0025L40.1353 47.306H39.7678L39.2673 47.8905C39.2183 47.95 39.1623 48.0235 39.1203 48.083H39.1133V46.515ZM41.9859 47.768C41.9859 47.565 41.9894 47.425 41.9999 47.306H41.7269L41.7164 47.5615H41.7094C41.6324 47.4215 41.4749 47.271 41.1809 47.271C40.7889 47.271 40.4144 47.593 40.4144 48.167C40.4144 48.636 40.7154 48.993 41.1354 48.993C41.3979 48.993 41.5834 48.867 41.6744 48.7095H41.6814V48.895C41.6814 49.3255 41.4504 49.49 41.1354 49.49C40.9254 49.49 40.7504 49.427 40.6384 49.3535L40.5614 49.5915C40.6979 49.6825 40.9219 49.7315 41.1249 49.7315C41.3384 49.7315 41.5764 49.679 41.7444 49.5285C41.9054 49.378 41.9859 49.1435 41.9859 48.7515V47.768ZM41.6779 48.279C41.6779 48.3315 41.6709 48.391 41.6534 48.4435C41.5904 48.6395 41.4189 48.7585 41.2264 48.7585C40.8974 48.7585 40.7259 48.482 40.7259 48.1495C40.7259 47.7575 40.9359 47.509 41.2299 47.509C41.4574 47.509 41.6044 47.656 41.6604 47.838C41.6744 47.8765 41.6779 47.922 41.6779 47.9745V48.279ZM43.7167 49V47.306H43.4087V49H43.7167ZM43.5627 46.6375C43.4472 46.6375 43.3702 46.725 43.3702 46.83C43.3702 46.935 43.4437 47.019 43.5557 47.019C43.6782 47.019 43.7517 46.935 43.7517 46.83C43.7517 46.7215 43.6747 46.6375 43.5627 46.6375ZM44.3165 49H44.6245V47.9815C44.6245 47.929 44.6315 47.8765 44.6455 47.838C44.7015 47.6665 44.859 47.523 45.0585 47.523C45.349 47.523 45.4505 47.7505 45.4505 48.0235V49H45.7585V47.992C45.7585 47.411 45.3945 47.271 45.16 47.271C44.88 47.271 44.684 47.4285 44.6 47.586H44.593L44.5755 47.306H44.3025C44.313 47.446 44.3165 47.586 44.3165 47.7645V49ZM46.2299 48.9195C46.3489 48.9895 46.5204 49.0385 46.7059 49.0385C47.1014 49.0385 47.3359 48.8285 47.3359 48.5275C47.3359 48.2755 47.1819 48.1285 46.8914 48.02C46.6709 47.9325 46.5729 47.8695 46.5729 47.7295C46.5729 47.6035 46.6709 47.4985 46.8529 47.4985C47.0104 47.4985 47.1329 47.558 47.1994 47.6L47.2729 47.376C47.1819 47.3165 47.0314 47.271 46.8599 47.271C46.4994 47.271 46.2754 47.495 46.2754 47.768C46.2754 47.971 46.4189 48.1355 46.7269 48.2475C46.9509 48.3315 47.0384 48.4085 47.0384 48.5555C47.0384 48.699 46.9334 48.8075 46.7129 48.8075C46.5589 48.8075 46.3979 48.7445 46.3034 48.6885L46.2299 48.9195ZM47.8906 46.991V47.306H47.6281V47.5405H47.8906V48.4645C47.8906 48.664 47.9256 48.8145 48.0096 48.909C48.0831 48.9895 48.1986 49.0385 48.3421 49.0385C48.4611 49.0385 48.5556 49.0175 48.6151 48.9965L48.6011 48.762C48.5556 48.776 48.5066 48.783 48.4226 48.783C48.2511 48.783 48.1916 48.664 48.1916 48.454V47.5405H48.6326V47.306H48.1916V46.9L47.8906 46.991ZM50.2568 47.9605C50.2568 47.6245 50.1308 47.271 49.6128 47.271C49.3993 47.271 49.1928 47.3305 49.0528 47.418L49.1228 47.6245C49.2418 47.544 49.4063 47.4985 49.5673 47.4985C49.9138 47.495 49.9523 47.7505 49.9523 47.887V47.922C49.2978 47.9185 48.9338 48.1425 48.9338 48.552C48.9338 48.797 49.1088 49.0385 49.4518 49.0385C49.6933 49.0385 49.8753 48.9195 49.9698 48.7865H49.9803L50.0048 49H50.2813C50.2638 48.8845 50.2568 48.741 50.2568 48.594V47.9605ZM49.9593 48.4295C49.9593 48.4575 49.9558 48.4925 49.9453 48.5275C49.8963 48.671 49.7528 48.811 49.5288 48.811C49.3748 48.811 49.2418 48.72 49.2418 48.517C49.2418 48.188 49.6233 48.1285 49.9593 48.1355V48.4295ZM50.8428 49H51.1508V46.515H50.8428V49ZM51.7575 49H52.0655V46.515H51.7575V49ZM53.4768 48.1635L55.1008 49V48.7585L53.7323 48.0725V48.0655L55.1008 47.3795V47.138L53.4768 47.9745V48.1635ZM55.6738 49.693H55.9783V48.7725H55.9853C56.0868 48.9405 56.2828 49.0385 56.5068 49.0385C56.9058 49.0385 57.2803 48.7375 57.2803 48.1285C57.2803 47.6175 56.9723 47.271 56.5593 47.271C56.2828 47.271 56.0798 47.39 55.9573 47.5965H55.9503L55.9328 47.306H55.6598C55.6668 47.467 55.6738 47.642 55.6738 47.859V49.693ZM55.9783 48.0165C55.9783 47.978 55.9888 47.9325 55.9993 47.894C56.0553 47.663 56.2548 47.516 56.4648 47.516C56.7903 47.516 56.9688 47.8065 56.9688 48.1425C56.9688 48.531 56.7798 48.797 56.4543 48.797C56.2338 48.797 56.0483 48.65 55.9923 48.4365C55.9818 48.398 55.9783 48.356 55.9783 48.3105V48.0165ZM58.9439 47.9605C58.9439 47.6245 58.8179 47.271 58.2999 47.271C58.0864 47.271 57.8799 47.3305 57.7399 47.418L57.8099 47.6245C57.9289 47.544 58.0934 47.4985 58.2544 47.4985C58.6009 47.495 58.6394 47.7505 58.6394 47.887V47.922C57.9849 47.9185 57.6209 48.1425 57.6209 48.552C57.6209 48.797 57.7959 49.0385 58.1389 49.0385C58.3804 49.0385 58.5624 48.9195 58.6569 48.7865H58.6674L58.6919 49H58.9684C58.9509 48.8845 58.9439 48.741 58.9439 48.594V47.9605ZM58.6464 48.4295C58.6464 48.4575 58.6429 48.4925 58.6324 48.5275C58.5834 48.671 58.4399 48.811 58.2159 48.811C58.0619 48.811 57.9289 48.72 57.9289 48.517C57.9289 48.188 58.3104 48.1285 58.6464 48.1355V48.4295ZM60.6849 48.7095C60.5974 48.748 60.4819 48.79 60.3069 48.79C59.9709 48.79 59.7189 48.5485 59.7189 48.1565C59.7189 47.8065 59.9289 47.516 60.3174 47.516C60.4854 47.516 60.6009 47.558 60.6744 47.5965L60.7444 47.362C60.6604 47.3165 60.4994 47.271 60.3174 47.271C59.7644 47.271 59.4074 47.6525 59.4074 48.174C59.4074 48.692 59.7399 49.0385 60.2509 49.0385C60.4784 49.0385 60.6569 48.979 60.7374 48.9405L60.6849 48.7095ZM61.4908 46.515H61.1863V49H61.4908V48.363L61.6483 48.188L62.2293 49H62.6073L61.8618 48.0025L62.5128 47.306H62.1453L61.6448 47.8905C61.5958 47.95 61.5398 48.0235 61.4978 48.083H61.4908V46.515ZM64.1659 47.9605C64.1659 47.6245 64.0399 47.271 63.5219 47.271C63.3084 47.271 63.1019 47.3305 62.9619 47.418L63.0319 47.6245C63.1509 47.544 63.3154 47.4985 63.4764 47.4985C63.8229 47.495 63.8614 47.7505 63.8614 47.887V47.922C63.2069 47.9185 62.8429 48.1425 62.8429 48.552C62.8429 48.797 63.0179 49.0385 63.3609 49.0385C63.6024 49.0385 63.7844 48.9195 63.8789 48.7865H63.8894L63.9139 49H64.1904C64.1729 48.8845 64.1659 48.741 64.1659 48.594V47.9605ZM63.8684 48.4295C63.8684 48.4575 63.8649 48.4925 63.8544 48.5275C63.8054 48.671 63.6619 48.811 63.4379 48.811C63.2839 48.811 63.1509 48.72 63.1509 48.517C63.1509 48.188 63.5324 48.1285 63.8684 48.1355V48.4295ZM66.2009 47.768C66.2009 47.565 66.2044 47.425 66.2149 47.306H65.9419L65.9314 47.5615H65.9244C65.8474 47.4215 65.6899 47.271 65.3959 47.271C65.0039 47.271 64.6294 47.593 64.6294 48.167C64.6294 48.636 64.9304 48.993 65.3504 48.993C65.6129 48.993 65.7984 48.867 65.8894 48.7095H65.8964V48.895C65.8964 49.3255 65.6654 49.49 65.3504 49.49C65.1404 49.49 64.9654 49.427 64.8534 49.3535L64.7764 49.5915C64.9129 49.6825 65.1369 49.7315 65.3399 49.7315C65.5534 49.7315 65.7914 49.679 65.9594 49.5285C66.1204 49.378 66.2009 49.1435 66.2009 48.7515V47.768ZM65.8929 48.279C65.8929 48.3315 65.8859 48.391 65.8684 48.4435C65.8054 48.6395 65.6339 48.7585 65.4414 48.7585C65.1124 48.7585 64.9409 48.482 64.9409 48.1495C64.9409 47.7575 65.1509 47.509 65.4449 47.509C65.6724 47.509 65.8194 47.656 65.8754 47.838C65.8894 47.8765 65.8929 47.922 65.8929 47.9745V48.279ZM68.156 48.209C68.163 48.174 68.1665 48.1285 68.1665 48.0655C68.1665 47.754 68.023 47.271 67.4665 47.271C66.973 47.271 66.672 47.67 66.672 48.181C66.672 48.692 66.9835 49.0385 67.505 49.0385C67.7745 49.0385 67.9635 48.979 68.072 48.93L68.016 48.7095C67.904 48.7585 67.7675 48.797 67.547 48.797C67.2355 48.797 66.973 48.6255 66.966 48.209H68.156ZM66.9695 47.9885C66.994 47.775 67.127 47.4915 67.442 47.4915C67.7885 47.4915 67.8725 47.796 67.869 47.9885H66.9695ZM70.2349 47.9675L68.6109 47.138V47.3795L69.9899 48.0655V48.0725L68.6109 48.7585V49L70.2349 48.167V47.9675ZM0.2625 50.641V52.0305C0.2625 52.7655 0.6265 53.0385 1.1095 53.0385C1.6205 53.0385 2.002 52.7445 2.002 52.02V50.641H1.694V52.041C1.694 52.559 1.4665 52.79 1.12 52.79C0.805 52.79 0.5705 52.566 0.5705 52.041V50.641H0.2625ZM2.60911 53.693H2.91361V52.7725H2.92061C3.02211 52.9405 3.21811 53.0385 3.44211 53.0385C3.84111 53.0385 4.21561 52.7375 4.21561 52.1285C4.21561 51.6175 3.90761 51.271 3.49461 51.271C3.21811 51.271 3.01511 51.39 2.89261 51.5965H2.88561L2.86811 51.306H2.59511C2.60211 51.467 2.60911 51.642 2.60911 51.859V53.693ZM2.91361 52.0165C2.91361 51.978 2.92411 51.9325 2.93461 51.894C2.99061 51.663 3.19011 51.516 3.40011 51.516C3.72561 51.516 3.90411 51.8065 3.90411 52.1425C3.90411 52.531 3.71511 52.797 3.38961 52.797C3.16911 52.797 2.98361 52.65 2.92761 52.4365C2.91711 52.398 2.91361 52.356 2.91361 52.3105V52.0165ZM6.13829 51.768C6.13829 51.565 6.14179 51.425 6.15229 51.306H5.87929L5.86879 51.5615H5.86179C5.78479 51.4215 5.62729 51.271 5.33329 51.271C4.94129 51.271 4.56679 51.593 4.56679 52.167C4.56679 52.636 4.86779 52.993 5.28779 52.993C5.55029 52.993 5.73579 52.867 5.82679 52.7095H5.83379V52.895C5.83379 53.3255 5.60279 53.49 5.28779 53.49C5.07779 53.49 4.90279 53.427 4.79079 53.3535L4.71379 53.5915C4.85029 53.6825 5.07429 53.7315 5.27729 53.7315C5.49079 53.7315 5.72879 53.679 5.89679 53.5285C6.05779 53.378 6.13829 53.1435 6.13829 52.7515V51.768ZM5.83029 52.279C5.83029 52.3315 5.82329 52.391 5.80579 52.4435C5.74279 52.6395 5.57129 52.7585 5.37879 52.7585C5.04979 52.7585 4.87829 52.482 4.87829 52.1495C4.87829 51.7575 5.08829 51.509 5.38229 51.509C5.60979 51.509 5.75679 51.656 5.81279 51.838C5.82679 51.8765 5.83029 51.922 5.83029 51.9745V52.279ZM6.71136 53H7.01936V52.097C7.01936 52.048 7.02286 51.9955 7.02986 51.9535C7.07186 51.7225 7.22586 51.5615 7.44286 51.5615C7.48486 51.5615 7.51636 51.5615 7.54786 51.5685V51.278C7.51986 51.2745 7.49536 51.271 7.46386 51.271C7.25736 51.271 7.06836 51.4145 6.99136 51.642H6.98086L6.96686 51.306H6.69736C6.70786 51.4635 6.71136 51.635 6.71136 51.8345V53ZM9.11679 51.9605C9.11679 51.6245 8.99079 51.271 8.47279 51.271C8.25929 51.271 8.05279 51.3305 7.91279 51.418L7.98279 51.6245C8.10179 51.544 8.26629 51.4985 8.42729 51.4985C8.77379 51.495 8.81229 51.7505 8.81229 51.887V51.922C8.15779 51.9185 7.79379 52.1425 7.79379 52.552C7.79379 52.797 7.96879 53.0385 8.31179 53.0385C8.55329 53.0385 8.73529 52.9195 8.82979 52.7865H8.84029L8.86479 53H9.14129C9.12379 52.8845 9.11679 52.741 9.11679 52.594V51.9605ZM8.81929 52.4295C8.81929 52.4575 8.81579 52.4925 8.80529 52.5275C8.75629 52.671 8.61279 52.811 8.38879 52.811C8.23479 52.811 8.10179 52.72 8.10179 52.517C8.10179 52.188 8.48329 52.1285 8.81929 52.1355V52.4295ZM10.8578 50.515V51.5265H10.8508C10.7738 51.3935 10.6023 51.271 10.3398 51.271C9.93027 51.271 9.57677 51.614 9.58027 52.1775C9.58027 52.692 9.89877 53.0385 10.3083 53.0385C10.5848 53.0385 10.7878 52.895 10.8788 52.706H10.8893L10.9033 53H11.1763C11.1693 52.8845 11.1623 52.713 11.1623 52.5625V50.515H10.8578ZM10.8578 52.2895C10.8578 52.3385 10.8543 52.3805 10.8438 52.4225C10.7878 52.65 10.5988 52.79 10.3923 52.79C10.0633 52.79 9.89177 52.5065 9.89177 52.1635C9.89177 51.7925 10.0808 51.5125 10.3993 51.5125C10.6303 51.5125 10.7983 51.6735 10.8438 51.866C10.8543 51.9045 10.8578 51.957 10.8578 51.9955V52.2895ZM13.1274 52.209C13.1344 52.174 13.1379 52.1285 13.1379 52.0655C13.1379 51.754 12.9944 51.271 12.4379 51.271C11.9444 51.271 11.6434 51.67 11.6434 52.181C11.6434 52.692 11.9549 53.0385 12.4764 53.0385C12.7459 53.0385 12.9349 52.979 13.0434 52.93L12.9874 52.7095C12.8754 52.7585 12.7389 52.797 12.5184 52.797C12.2069 52.797 11.9444 52.6255 11.9374 52.209H13.1274ZM11.9409 51.9885C11.9654 51.775 12.0984 51.4915 12.4134 51.4915C12.7599 51.4915 12.8439 51.796 12.8404 51.9885H11.9409ZM14.436 53.693H14.7405V52.7725H14.7475C14.849 52.9405 15.045 53.0385 15.269 53.0385C15.668 53.0385 16.0425 52.7375 16.0425 52.1285C16.0425 51.6175 15.7345 51.271 15.3215 51.271C15.045 51.271 14.842 51.39 14.7195 51.5965H14.7125L14.695 51.306H14.422C14.429 51.467 14.436 51.642 14.436 51.859V53.693ZM14.7405 52.0165C14.7405 51.978 14.751 51.9325 14.7615 51.894C14.8175 51.663 15.017 51.516 15.227 51.516C15.5525 51.516 15.731 51.8065 15.731 52.1425C15.731 52.531 15.542 52.797 15.2165 52.797C14.996 52.797 14.8105 52.65 14.7545 52.4365C14.744 52.398 14.7405 52.356 14.7405 52.3105V52.0165ZM17.7061 51.9605C17.7061 51.6245 17.5801 51.271 17.0621 51.271C16.8486 51.271 16.6421 51.3305 16.5021 51.418L16.5721 51.6245C16.6911 51.544 16.8556 51.4985 17.0166 51.4985C17.3631 51.495 17.4016 51.7505 17.4016 51.887V51.922C16.7471 51.9185 16.3831 52.1425 16.3831 52.552C16.3831 52.797 16.5581 53.0385 16.9011 53.0385C17.1426 53.0385 17.3246 52.9195 17.4191 52.7865H17.4296L17.4541 53H17.7306C17.7131 52.8845 17.7061 52.741 17.7061 52.594V51.9605ZM17.4086 52.4295C17.4086 52.4575 17.4051 52.4925 17.3946 52.5275C17.3456 52.671 17.2021 52.811 16.9781 52.811C16.8241 52.811 16.6911 52.72 16.6911 52.517C16.6911 52.188 17.0726 52.1285 17.4086 52.1355V52.4295ZM19.4471 52.7095C19.3596 52.748 19.2441 52.79 19.0691 52.79C18.7331 52.79 18.4811 52.5485 18.4811 52.1565C18.4811 51.8065 18.6911 51.516 19.0796 51.516C19.2476 51.516 19.3631 51.558 19.4366 51.5965L19.5066 51.362C19.4226 51.3165 19.2616 51.271 19.0796 51.271C18.5266 51.271 18.1696 51.6525 18.1696 52.174C18.1696 52.692 18.5021 53.0385 19.0131 53.0385C19.2406 53.0385 19.4191 52.979 19.4996 52.9405L19.4471 52.7095ZM20.253 50.515H19.9485V53H20.253V52.363L20.4105 52.188L20.9915 53H21.3695L20.624 52.0025L21.275 51.306H20.9075L20.407 51.8905C20.358 51.95 20.302 52.0235 20.26 52.083H20.253V50.515ZM22.9281 51.9605C22.9281 51.6245 22.8021 51.271 22.2841 51.271C22.0706 51.271 21.8641 51.3305 21.7241 51.418L21.7941 51.6245C21.9131 51.544 22.0776 51.4985 22.2386 51.4985C22.5851 51.495 22.6236 51.7505 22.6236 51.887V51.922C21.9691 51.9185 21.6051 52.1425 21.6051 52.552C21.6051 52.797 21.7801 53.0385 22.1231 53.0385C22.3646 53.0385 22.5466 52.9195 22.6411 52.7865H22.6516L22.6761 53H22.9526C22.9351 52.8845 22.9281 52.741 22.9281 52.594V51.9605ZM22.6306 52.4295C22.6306 52.4575 22.6271 52.4925 22.6166 52.5275C22.5676 52.671 22.4241 52.811 22.2001 52.811C22.0461 52.811 21.9131 52.72 21.9131 52.517C21.9131 52.188 22.2946 52.1285 22.6306 52.1355V52.4295ZM24.9631 51.768C24.9631 51.565 24.9666 51.425 24.9771 51.306H24.7041L24.6936 51.5615H24.6866C24.6096 51.4215 24.4521 51.271 24.1581 51.271C23.7661 51.271 23.3916 51.593 23.3916 52.167C23.3916 52.636 23.6926 52.993 24.1126 52.993C24.3751 52.993 24.5606 52.867 24.6516 52.7095H24.6586V52.895C24.6586 53.3255 24.4276 53.49 24.1126 53.49C23.9026 53.49 23.7276 53.427 23.6156 53.3535L23.5386 53.5915C23.6751 53.6825 23.8991 53.7315 24.1021 53.7315C24.3156 53.7315 24.5536 53.679 24.7216 53.5285C24.8826 53.378 24.9631 53.1435 24.9631 52.7515V51.768ZM24.6551 52.279C24.6551 52.3315 24.6481 52.391 24.6306 52.4435C24.5676 52.6395 24.3961 52.7585 24.2036 52.7585C23.8746 52.7585 23.7031 52.482 23.7031 52.1495C23.7031 51.7575 23.9131 51.509 24.2071 51.509C24.4346 51.509 24.5816 51.656 24.6376 51.838C24.6516 51.8765 24.6551 51.922 24.6551 51.9745V52.279ZM26.9182 52.209C26.9252 52.174 26.9287 52.1285 26.9287 52.0655C26.9287 51.754 26.7852 51.271 26.2287 51.271C25.7352 51.271 25.4342 51.67 25.4342 52.181C25.4342 52.692 25.7457 53.0385 26.2672 53.0385C26.5367 53.0385 26.7257 52.979 26.8342 52.93L26.7782 52.7095C26.6662 52.7585 26.5297 52.797 26.3092 52.797C25.9977 52.797 25.7352 52.6255 25.7282 52.209H26.9182ZM25.7317 51.9885C25.7562 51.775 25.8892 51.4915 26.2042 51.4915C26.5507 51.4915 26.6347 51.796 26.6312 51.9885H25.7317ZM27.2821 52.9195C27.4011 52.9895 27.5726 53.0385 27.7581 53.0385C28.1536 53.0385 28.3881 52.8285 28.3881 52.5275C28.3881 52.2755 28.2341 52.1285 27.9436 52.02C27.7231 51.9325 27.6251 51.8695 27.6251 51.7295C27.6251 51.6035 27.7231 51.4985 27.9051 51.4985C28.0626 51.4985 28.1851 51.558 28.2516 51.6L28.3251 51.376C28.2341 51.3165 28.0836 51.271 27.9121 51.271C27.5516 51.271 27.3276 51.495 27.3276 51.768C27.3276 51.971 27.4711 52.1355 27.7791 52.2475C28.0031 52.3315 28.0906 52.4085 28.0906 52.5555C28.0906 52.699 27.9856 52.8075 27.7651 52.8075C27.6111 52.8075 27.4501 52.7445 27.3556 52.6885L27.2821 52.9195ZM29.0058 51.803C29.1353 51.803 29.2158 51.7085 29.2158 51.586C29.2158 51.4565 29.1353 51.3655 29.0093 51.3655C28.8903 51.3655 28.8028 51.4565 28.8028 51.586C28.8028 51.7085 28.8868 51.803 29.0058 51.803ZM29.0058 53.0385C29.1353 53.0385 29.2158 52.944 29.2158 52.8215C29.2158 52.692 29.1353 52.601 29.0093 52.601C28.8903 52.601 28.8028 52.692 28.8028 52.8215C28.8028 52.944 28.8868 53.0385 29.0058 53.0385ZM36.3185 53.693H36.623V52.7725H36.63C36.7315 52.9405 36.9275 53.0385 37.1515 53.0385C37.5505 53.0385 37.925 52.7375 37.925 52.1285C37.925 51.6175 37.617 51.271 37.204 51.271C36.9275 51.271 36.7245 51.39 36.602 51.5965H36.595L36.5775 51.306H36.3045C36.3115 51.467 36.3185 51.642 36.3185 51.859V53.693ZM36.623 52.0165C36.623 51.978 36.6335 51.9325 36.644 51.894C36.7 51.663 36.8995 51.516 37.1095 51.516C37.435 51.516 37.6135 51.8065 37.6135 52.1425C37.6135 52.531 37.4245 52.797 37.099 52.797C36.8785 52.797 36.693 52.65 36.637 52.4365C36.6265 52.398 36.623 52.356 36.623 52.3105V52.0165ZM38.7032 50.515H38.3987V53H38.7032V52.363L38.8607 52.188L39.4417 53H39.8197L39.0742 52.0025L39.7252 51.306H39.3577L38.8572 51.8905C38.8082 51.95 38.7522 52.0235 38.7102 52.083H38.7032V50.515ZM41.5758 51.768C41.5758 51.565 41.5793 51.425 41.5898 51.306H41.3168L41.3063 51.5615H41.2993C41.2223 51.4215 41.0648 51.271 40.7708 51.271C40.3788 51.271 40.0043 51.593 40.0043 52.167C40.0043 52.636 40.3053 52.993 40.7253 52.993C40.9878 52.993 41.1733 52.867 41.2643 52.7095H41.2713V52.895C41.2713 53.3255 41.0403 53.49 40.7253 53.49C40.5153 53.49 40.3403 53.427 40.2283 53.3535L40.1513 53.5915C40.2878 53.6825 40.5118 53.7315 40.7148 53.7315C40.9283 53.7315 41.1663 53.679 41.3343 53.5285C41.4953 53.378 41.5758 53.1435 41.5758 52.7515V51.768ZM41.2678 52.279C41.2678 52.3315 41.2608 52.391 41.2433 52.4435C41.1803 52.6395 41.0088 52.7585 40.8163 52.7585C40.4873 52.7585 40.3158 52.482 40.3158 52.1495C40.3158 51.7575 40.5258 51.509 40.8198 51.509C41.0473 51.509 41.1943 51.656 41.2503 51.838C41.2643 51.8765 41.2678 51.922 41.2678 51.9745V52.279ZM44.4161 51.306H44.1081V52.342C44.1081 52.4015 44.0976 52.4575 44.0801 52.4995C44.0241 52.6395 43.8806 52.783 43.6741 52.783C43.3976 52.783 43.2961 52.5625 43.2961 52.2405V51.306H42.9881V52.2965C42.9881 52.888 43.3066 53.0385 43.5726 53.0385C43.8736 53.0385 44.0556 52.86 44.1326 52.7235H44.1396L44.1571 53H44.4301C44.4196 52.867 44.4161 52.713 44.4161 52.5345V51.306ZM45.0138 53.693H45.3183V52.7725H45.3253C45.4268 52.9405 45.6228 53.0385 45.8468 53.0385C46.2458 53.0385 46.6203 52.7375 46.6203 52.1285C46.6203 51.6175 46.3123 51.271 45.8993 51.271C45.6228 51.271 45.4198 51.39 45.2973 51.5965H45.2903L45.2728 51.306H44.9998C45.0068 51.467 45.0138 51.642 45.0138 51.859V53.693ZM45.3183 52.0165C45.3183 51.978 45.3288 51.9325 45.3393 51.894C45.3953 51.663 45.5948 51.516 45.8048 51.516C46.1303 51.516 46.3088 51.8065 46.3088 52.1425C46.3088 52.531 46.1198 52.797 45.7943 52.797C45.5738 52.797 45.3883 52.65 45.3323 52.4365C45.3218 52.398 45.3183 52.356 45.3183 52.3105V52.0165ZM48.543 51.768C48.543 51.565 48.5465 51.425 48.557 51.306H48.284L48.2735 51.5615H48.2665C48.1895 51.4215 48.032 51.271 47.738 51.271C47.346 51.271 46.9715 51.593 46.9715 52.167C46.9715 52.636 47.2725 52.993 47.6925 52.993C47.955 52.993 48.1405 52.867 48.2315 52.7095H48.2385V52.895C48.2385 53.3255 48.0075 53.49 47.6925 53.49C47.4825 53.49 47.3075 53.427 47.1955 53.3535L47.1185 53.5915C47.255 53.6825 47.479 53.7315 47.682 53.7315C47.8955 53.7315 48.1335 53.679 48.3015 53.5285C48.4625 53.378 48.543 53.1435 48.543 52.7515V51.768ZM48.235 52.279C48.235 52.3315 48.228 52.391 48.2105 52.4435C48.1475 52.6395 47.976 52.7585 47.7835 52.7585C47.4545 52.7585 47.283 52.482 47.283 52.1495C47.283 51.7575 47.493 51.509 47.787 51.509C48.0145 51.509 48.1615 51.656 48.2175 51.838C48.2315 51.8765 48.235 51.922 48.235 51.9745V52.279ZM49.116 53H49.424V52.097C49.424 52.048 49.4275 51.9955 49.4345 51.9535C49.4765 51.7225 49.6305 51.5615 49.8475 51.5615C49.8895 51.5615 49.921 51.5615 49.9525 51.5685V51.278C49.9245 51.2745 49.9 51.271 49.8685 51.271C49.662 51.271 49.473 51.4145 49.396 51.642H49.3855L49.3715 51.306H49.102C49.1125 51.4635 49.116 51.635 49.116 51.8345V53ZM51.5215 51.9605C51.5215 51.6245 51.3955 51.271 50.8775 51.271C50.664 51.271 50.4575 51.3305 50.3175 51.418L50.3875 51.6245C50.5065 51.544 50.671 51.4985 50.832 51.4985C51.1785 51.495 51.217 51.7505 51.217 51.887V51.922C50.5625 51.9185 50.1985 52.1425 50.1985 52.552C50.1985 52.797 50.3735 53.0385 50.7165 53.0385C50.958 53.0385 51.14 52.9195 51.2345 52.7865H51.245L51.2695 53H51.546C51.5285 52.8845 51.5215 52.741 51.5215 52.594V51.9605ZM51.224 52.4295C51.224 52.4575 51.2205 52.4925 51.21 52.5275C51.161 52.671 51.0175 52.811 50.7935 52.811C50.6395 52.811 50.5065 52.72 50.5065 52.517C50.5065 52.188 50.888 52.1285 51.224 52.1355V52.4295ZM53.2625 50.515V51.5265H53.2555C53.1785 51.3935 53.007 51.271 52.7445 51.271C52.335 51.271 51.9815 51.614 51.985 52.1775C51.985 52.692 52.3035 53.0385 52.713 53.0385C52.9895 53.0385 53.1925 52.895 53.2835 52.706H53.294L53.308 53H53.581C53.574 52.8845 53.567 52.713 53.567 52.5625V50.515H53.2625ZM53.2625 52.2895C53.2625 52.3385 53.259 52.3805 53.2485 52.4225C53.1925 52.65 53.0035 52.79 52.797 52.79C52.468 52.79 52.2965 52.5065 52.2965 52.1635C52.2965 51.7925 52.4855 51.5125 52.804 51.5125C53.035 51.5125 53.203 51.6735 53.2485 51.866C53.259 51.9045 53.2625 51.957 53.2625 51.9955V52.2895ZM55.532 52.209C55.539 52.174 55.5425 52.1285 55.5425 52.0655C55.5425 51.754 55.399 51.271 54.8425 51.271C54.349 51.271 54.048 51.67 54.048 52.181C54.048 52.692 54.3595 53.0385 54.881 53.0385C55.1505 53.0385 55.3395 52.979 55.448 52.93L55.392 52.7095C55.28 52.7585 55.1435 52.797 54.923 52.797C54.6115 52.797 54.349 52.6255 54.342 52.209H55.532ZM54.3455 51.9885C54.37 51.775 54.503 51.4915 54.818 51.4915C55.1645 51.4915 55.2485 51.796 55.245 51.9885H54.3455ZM0.2625 57H1.5785V56.7445H0.5705V54.641H0.2625V57ZM3.30753 56.209C3.31453 56.174 3.31803 56.1285 3.31803 56.0655C3.31803 55.754 3.17453 55.271 2.61803 55.271C2.12453 55.271 1.82353 55.67 1.82353 56.181C1.82353 56.692 2.13503 57.0385 2.65653 57.0385C2.92603 57.0385 3.11503 56.979 3.22353 56.93L3.16753 56.7095C3.05553 56.7585 2.91903 56.797 2.69853 56.797C2.38703 56.797 2.12453 56.6255 2.11753 56.209H3.30753ZM2.12103 55.9885C2.14553 55.775 2.27853 55.4915 2.59353 55.4915C2.94003 55.4915 3.02403 55.796 3.02053 55.9885H2.12103ZM4.97695 55.9605C4.97695 55.6245 4.85095 55.271 4.33295 55.271C4.11945 55.271 3.91295 55.3305 3.77295 55.418L3.84295 55.6245C3.96195 55.544 4.12645 55.4985 4.28745 55.4985C4.63395 55.495 4.67245 55.7505 4.67245 55.887V55.922C4.01795 55.9185 3.65395 56.1425 3.65395 56.552C3.65395 56.797 3.82895 57.0385 4.17195 57.0385C4.41345 57.0385 4.59545 56.9195 4.68995 56.7865H4.70045L4.72495 57H5.00145C4.98395 56.8845 4.97695 56.741 4.97695 56.594V55.9605ZM4.67945 56.4295C4.67945 56.4575 4.67595 56.4925 4.66545 56.5275C4.61645 56.671 4.47295 56.811 4.24895 56.811C4.09495 56.811 3.96195 56.72 3.96195 56.517C3.96195 56.188 4.34345 56.1285 4.67945 56.1355V56.4295ZM5.56292 57H5.87092V56.097C5.87092 56.048 5.87442 55.9955 5.88142 55.9535C5.92342 55.7225 6.07742 55.5615 6.29442 55.5615C6.33642 55.5615 6.36792 55.5615 6.39942 55.5685V55.278C6.37142 55.2745 6.34692 55.271 6.31542 55.271C6.10892 55.271 5.91992 55.4145 5.84292 55.642H5.83242L5.81842 55.306H5.54892C5.55942 55.4635 5.56292 55.635 5.56292 55.8345V57ZM6.80911 57H7.11711V55.9815C7.11711 55.929 7.12411 55.8765 7.13811 55.838C7.19411 55.6665 7.35161 55.523 7.55111 55.523C7.84161 55.523 7.94311 55.7505 7.94311 56.0235V57H8.25111V55.992C8.25111 55.411 7.88711 55.271 7.65261 55.271C7.37261 55.271 7.17661 55.4285 7.09261 55.586H7.08561L7.06811 55.306H6.79511C6.80561 55.446 6.80911 55.586 6.80911 55.7645V57ZM9.66722 57H9.96822V55.9815C9.96822 55.929 9.97522 55.873 9.99272 55.831C10.0417 55.677 10.1852 55.523 10.3742 55.523C10.6087 55.523 10.7277 55.7155 10.7277 55.985V57H11.0287V55.9535C11.0287 55.8975 11.0392 55.845 11.0532 55.7995C11.1092 55.6525 11.2422 55.523 11.4207 55.523C11.6657 55.523 11.7882 55.7155 11.7882 56.0445V57H12.0892V56.006C12.0892 55.418 11.7567 55.271 11.5292 55.271C11.3682 55.271 11.2597 55.313 11.1582 55.39C11.0882 55.4425 11.0182 55.5125 10.9657 55.6105H10.9587C10.8852 55.411 10.7102 55.271 10.4827 55.271C10.1992 55.271 10.0417 55.4215 9.94722 55.5825H9.93672L9.92272 55.306H9.65322C9.66022 55.446 9.66722 55.586 9.66722 55.7645V57ZM13.3912 55.271C12.9257 55.271 12.5512 55.6035 12.5512 56.167C12.5512 56.7025 12.9082 57.0385 13.3632 57.0385C13.7692 57.0385 14.2067 56.7655 14.2067 56.139C14.2067 55.6245 13.8777 55.271 13.3912 55.271ZM13.3842 55.502C13.7482 55.502 13.8917 55.8625 13.8917 56.1495C13.8917 56.531 13.6712 56.8075 13.3772 56.8075C13.0762 56.8075 12.8662 56.5275 12.8662 56.1565C12.8662 55.838 13.0237 55.502 13.3842 55.502ZM14.6821 57H14.9901V56.097C14.9901 56.048 14.9936 55.9955 15.0006 55.9535C15.0426 55.7225 15.1966 55.5615 15.4136 55.5615C15.4556 55.5615 15.4871 55.5615 15.5186 55.5685V55.278C15.4906 55.2745 15.4661 55.271 15.4346 55.271C15.2281 55.271 15.0391 55.4145 14.9621 55.642H14.9516L14.9376 55.306H14.6681C14.6786 55.4635 14.6821 55.635 14.6821 55.8345V57ZM17.2419 56.209C17.2489 56.174 17.2524 56.1285 17.2524 56.0655C17.2524 55.754 17.1089 55.271 16.5524 55.271C16.0589 55.271 15.7579 55.67 15.7579 56.181C15.7579 56.692 16.0694 57.0385 16.5909 57.0385C16.8604 57.0385 17.0494 56.979 17.1579 56.93L17.1019 56.7095C16.9899 56.7585 16.8534 56.797 16.6329 56.797C16.3214 56.797 16.0589 56.6255 16.0519 56.209H17.2419ZM16.0554 55.9885C16.0799 55.775 16.2129 55.4915 16.5279 55.4915C16.8744 55.4915 16.9584 55.796 16.9549 55.9885H16.0554ZM17.8543 55.803C17.9838 55.803 18.0643 55.7085 18.0643 55.586C18.0643 55.4565 17.9838 55.3655 17.8578 55.3655C17.7388 55.3655 17.6513 55.4565 17.6513 55.586C17.6513 55.7085 17.7353 55.803 17.8543 55.803ZM17.8543 57.0385C17.9838 57.0385 18.0643 56.944 18.0643 56.8215C18.0643 56.692 17.9838 56.601 17.8578 56.601C17.7388 56.601 17.6513 56.692 17.6513 56.8215C17.6513 56.944 17.7353 57.0385 17.8543 57.0385ZM0.9835 61.2975V60.9335C1.344 60.8775 1.5365 60.6185 1.5365 60.3385C1.5365 60.027 1.3545 59.8485 0.994 59.7015C0.6895 59.572 0.56 59.481 0.56 59.3025C0.56 59.159 0.6615 58.998 0.931 58.998C1.155 58.998 1.2985 59.0785 1.372 59.1205L1.4595 58.8895C1.3545 58.83 1.211 58.774 1.0045 58.767V58.4275H0.784V58.7775C0.4655 58.83 0.259 59.0505 0.259 59.341C0.259 59.6455 0.4795 59.81 0.8365 59.95C1.0955 60.055 1.232 60.174 1.232 60.3665C1.232 60.566 1.064 60.7095 0.8155 60.7095C0.6195 60.7095 0.4375 60.6395 0.315 60.559L0.231 60.7935C0.3535 60.881 0.56 60.944 0.763 60.9475V61.2975H0.9835ZM2.85113 60.9195C2.97013 60.9895 3.14163 61.0385 3.32713 61.0385C3.72263 61.0385 3.95713 60.8285 3.95713 60.5275C3.95713 60.2755 3.80313 60.1285 3.51263 60.02C3.29213 59.9325 3.19413 59.8695 3.19413 59.7295C3.19413 59.6035 3.29213 59.4985 3.47413 59.4985C3.63163 59.4985 3.75413 59.558 3.82063 59.6L3.89413 59.376C3.80313 59.3165 3.65263 59.271 3.48113 59.271C3.12063 59.271 2.89663 59.495 2.89663 59.768C2.89663 59.971 3.04013 60.1355 3.34813 60.2475C3.57213 60.3315 3.65963 60.4085 3.65963 60.5555C3.65963 60.699 3.55463 60.8075 3.33413 60.8075C3.18013 60.8075 3.01913 60.7445 2.92463 60.6885L2.85113 60.9195ZM4.32633 60.9195C4.44533 60.9895 4.61683 61.0385 4.80233 61.0385C5.19783 61.0385 5.43233 60.8285 5.43233 60.5275C5.43233 60.2755 5.27833 60.1285 4.98783 60.02C4.76733 59.9325 4.66933 59.8695 4.66933 59.7295C4.66933 59.6035 4.76733 59.4985 4.94933 59.4985C5.10683 59.4985 5.22933 59.558 5.29583 59.6L5.36933 59.376C5.27833 59.3165 5.12783 59.271 4.95633 59.271C4.59583 59.271 4.37183 59.495 4.37183 59.768C4.37183 59.971 4.51533 60.1355 4.82333 60.2475C5.04733 60.3315 5.13483 60.4085 5.13483 60.5555C5.13483 60.699 5.02983 60.8075 4.80933 60.8075C4.65533 60.8075 4.49433 60.7445 4.39983 60.6885L4.32633 60.9195ZM5.91702 61H6.22502V59.978C6.22502 59.922 6.22852 59.8765 6.24602 59.831C6.30552 59.6665 6.45952 59.5265 6.65902 59.5265C6.94952 59.5265 7.05102 59.754 7.05102 60.027V61H7.35902V59.992C7.35902 59.411 6.99502 59.271 6.76752 59.271C6.65202 59.271 6.54352 59.3025 6.45252 59.355C6.35802 59.4075 6.28102 59.488 6.23202 59.5755H6.22502V58.515H5.91702V61ZM8.62463 59.943V60.167H9.48913V59.943H8.62463ZM9.94637 61H10.2509V59.978H10.5379C10.8144 59.9885 10.9439 60.111 11.0139 60.4365C11.0769 60.7305 11.1294 60.93 11.1679 61H11.4829C11.4339 60.909 11.3779 60.6815 11.3009 60.3525C11.2449 60.1075 11.1364 59.9395 10.9579 59.8765V59.866C11.2029 59.782 11.3989 59.5755 11.3989 59.2675C11.3989 59.082 11.3289 58.921 11.2134 58.816C11.0699 58.6865 10.8564 58.6235 10.5309 58.6235C10.3244 58.6235 10.1004 58.6445 9.94637 58.6725V61ZM10.2509 58.886C10.3034 58.872 10.4049 58.8615 10.5519 58.8615C10.8739 58.8615 11.0944 58.9945 11.0944 59.299C11.0944 59.5685 10.8879 59.747 10.5624 59.747H10.2509V58.886ZM13.8804 61V60.377H14.1989V60.139H13.8804V58.725H13.5479L12.5329 60.1775V60.377H13.5899V61H13.8804ZM12.8444 60.139V60.132L13.4009 59.3585C13.4639 59.2535 13.5199 59.1555 13.5899 59.0225H13.6004C13.5934 59.1415 13.5899 59.2605 13.5899 59.3795V60.139H12.8444ZM15.8778 58.725H14.7893L14.6423 59.817C14.7263 59.8065 14.8278 59.796 14.9608 59.796C15.4123 59.796 15.6118 60.0025 15.6118 60.2965C15.6153 60.601 15.3633 60.79 15.0763 60.79C14.8663 60.79 14.6808 60.72 14.5863 60.664L14.5093 60.8985C14.6213 60.9685 14.8278 61.0385 15.0763 61.0385C15.5698 61.0385 15.9233 60.706 15.9233 60.2615C15.9233 59.978 15.7763 59.7785 15.5978 59.6805C15.4578 59.593 15.2863 59.558 15.1078 59.558C15.0238 59.558 14.9748 59.5615 14.9223 59.5685L15.0098 58.984H15.8778V58.725ZM17.7002 58.69C17.6442 58.69 17.5672 58.6935 17.4762 58.7075C17.1892 58.7425 16.9372 58.858 16.7482 59.0435C16.5207 59.2675 16.3632 59.621 16.3632 60.069C16.3632 60.6605 16.6817 61.0385 17.1647 61.0385C17.6407 61.0385 17.9242 60.6535 17.9242 60.2335C17.9242 59.7925 17.6407 59.4985 17.2382 59.4985C16.9862 59.4985 16.7937 59.6175 16.6852 59.7645H16.6782C16.7307 59.3865 16.9827 59.0365 17.4692 58.9595C17.5567 58.9455 17.6372 58.9385 17.7002 58.942V58.69ZM17.1717 60.8005C16.8462 60.8005 16.6712 60.5205 16.6677 60.146C16.6677 60.09 16.6817 60.048 16.6992 60.013C16.7832 59.845 16.9582 59.733 17.1437 59.733C17.4272 59.733 17.6127 59.929 17.6127 60.2545C17.6127 60.58 17.4342 60.8005 17.1717 60.8005ZM19.5262 61V60.377H19.8447V60.139H19.5262V58.725H19.1937L18.1787 60.1775V60.377H19.2357V61H19.5262ZM18.4902 60.139V60.132L19.0467 59.3585C19.1097 59.2535 19.1657 59.1555 19.2357 59.0225H19.2462C19.2392 59.1415 19.2357 59.2605 19.2357 59.3795V60.139H18.4902ZM20.3966 59.803C20.5261 59.803 20.6066 59.7085 20.6066 59.586C20.6066 59.4565 20.5261 59.3655 20.4001 59.3655C20.2811 59.3655 20.1936 59.4565 20.1936 59.586C20.1936 59.7085 20.2776 59.803 20.3966 59.803ZM20.3966 61.0385C20.5261 61.0385 20.6066 60.944 20.6066 60.8215C20.6066 60.692 20.5261 60.601 20.4001 60.601C20.2811 60.601 20.1936 60.692 20.1936 60.8215C20.1936 60.944 20.2776 61.0385 20.3966 61.0385ZM21.0757 61H21.3837V58.515H21.0757V61ZM22.7079 59.271C22.2424 59.271 21.8679 59.6035 21.8679 60.167C21.8679 60.7025 22.2249 61.0385 22.6799 61.0385C23.0859 61.0385 23.5234 60.7655 23.5234 60.139C23.5234 59.6245 23.1944 59.271 22.7079 59.271ZM22.7009 59.502C23.0649 59.502 23.2084 59.8625 23.2084 60.1495C23.2084 60.531 22.9879 60.8075 22.6939 60.8075C22.3929 60.8075 22.1829 60.5275 22.1829 60.1565C22.1829 59.838 22.3404 59.502 22.7009 59.502ZM25.1538 60.7095C25.0663 60.748 24.9508 60.79 24.7758 60.79C24.4398 60.79 24.1878 60.5485 24.1878 60.1565C24.1878 59.8065 24.3978 59.516 24.7863 59.516C24.9543 59.516 25.0698 59.558 25.1433 59.5965L25.2133 59.362C25.1293 59.3165 24.9683 59.271 24.7863 59.271C24.2333 59.271 23.8763 59.6525 23.8763 60.174C23.8763 60.692 24.2088 61.0385 24.7198 61.0385C24.9473 61.0385 25.1258 60.979 25.2063 60.9405L25.1538 60.7095ZM26.8451 59.9605C26.8451 59.6245 26.7191 59.271 26.2011 59.271C25.9876 59.271 25.7811 59.3305 25.6411 59.418L25.7111 59.6245C25.8301 59.544 25.9946 59.4985 26.1556 59.4985C26.5021 59.495 26.5406 59.7505 26.5406 59.887V59.922C25.8861 59.9185 25.5221 60.1425 25.5221 60.552C25.5221 60.797 25.6971 61.0385 26.0401 61.0385C26.2816 61.0385 26.4636 60.9195 26.5581 60.7865H26.5686L26.5931 61H26.8696C26.8521 60.8845 26.8451 60.741 26.8451 60.594V59.9605ZM26.5476 60.4295C26.5476 60.4575 26.5441 60.4925 26.5336 60.5275C26.4846 60.671 26.3411 60.811 26.1171 60.811C25.9631 60.811 25.8301 60.72 25.8301 60.517C25.8301 60.188 26.2116 60.1285 26.5476 60.1355V60.4295ZM27.4311 61H27.7391V58.515H27.4311V61ZM28.3457 61H28.6537V59.978C28.6537 59.922 28.6572 59.8765 28.6747 59.831C28.7342 59.6665 28.8882 59.5265 29.0877 59.5265C29.3782 59.5265 29.4797 59.754 29.4797 60.027V61H29.7877V59.992C29.7877 59.411 29.4237 59.271 29.1962 59.271C29.0807 59.271 28.9722 59.3025 28.8812 59.355C28.7867 59.4075 28.7097 59.488 28.6607 59.5755H28.6537V58.515H28.3457V61ZM31.0921 59.271C30.6266 59.271 30.2521 59.6035 30.2521 60.167C30.2521 60.7025 30.6091 61.0385 31.0641 61.0385C31.4701 61.0385 31.9076 60.7655 31.9076 60.139C31.9076 59.6245 31.5786 59.271 31.0921 59.271ZM31.0851 59.502C31.4491 59.502 31.5926 59.8625 31.5926 60.1495C31.5926 60.531 31.3721 60.8075 31.0781 60.8075C30.7771 60.8075 30.5671 60.5275 30.5671 60.1565C30.5671 59.838 30.7246 59.502 31.0851 59.502ZM32.2675 60.9195C32.3865 60.9895 32.558 61.0385 32.7435 61.0385C33.139 61.0385 33.3735 60.8285 33.3735 60.5275C33.3735 60.2755 33.2195 60.1285 32.929 60.02C32.7085 59.9325 32.6105 59.8695 32.6105 59.7295C32.6105 59.6035 32.7085 59.4985 32.8905 59.4985C33.048 59.4985 33.1705 59.558 33.237 59.6L33.3105 59.376C33.2195 59.3165 33.069 59.271 32.8975 59.271C32.537 59.271 32.313 59.495 32.313 59.768C32.313 59.971 32.4565 60.1355 32.7645 60.2475C32.9885 60.3315 33.076 60.4085 33.076 60.5555C33.076 60.699 32.971 60.8075 32.7505 60.8075C32.5965 60.8075 32.4355 60.7445 32.341 60.6885L32.2675 60.9195ZM33.9282 58.991V59.306H33.6657V59.5405H33.9282V60.4645C33.9282 60.664 33.9632 60.8145 34.0472 60.909C34.1207 60.9895 34.2362 61.0385 34.3797 61.0385C34.4987 61.0385 34.5932 61.0175 34.6527 60.9965L34.6387 60.762C34.5932 60.776 34.5442 60.783 34.4602 60.783C34.2887 60.783 34.2292 60.664 34.2292 60.454V59.5405H34.6702V59.306H34.2292V58.9L33.9282 58.991ZM0.266 69H0.5705V68.055C0.6405 68.0725 0.7245 68.076 0.8155 68.076C1.113 68.076 1.372 67.9885 1.5365 67.817C1.6555 67.6945 1.7185 67.5265 1.7185 67.313C1.7185 67.103 1.638 66.9315 1.512 66.8195C1.372 66.6935 1.1515 66.6235 0.8505 66.6235C0.6055 66.6235 0.413 66.6445 0.266 66.669V69ZM0.5705 66.8895C0.623 66.8755 0.7245 66.865 0.8575 66.865C1.19 66.865 1.414 67.0155 1.414 67.3305C1.414 67.649 1.19 67.831 0.8225 67.831C0.721 67.831 0.637 67.824 0.5705 67.8065V66.8895ZM2.15111 69H2.45911V68.097C2.45911 68.048 2.46261 67.9955 2.46961 67.9535C2.51161 67.7225 2.66561 67.5615 2.88261 67.5615C2.92461 67.5615 2.95611 67.5615 2.98761 67.5685V67.278C2.95961 67.2745 2.93511 67.271 2.90361 67.271C2.69711 67.271 2.50811 67.4145 2.43111 67.642H2.42061L2.40661 67.306H2.13711C2.14761 67.4635 2.15111 67.635 2.15111 67.8345V69ZM4.71095 68.209C4.71795 68.174 4.72145 68.1285 4.72145 68.0655C4.72145 67.754 4.57795 67.271 4.02145 67.271C3.52795 67.271 3.22695 67.67 3.22695 68.181C3.22695 68.692 3.53845 69.0385 4.05995 69.0385C4.32945 69.0385 4.51845 68.979 4.62695 68.93L4.57095 68.7095C4.45895 68.7585 4.32245 68.797 4.10195 68.797C3.79045 68.797 3.52795 68.6255 3.52095 68.209H4.71095ZM3.52445 67.9885C3.54895 67.775 3.68195 67.4915 3.99695 67.4915C4.34345 67.4915 4.42745 67.796 4.42395 67.9885H3.52445ZM5.07486 68.9195C5.19386 68.9895 5.36536 69.0385 5.55086 69.0385C5.94636 69.0385 6.18086 68.8285 6.18086 68.5275C6.18086 68.2755 6.02686 68.1285 5.73636 68.02C5.51586 67.9325 5.41786 67.8695 5.41786 67.7295C5.41786 67.6035 5.51586 67.4985 5.69786 67.4985C5.85536 67.4985 5.97786 67.558 6.04436 67.6L6.11786 67.376C6.02686 67.3165 5.87636 67.271 5.70486 67.271C5.34436 67.271 5.12036 67.495 5.12036 67.768C5.12036 67.971 5.26386 68.1355 5.57186 68.2475C5.79586 68.3315 5.88336 68.4085 5.88336 68.5555C5.88336 68.699 5.77836 68.8075 5.55786 68.8075C5.40386 68.8075 5.24286 68.7445 5.14836 68.6885L5.07486 68.9195ZM6.55006 68.9195C6.66906 68.9895 6.84056 69.0385 7.02606 69.0385C7.42156 69.0385 7.65606 68.8285 7.65606 68.5275C7.65606 68.2755 7.50206 68.1285 7.21156 68.02C6.99106 67.9325 6.89306 67.8695 6.89306 67.7295C6.89306 67.6035 6.99106 67.4985 7.17306 67.4985C7.33056 67.4985 7.45306 67.558 7.51956 67.6L7.59306 67.376C7.50206 67.3165 7.35156 67.271 7.18006 67.271C6.81956 67.271 6.59556 67.495 6.59556 67.768C6.59556 67.971 6.73906 68.1355 7.04706 68.2475C7.27106 68.3315 7.35856 68.4085 7.35856 68.5555C7.35856 68.699 7.25356 68.8075 7.03306 68.8075C6.87906 68.8075 6.71806 68.7445 6.62356 68.6885L6.55006 68.9195ZM10.419 67.768C10.419 67.565 10.4225 67.425 10.433 67.306H10.16L10.1495 67.5615H10.1425C10.0655 67.4215 9.90795 67.271 9.61395 67.271C9.22195 67.271 8.84745 67.593 8.84745 68.167C8.84745 68.636 9.14845 68.993 9.56845 68.993C9.83095 68.993 10.0165 68.867 10.1075 68.7095H10.1145V68.895C10.1145 69.3255 9.88345 69.49 9.56845 69.49C9.35845 69.49 9.18345 69.427 9.07145 69.3535L8.99445 69.5915C9.13095 69.6825 9.35495 69.7315 9.55795 69.7315C9.77145 69.7315 10.0095 69.679 10.1775 69.5285C10.3385 69.378 10.419 69.1435 10.419 68.7515V67.768ZM10.111 68.279C10.111 68.3315 10.104 68.391 10.0865 68.4435C10.0235 68.6395 9.85195 68.7585 9.65945 68.7585C9.33045 68.7585 9.15895 68.482 9.15895 68.1495C9.15895 67.7575 9.36895 67.509 9.66295 67.509C9.89045 67.509 10.0375 67.656 10.0935 67.838C10.1075 67.8765 10.111 67.922 10.111 67.9745V68.279ZM11.9117 66.991V67.306H11.6492V67.5405H11.9117V68.4645C11.9117 68.664 11.9467 68.8145 12.0307 68.909C12.1042 68.9895 12.2197 69.0385 12.3632 69.0385C12.4822 69.0385 12.5767 69.0175 12.6362 68.9965L12.6222 68.762C12.5767 68.776 12.5277 68.783 12.4437 68.783C12.2722 68.783 12.2127 68.664 12.2127 68.454V67.5405H12.6537V67.306H12.2127V66.9L11.9117 66.991ZM13.7849 67.271C13.3194 67.271 12.9449 67.6035 12.9449 68.167C12.9449 68.7025 13.3019 69.0385 13.7569 69.0385C14.1629 69.0385 14.6004 68.7655 14.6004 68.139C14.6004 67.6245 14.2714 67.271 13.7849 67.271ZM13.7779 67.502C14.1419 67.502 14.2854 67.8625 14.2854 68.1495C14.2854 68.531 14.0649 68.8075 13.7709 68.8075C13.4699 68.8075 13.2599 68.5275 13.2599 68.1565C13.2599 67.838 13.4174 67.502 13.7779 67.502ZM15.7895 68.9195C15.9085 68.9895 16.08 69.0385 16.2655 69.0385C16.661 69.0385 16.8955 68.8285 16.8955 68.5275C16.8955 68.2755 16.7415 68.1285 16.451 68.02C16.2305 67.9325 16.1325 67.8695 16.1325 67.7295C16.1325 67.6035 16.2305 67.4985 16.4125 67.4985C16.57 67.4985 16.6925 67.558 16.759 67.6L16.8325 67.376C16.7415 67.3165 16.591 67.271 16.4195 67.271C16.059 67.271 15.835 67.495 15.835 67.768C15.835 67.971 15.9785 68.1355 16.2865 68.2475C16.5105 68.3315 16.598 68.4085 16.598 68.5555C16.598 68.699 16.493 68.8075 16.2725 68.8075C16.1185 68.8075 15.9575 68.7445 15.863 68.6885L15.7895 68.9195ZM17.4502 66.991V67.306H17.1877V67.5405H17.4502V68.4645C17.4502 68.664 17.4852 68.8145 17.5692 68.909C17.6427 68.9895 17.7582 69.0385 17.9017 69.0385C18.0207 69.0385 18.1152 69.0175 18.1747 68.9965L18.1607 68.762C18.1152 68.776 18.0662 68.783 17.9822 68.783C17.8107 68.783 17.7512 68.664 17.7512 68.454V67.5405H18.1922V67.306H17.7512V66.9L17.4502 66.991ZM19.8164 67.9605C19.8164 67.6245 19.6904 67.271 19.1724 67.271C18.9589 67.271 18.7524 67.3305 18.6124 67.418L18.6824 67.6245C18.8014 67.544 18.9659 67.4985 19.1269 67.4985C19.4734 67.495 19.5119 67.7505 19.5119 67.887V67.922C18.8574 67.9185 18.4934 68.1425 18.4934 68.552C18.4934 68.797 18.6684 69.0385 19.0114 69.0385C19.2529 69.0385 19.4349 68.9195 19.5294 68.7865H19.5399L19.5644 69H19.8409C19.8234 68.8845 19.8164 68.741 19.8164 68.594V67.9605ZM19.5189 68.4295C19.5189 68.4575 19.5154 68.4925 19.5049 68.5275C19.4559 68.671 19.3124 68.811 19.0884 68.811C18.9344 68.811 18.8014 68.72 18.8014 68.517C18.8014 68.188 19.1829 68.1285 19.5189 68.1355V68.4295ZM20.4024 69H20.7104V68.097C20.7104 68.048 20.7139 67.9955 20.7209 67.9535C20.7629 67.7225 20.9169 67.5615 21.1339 67.5615C21.1759 67.5615 21.2074 67.5615 21.2389 67.5685V67.278C21.2109 67.2745 21.1864 67.271 21.1549 67.271C20.9484 67.271 20.7594 67.4145 20.6824 67.642H20.6719L20.6579 67.306H20.3884C20.3989 67.4635 20.4024 67.635 20.4024 67.8345V69ZM21.7903 66.991V67.306H21.5278V67.5405H21.7903V68.4645C21.7903 68.664 21.8253 68.8145 21.9093 68.909C21.9828 68.9895 22.0983 69.0385 22.2418 69.0385C22.3608 69.0385 22.4553 69.0175 22.5148 68.9965L22.5008 68.762C22.4553 68.776 22.4063 68.783 22.3223 68.783C22.1508 68.783 22.0913 68.664 22.0913 68.454V67.5405H22.5323V67.306H22.0913V66.9L21.7903 66.991Z" fill="white" fill-opacity="0.5"/>
<path d="M0.2625 65H0.5705V63.9325H1.4595V63.6805H0.5705V62.8965H1.533V62.641H0.2625V65ZM2.65669 63.271C2.19119 63.271 1.81669 63.6035 1.81669 64.167C1.81669 64.7025 2.17369 65.0385 2.62869 65.0385C3.03469 65.0385 3.47219 64.7655 3.47219 64.139C3.47219 63.6245 3.14319 63.271 2.65669 63.271ZM2.64969 63.502C3.01369 63.502 3.15719 63.8625 3.15719 64.1495C3.15719 64.531 2.93669 64.8075 2.64269 64.8075C2.34169 64.8075 2.13169 64.5275 2.13169 64.1565C2.13169 63.838 2.28919 63.502 2.64969 63.502ZM3.94759 65H4.25559V64.097C4.25559 64.048 4.25909 63.9955 4.26609 63.9535C4.30809 63.7225 4.46209 63.5615 4.67909 63.5615C4.72109 63.5615 4.75259 63.5615 4.78409 63.5685V63.278C4.75609 63.2745 4.73159 63.271 4.70009 63.271C4.49359 63.271 4.30459 63.4145 4.22759 63.642H4.21709L4.20309 63.306H3.93359C3.94409 63.4635 3.94759 63.635 3.94759 63.8345V65ZM5.07648 63.306L5.58748 65H5.86748L6.14048 64.195C6.19998 64.013 6.25248 63.838 6.29448 63.635H6.30148C6.34348 63.8345 6.39248 64.0025 6.45198 64.1915L6.71098 65H6.99098L7.53698 63.306H7.23248L6.99098 64.1565C6.93498 64.356 6.88948 64.5345 6.86148 64.706H6.85098C6.81248 64.5345 6.76348 64.356 6.70048 64.153L6.43798 63.306H6.17898L5.90248 64.1705C5.84648 64.3525 5.79048 64.5345 5.75198 64.706H5.74148C5.70998 64.531 5.66448 64.356 5.61898 64.167L5.39148 63.306H5.07648ZM9.10995 63.9605C9.10995 63.6245 8.98395 63.271 8.46595 63.271C8.25245 63.271 8.04595 63.3305 7.90595 63.418L7.97595 63.6245C8.09495 63.544 8.25945 63.4985 8.42045 63.4985C8.76695 63.495 8.80545 63.7505 8.80545 63.887V63.922C8.15095 63.9185 7.78695 64.1425 7.78695 64.552C7.78695 64.797 7.96195 65.0385 8.30495 65.0385C8.54645 65.0385 8.72845 64.9195 8.82295 64.7865H8.83345L8.85795 65H9.13445C9.11695 64.8845 9.10995 64.741 9.10995 64.594V63.9605ZM8.81245 64.4295C8.81245 64.4575 8.80895 64.4925 8.79845 64.5275C8.74945 64.671 8.60595 64.811 8.38195 64.811C8.22795 64.811 8.09495 64.72 8.09495 64.517C8.09495 64.188 8.47645 64.1285 8.81245 64.1355V64.4295ZM9.69593 65H10.0039V64.097C10.0039 64.048 10.0074 63.9955 10.0144 63.9535C10.0564 63.7225 10.2104 63.5615 10.4274 63.5615C10.4694 63.5615 10.5009 63.5615 10.5324 63.5685V63.278C10.5044 63.2745 10.4799 63.271 10.4484 63.271C10.2419 63.271 10.0529 63.4145 9.97593 63.642H9.96543L9.95143 63.306H9.68193C9.69243 63.4635 9.69593 63.635 9.69593 63.8345V65ZM12.0493 62.515V63.5265H12.0423C11.9653 63.3935 11.7938 63.271 11.5313 63.271C11.1218 63.271 10.7683 63.614 10.7718 64.1775C10.7718 64.692 11.0903 65.0385 11.4998 65.0385C11.7763 65.0385 11.9793 64.895 12.0703 64.706H12.0808L12.0948 65H12.3678C12.3608 64.8845 12.3538 64.713 12.3538 64.5625V62.515H12.0493ZM12.0493 64.2895C12.0493 64.3385 12.0458 64.3805 12.0353 64.4225C11.9793 64.65 11.7903 64.79 11.5838 64.79C11.2548 64.79 11.0833 64.5065 11.0833 64.1635C11.0833 63.7925 11.2723 63.5125 11.5908 63.5125C11.8218 63.5125 11.9898 63.6735 12.0353 63.866C12.0458 63.9045 12.0493 63.957 12.0493 63.9955V64.2895ZM13.2654 65V63.306H12.9574V65H13.2654ZM13.1114 62.6375C12.9959 62.6375 12.9189 62.725 12.9189 62.83C12.9189 62.935 12.9924 63.019 13.1044 63.019C13.2269 63.019 13.3004 62.935 13.3004 62.83C13.3004 62.7215 13.2234 62.6375 13.1114 62.6375ZM13.8652 65H14.1732V63.9815C14.1732 63.929 14.1802 63.8765 14.1942 63.838C14.2502 63.6665 14.4077 63.523 14.6072 63.523C14.8977 63.523 14.9992 63.7505 14.9992 64.0235V65H15.3072V63.992C15.3072 63.411 14.9432 63.271 14.7087 63.271C14.4287 63.271 14.2327 63.4285 14.1487 63.586H14.1417L14.1242 63.306H13.8512C13.8617 63.446 13.8652 63.586 13.8652 63.7645V65ZM17.3431 63.768C17.3431 63.565 17.3466 63.425 17.3571 63.306H17.0841L17.0736 63.5615H17.0666C16.9896 63.4215 16.8321 63.271 16.5381 63.271C16.1461 63.271 15.7716 63.593 15.7716 64.167C15.7716 64.636 16.0726 64.993 16.4926 64.993C16.7551 64.993 16.9406 64.867 17.0316 64.7095H17.0386V64.895C17.0386 65.3255 16.8076 65.49 16.4926 65.49C16.2826 65.49 16.1076 65.427 15.9956 65.3535L15.9186 65.5915C16.0551 65.6825 16.2791 65.7315 16.4821 65.7315C16.6956 65.7315 16.9336 65.679 17.1016 65.5285C17.2626 65.378 17.3431 65.1435 17.3431 64.7515V63.768ZM17.0351 64.279C17.0351 64.3315 17.0281 64.391 17.0106 64.4435C16.9476 64.6395 16.7761 64.7585 16.5836 64.7585C16.2546 64.7585 16.0831 64.482 16.0831 64.1495C16.0831 63.7575 16.2931 63.509 16.5871 63.509C16.8146 63.509 16.9616 63.656 17.0176 63.838C17.0316 63.8765 17.0351 63.922 17.0351 63.9745V64.279ZM19.0808 65H19.3888V62.9H20.1098V62.641H18.3633V62.9H19.0808V65ZM21.9498 64.6815C21.8273 64.741 21.6383 64.7795 21.4493 64.7795C20.8788 64.7795 20.5463 64.412 20.5463 63.831C20.5463 63.2115 20.9138 62.858 21.4668 62.858C21.6628 62.858 21.8273 62.9 21.9393 62.956L22.0163 62.7075C21.9358 62.6655 21.7468 62.6025 21.4563 62.6025C20.7248 62.6025 20.2243 63.0995 20.2243 63.8415C20.2243 64.6185 20.7213 65.0385 21.3863 65.0385C21.6733 65.0385 21.9008 64.9825 22.0093 64.9265L21.9498 64.6815ZM22.4821 65H22.7866V64.055C22.8566 64.0725 22.9406 64.076 23.0316 64.076C23.3291 64.076 23.5881 63.9885 23.7526 63.817C23.8716 63.6945 23.9346 63.5265 23.9346 63.313C23.9346 63.103 23.8541 62.9315 23.7281 62.8195C23.5881 62.6935 23.3676 62.6235 23.0666 62.6235C22.8216 62.6235 22.6291 62.6445 22.4821 62.669V65ZM22.7866 62.8895C22.8391 62.8755 22.9406 62.865 23.0736 62.865C23.4061 62.865 23.6301 63.0155 23.6301 63.3305C23.6301 63.649 23.4061 63.831 23.0386 63.831C22.9371 63.831 22.8531 63.824 22.7866 63.8065V62.8895ZM26.4061 64.7095C26.3186 64.748 26.2031 64.79 26.0281 64.79C25.6921 64.79 25.4401 64.5485 25.4401 64.1565C25.4401 63.8065 25.6501 63.516 26.0386 63.516C26.2066 63.516 26.3221 63.558 26.3956 63.5965L26.4656 63.362C26.3816 63.3165 26.2206 63.271 26.0386 63.271C25.4856 63.271 25.1286 63.6525 25.1286 64.174C25.1286 64.692 25.4611 65.0385 25.9721 65.0385C26.1996 65.0385 26.3781 64.979 26.4586 64.9405L26.4061 64.7095ZM27.6044 63.271C27.1389 63.271 26.7644 63.6035 26.7644 64.167C26.7644 64.7025 27.1214 65.0385 27.5764 65.0385C27.9824 65.0385 28.4199 64.7655 28.4199 64.139C28.4199 63.6245 28.0909 63.271 27.6044 63.271ZM27.5974 63.502C27.9614 63.502 28.1049 63.8625 28.1049 64.1495C28.1049 64.531 27.8844 64.8075 27.5904 64.8075C27.2894 64.8075 27.0794 64.5275 27.0794 64.1565C27.0794 63.838 27.2369 63.502 27.5974 63.502ZM28.8953 65H29.2033V63.9815C29.2033 63.929 29.2103 63.8765 29.2243 63.838C29.2803 63.6665 29.4378 63.523 29.6373 63.523C29.9278 63.523 30.0293 63.7505 30.0293 64.0235V65H30.3373V63.992C30.3373 63.411 29.9733 63.271 29.7388 63.271C29.4588 63.271 29.2628 63.4285 29.1788 63.586H29.1718L29.1543 63.306H28.8813C28.8918 63.446 28.8953 63.586 28.8953 63.7645V65ZM30.9243 65H31.2323V63.9815C31.2323 63.929 31.2393 63.8765 31.2533 63.838C31.3093 63.6665 31.4668 63.523 31.6663 63.523C31.9568 63.523 32.0583 63.7505 32.0583 64.0235V65H32.3663V63.992C32.3663 63.411 32.0023 63.271 31.7678 63.271C31.4878 63.271 31.2918 63.4285 31.2078 63.586H31.2008L31.1833 63.306H30.9103C30.9208 63.446 30.9243 63.586 30.9243 63.7645V65ZM34.3147 64.209C34.3217 64.174 34.3252 64.1285 34.3252 64.0655C34.3252 63.754 34.1817 63.271 33.6252 63.271C33.1317 63.271 32.8307 63.67 32.8307 64.181C32.8307 64.692 33.1422 65.0385 33.6637 65.0385C33.9332 65.0385 34.1222 64.979 34.2307 64.93L34.1747 64.7095C34.0627 64.7585 33.9262 64.797 33.7057 64.797C33.3942 64.797 33.1317 64.6255 33.1247 64.209H34.3147ZM33.1282 63.9885C33.1527 63.775 33.2857 63.4915 33.6007 63.4915C33.9472 63.4915 34.0312 63.796 34.0277 63.9885H33.1282ZM35.9491 64.7095C35.8616 64.748 35.7461 64.79 35.5711 64.79C35.2351 64.79 34.9831 64.5485 34.9831 64.1565C34.9831 63.8065 35.1931 63.516 35.5816 63.516C35.7496 63.516 35.8651 63.558 35.9386 63.5965L36.0086 63.362C35.9246 63.3165 35.7636 63.271 35.5816 63.271C35.0286 63.271 34.6716 63.6525 34.6716 64.174C34.6716 64.692 35.0041 65.0385 35.5151 65.0385C35.7426 65.0385 35.9211 64.979 36.0016 64.9405L35.9491 64.7095ZM36.5649 62.991V63.306H36.3024V63.5405H36.5649V64.4645C36.5649 64.664 36.5999 64.8145 36.6839 64.909C36.7574 64.9895 36.8729 65.0385 37.0164 65.0385C37.1354 65.0385 37.2299 65.0175 37.2894 64.9965L37.2754 64.762C37.2299 64.776 37.1809 64.783 37.0969 64.783C36.9254 64.783 36.8659 64.664 36.8659 64.454V63.5405H37.3069V63.306H36.8659V62.9L36.5649 62.991ZM38.049 65V63.306H37.741V65H38.049ZM37.895 62.6375C37.7795 62.6375 37.7025 62.725 37.7025 62.83C37.7025 62.935 37.776 63.019 37.888 63.019C38.0105 63.019 38.084 62.935 38.084 62.83C38.084 62.7215 38.007 62.6375 37.895 62.6375ZM39.3664 63.271C38.9009 63.271 38.5264 63.6035 38.5264 64.167C38.5264 64.7025 38.8834 65.0385 39.3384 65.0385C39.7444 65.0385 40.1819 64.7655 40.1819 64.139C40.1819 63.6245 39.8529 63.271 39.3664 63.271ZM39.3594 63.502C39.7234 63.502 39.8669 63.8625 39.8669 64.1495C39.8669 64.531 39.6464 64.8075 39.3524 64.8075C39.0514 64.8075 38.8414 64.5275 38.8414 64.1565C38.8414 63.838 38.9989 63.502 39.3594 63.502ZM40.6573 65H40.9653V63.9815C40.9653 63.929 40.9723 63.8765 40.9863 63.838C41.0423 63.6665 41.1998 63.523 41.3993 63.523C41.6898 63.523 41.7913 63.7505 41.7913 64.0235V65H42.0993V63.992C42.0993 63.411 41.7353 63.271 41.5008 63.271C41.2208 63.271 41.0248 63.4285 40.9408 63.586H40.9338L40.9163 63.306H40.6433C40.6538 63.446 40.6573 63.586 40.6573 63.7645V65Z" fill="#EB0718" fill-opacity="0.5"/>
<defs>
<linearGradient id="paint0_linear" x1="-2.13274e-05" y1="28" x2="314" y2="342" gradientUnits="userSpaceOnUse">
<stop stop-color="white" stop-opacity="0.4"/>
<stop offset="1" stop-color="white" stop-opacity="0"/>
</linearGradient>
</defs>
</svg>
