<svg width="189" height="117" viewBox="0 0 189 117" fill="none" xmlns="http://www.w3.org/2000/svg">
<path d="M114.147 44.8845C114.273 44.9685 114.522 45.0385 114.749 45.0385C115.306 45.0385 115.572 44.72 115.572 44.356C115.572 44.0095 115.372 43.817 114.973 43.663C114.648 43.537 114.504 43.4285 114.504 43.208C114.504 43.047 114.627 42.8545 114.949 42.8545C115.162 42.8545 115.32 42.921 115.393 42.9665L115.477 42.718C115.376 42.6585 115.197 42.6025 114.959 42.6025C114.501 42.6025 114.196 42.8755 114.196 43.243C114.196 43.572 114.434 43.775 114.819 43.915C115.138 44.034 115.264 44.1635 115.264 44.3805C115.264 44.6185 115.082 44.783 114.77 44.783C114.56 44.783 114.364 44.7165 114.228 44.629L114.147 44.8845ZM117.451 44.209C117.458 44.174 117.462 44.1285 117.462 44.0655C117.462 43.754 117.318 43.271 116.762 43.271C116.268 43.271 115.967 43.67 115.967 44.181C115.967 44.692 116.279 45.0385 116.8 45.0385C117.07 45.0385 117.259 44.979 117.367 44.93L117.311 44.7095C117.199 44.7585 117.063 44.797 116.842 44.797C116.531 44.797 116.268 44.6255 116.261 44.209H117.451ZM116.265 43.9885C116.289 43.775 116.422 43.4915 116.737 43.4915C117.084 43.4915 117.168 43.796 117.164 43.9885H116.265ZM119.121 43.9605C119.121 43.6245 118.994 43.271 118.477 43.271C118.263 43.271 118.056 43.3305 117.916 43.418L117.986 43.6245C118.105 43.544 118.27 43.4985 118.431 43.4985C118.778 43.495 118.816 43.7505 118.816 43.887V43.922C118.161 43.9185 117.797 44.1425 117.797 44.552C117.797 44.797 117.972 45.0385 118.315 45.0385C118.557 45.0385 118.739 44.9195 118.834 44.7865H118.844L118.869 45H119.145C119.128 44.8845 119.121 44.741 119.121 44.594V43.9605ZM118.823 44.4295C118.823 44.4575 118.82 44.4925 118.809 44.5275C118.76 44.671 118.617 44.811 118.392 44.811C118.238 44.811 118.105 44.72 118.105 44.517C118.105 44.188 118.487 44.1285 118.823 44.1355V44.4295ZM119.706 45H120.014V44.097C120.014 44.048 120.018 43.9955 120.025 43.9535C120.067 43.7225 120.221 43.5615 120.438 43.5615C120.48 43.5615 120.511 43.5615 120.543 43.5685V43.278C120.515 43.2745 120.49 43.271 120.459 43.271C120.252 43.271 120.063 43.4145 119.986 43.642H119.976L119.962 43.306H119.692C119.703 43.4635 119.706 43.635 119.706 43.8345V45ZM122.06 44.7095C121.972 44.748 121.857 44.79 121.682 44.79C121.346 44.79 121.094 44.5485 121.094 44.1565C121.094 43.8065 121.304 43.516 121.692 43.516C121.86 43.516 121.976 43.558 122.049 43.5965L122.119 43.362C122.035 43.3165 121.874 43.271 121.692 43.271C121.139 43.271 120.782 43.6525 120.782 44.174C120.782 44.692 121.115 45.0385 121.626 45.0385C121.853 45.0385 122.032 44.979 122.112 44.9405L122.06 44.7095ZM122.561 45H122.869V43.978C122.869 43.922 122.873 43.8765 122.89 43.831C122.95 43.6665 123.104 43.5265 123.303 43.5265C123.594 43.5265 123.695 43.754 123.695 44.027V45H124.003V43.992C124.003 43.411 123.639 43.271 123.412 43.271C123.296 43.271 123.188 43.3025 123.097 43.355C123.002 43.4075 122.925 43.488 122.876 43.5755H122.869V42.515H122.561V45ZM125.419 45.693H125.724V44.7725H125.731C125.832 44.9405 126.028 45.0385 126.252 45.0385C126.651 45.0385 127.026 44.7375 127.026 44.1285C127.026 43.6175 126.718 43.271 126.305 43.271C126.028 43.271 125.825 43.39 125.703 43.5965H125.696L125.678 43.306H125.405C125.412 43.467 125.419 43.642 125.419 43.859V45.693ZM125.724 44.0165C125.724 43.978 125.734 43.9325 125.745 43.894C125.801 43.663 126 43.516 126.21 43.516C126.536 43.516 126.714 43.8065 126.714 44.1425C126.714 44.531 126.525 44.797 126.2 44.797C125.979 44.797 125.794 44.65 125.738 44.4365C125.727 44.398 125.724 44.356 125.724 44.3105V44.0165ZM128.689 43.9605C128.689 43.6245 128.563 43.271 128.045 43.271C127.832 43.271 127.625 43.3305 127.485 43.418L127.555 43.6245C127.674 43.544 127.839 43.4985 128 43.4985C128.346 43.495 128.385 43.7505 128.385 43.887V43.922C127.73 43.9185 127.366 44.1425 127.366 44.552C127.366 44.797 127.541 45.0385 127.884 45.0385C128.126 45.0385 128.308 44.9195 128.402 44.7865H128.413L128.437 45H128.714C128.696 44.8845 128.689 44.741 128.689 44.594V43.9605ZM128.392 44.4295C128.392 44.4575 128.388 44.4925 128.378 44.5275C128.329 44.671 128.185 44.811 127.961 44.811C127.807 44.811 127.674 44.72 127.674 44.517C127.674 44.188 128.056 44.1285 128.392 44.1355V44.4295ZM130.43 44.7095C130.343 44.748 130.227 44.79 130.052 44.79C129.716 44.79 129.464 44.5485 129.464 44.1565C129.464 43.8065 129.674 43.516 130.063 43.516C130.231 43.516 130.346 43.558 130.42 43.5965L130.49 43.362C130.406 43.3165 130.245 43.271 130.063 43.271C129.51 43.271 129.153 43.6525 129.153 44.174C129.153 44.692 129.485 45.0385 129.996 45.0385C130.224 45.0385 130.402 44.979 130.483 44.9405L130.43 44.7095ZM131.236 42.515H130.932V45H131.236V44.363L131.394 44.188L131.975 45H132.353L131.607 44.0025L132.258 43.306H131.891L131.39 43.8905C131.341 43.95 131.285 44.0235 131.243 44.083H131.236V42.515ZM133.911 43.9605C133.911 43.6245 133.785 43.271 133.267 43.271C133.054 43.271 132.847 43.3305 132.707 43.418L132.777 43.6245C132.896 43.544 133.061 43.4985 133.222 43.4985C133.568 43.495 133.607 43.7505 133.607 43.887V43.922C132.952 43.9185 132.588 44.1425 132.588 44.552C132.588 44.797 132.763 45.0385 133.106 45.0385C133.348 45.0385 133.53 44.9195 133.624 44.7865H133.635L133.659 45H133.936C133.918 44.8845 133.911 44.741 133.911 44.594V43.9605ZM133.614 44.4295C133.614 44.4575 133.61 44.4925 133.6 44.5275C133.551 44.671 133.407 44.811 133.183 44.811C133.029 44.811 132.896 44.72 132.896 44.517C132.896 44.188 133.278 44.1285 133.614 44.1355V44.4295ZM135.946 43.768C135.946 43.565 135.95 43.425 135.96 43.306H135.687L135.677 43.5615H135.67C135.593 43.4215 135.435 43.271 135.141 43.271C134.749 43.271 134.375 43.593 134.375 44.167C134.375 44.636 134.676 44.993 135.096 44.993C135.358 44.993 135.544 44.867 135.635 44.7095H135.642V44.895C135.642 45.3255 135.411 45.49 135.096 45.49C134.886 45.49 134.711 45.427 134.599 45.3535L134.522 45.5915C134.658 45.6825 134.882 45.7315 135.085 45.7315C135.299 45.7315 135.537 45.679 135.705 45.5285C135.866 45.378 135.946 45.1435 135.946 44.7515V43.768ZM135.638 44.279C135.638 44.3315 135.631 44.391 135.614 44.4435C135.551 44.6395 135.379 44.7585 135.187 44.7585C134.858 44.7585 134.686 44.482 134.686 44.1495C134.686 43.7575 134.896 43.509 135.19 43.509C135.418 43.509 135.565 43.656 135.621 43.838C135.635 43.8765 135.638 43.922 135.638 43.9745V44.279ZM137.901 44.209C137.908 44.174 137.912 44.1285 137.912 44.0655C137.912 43.754 137.768 43.271 137.212 43.271C136.718 43.271 136.417 43.67 136.417 44.181C136.417 44.692 136.729 45.0385 137.25 45.0385C137.52 45.0385 137.709 44.979 137.817 44.93L137.761 44.7095C137.649 44.7585 137.513 44.797 137.292 44.797C136.981 44.797 136.718 44.6255 136.711 44.209H137.901ZM136.715 43.9885C136.739 43.775 136.872 43.4915 137.187 43.4915C137.534 43.4915 137.618 43.796 137.614 43.9885H136.715ZM138.265 44.9195C138.384 44.9895 138.556 45.0385 138.741 45.0385C139.137 45.0385 139.371 44.8285 139.371 44.5275C139.371 44.2755 139.217 44.1285 138.927 44.02C138.706 43.9325 138.608 43.8695 138.608 43.7295C138.608 43.6035 138.706 43.4985 138.888 43.4985C139.046 43.4985 139.168 43.558 139.235 43.6L139.308 43.376C139.217 43.3165 139.067 43.271 138.895 43.271C138.535 43.271 138.311 43.495 138.311 43.768C138.311 43.971 138.454 44.1355 138.762 44.2475C138.986 44.3315 139.074 44.4085 139.074 44.5555C139.074 44.699 138.969 44.8075 138.748 44.8075C138.594 44.8075 138.433 44.7445 138.339 44.6885L138.265 44.9195ZM139.989 43.803C140.119 43.803 140.199 43.7085 140.199 43.586C140.199 43.4565 140.119 43.3655 139.993 43.3655C139.874 43.3655 139.786 43.4565 139.786 43.586C139.786 43.7085 139.87 43.803 139.989 43.803ZM139.989 45.0385C140.119 45.0385 140.199 44.944 140.199 44.8215C140.199 44.692 140.119 44.601 139.993 44.601C139.874 44.601 139.786 44.692 139.786 44.8215C139.786 44.944 139.87 45.0385 139.989 45.0385ZM150.619 45.693H150.923V44.7725H150.93C151.032 44.9405 151.228 45.0385 151.452 45.0385C151.851 45.0385 152.225 44.7375 152.225 44.1285C152.225 43.6175 151.917 43.271 151.504 43.271C151.228 43.271 151.025 43.39 150.902 43.5965H150.895L150.878 43.306H150.605C150.612 43.467 150.619 43.642 150.619 43.859V45.693ZM150.923 44.0165C150.923 43.978 150.934 43.9325 150.944 43.894C151 43.663 151.2 43.516 151.41 43.516C151.735 43.516 151.914 43.8065 151.914 44.1425C151.914 44.531 151.725 44.797 151.399 44.797C151.179 44.797 150.993 44.65 150.937 44.4365C150.927 44.398 150.923 44.356 150.923 44.3105V44.0165ZM153.003 42.515H152.699V45H153.003V44.363L153.161 44.188L153.742 45H154.12L153.374 44.0025L154.025 43.306H153.658L153.157 43.8905C153.108 43.95 153.052 44.0235 153.01 44.083H153.003V42.515ZM155.876 43.768C155.876 43.565 155.879 43.425 155.89 43.306H155.617L155.606 43.5615H155.599C155.522 43.4215 155.365 43.271 155.071 43.271C154.679 43.271 154.304 43.593 154.304 44.167C154.304 44.636 154.605 44.993 155.025 44.993C155.288 44.993 155.473 44.867 155.564 44.7095H155.571V44.895C155.571 45.3255 155.34 45.49 155.025 45.49C154.815 45.49 154.64 45.427 154.528 45.3535L154.451 45.5915C154.588 45.6825 154.812 45.7315 155.015 45.7315C155.228 45.7315 155.466 45.679 155.634 45.5285C155.795 45.378 155.876 45.1435 155.876 44.7515V43.768ZM155.568 44.279C155.568 44.3315 155.561 44.391 155.543 44.4435C155.48 44.6395 155.309 44.7585 155.116 44.7585C154.787 44.7585 154.616 44.482 154.616 44.1495C154.616 43.7575 154.826 43.509 155.12 43.509C155.347 43.509 155.494 43.656 155.55 43.838C155.564 43.8765 155.568 43.922 155.568 43.9745V44.279ZM157.183 44.9195C157.302 44.9895 157.474 45.0385 157.659 45.0385C158.055 45.0385 158.289 44.8285 158.289 44.5275C158.289 44.2755 158.135 44.1285 157.845 44.02C157.624 43.9325 157.526 43.8695 157.526 43.7295C157.526 43.6035 157.624 43.4985 157.806 43.4985C157.964 43.4985 158.086 43.558 158.153 43.6L158.226 43.376C158.135 43.3165 157.985 43.271 157.813 43.271C157.453 43.271 157.229 43.495 157.229 43.768C157.229 43.971 157.372 44.1355 157.68 44.2475C157.904 44.3315 157.992 44.4085 157.992 44.5555C157.992 44.699 157.887 44.8075 157.666 44.8075C157.512 44.8075 157.351 44.7445 157.257 44.6885L157.183 44.9195ZM160.135 44.209C160.142 44.174 160.146 44.1285 160.146 44.0655C160.146 43.754 160.002 43.271 159.446 43.271C158.952 43.271 158.651 43.67 158.651 44.181C158.651 44.692 158.963 45.0385 159.484 45.0385C159.754 45.0385 159.943 44.979 160.051 44.93L159.995 44.7095C159.883 44.7585 159.747 44.797 159.526 44.797C159.215 44.797 158.952 44.6255 158.945 44.209H160.135ZM158.949 43.9885C158.973 43.775 159.106 43.4915 159.421 43.4915C159.768 43.4915 159.852 43.796 159.848 43.9885H158.949ZM161.805 43.9605C161.805 43.6245 161.679 43.271 161.161 43.271C160.947 43.271 160.741 43.3305 160.601 43.418L160.671 43.6245C160.79 43.544 160.954 43.4985 161.115 43.4985C161.462 43.495 161.5 43.7505 161.5 43.887V43.922C160.846 43.9185 160.482 44.1425 160.482 44.552C160.482 44.797 160.657 45.0385 161 45.0385C161.241 45.0385 161.423 44.9195 161.518 44.7865H161.528L161.553 45H161.829C161.812 44.8845 161.805 44.741 161.805 44.594V43.9605ZM161.507 44.4295C161.507 44.4575 161.504 44.4925 161.493 44.5275C161.444 44.671 161.301 44.811 161.077 44.811C160.923 44.811 160.79 44.72 160.79 44.517C160.79 44.188 161.171 44.1285 161.507 44.1355V44.4295ZM163.546 44.7095C163.458 44.748 163.343 44.79 163.168 44.79C162.832 44.79 162.58 44.5485 162.58 44.1565C162.58 43.8065 162.79 43.516 163.178 43.516C163.346 43.516 163.462 43.558 163.535 43.5965L163.605 43.362C163.521 43.3165 163.36 43.271 163.178 43.271C162.625 43.271 162.268 43.6525 162.268 44.174C162.268 44.692 162.601 45.0385 163.112 45.0385C163.339 45.0385 163.518 44.979 163.598 44.9405L163.546 44.7095ZM164.047 45H164.355V44.097C164.355 44.048 164.359 43.9955 164.366 43.9535C164.408 43.7225 164.562 43.5615 164.779 43.5615C164.821 43.5615 164.852 43.5615 164.884 43.5685V43.278C164.856 43.2745 164.831 43.271 164.8 43.271C164.593 43.271 164.404 43.4145 164.327 43.642H164.317L164.303 43.306H164.033C164.044 43.4635 164.047 43.635 164.047 43.8345V45ZM165.293 45H165.601V43.978C165.601 43.922 165.605 43.8765 165.622 43.831C165.682 43.6665 165.836 43.5265 166.035 43.5265C166.326 43.5265 166.427 43.754 166.427 44.027V45H166.735V43.992C166.735 43.411 166.371 43.271 166.144 43.271C166.028 43.271 165.92 43.3025 165.829 43.355C165.734 43.4075 165.657 43.488 165.608 43.5755H165.601V42.515H165.293V45ZM168.127 44.1635L169.751 45V44.7585L168.382 44.0725V44.0655L169.751 43.3795V43.138L168.127 43.9745V44.1635ZM171.479 45.693H171.783V43.7715C171.783 43.5965 171.79 43.446 171.797 43.306H171.507L171.496 43.5615H171.489C171.405 43.4005 171.23 43.271 170.968 43.271C170.611 43.271 170.201 43.5475 170.201 44.1845C170.201 44.699 170.523 45.0385 170.919 45.0385C171.192 45.0385 171.377 44.9055 171.472 44.741H171.479V45.693ZM171.479 44.3105C171.479 44.356 171.468 44.4155 171.454 44.461C171.384 44.671 171.213 44.7935 171.013 44.7935C170.674 44.7935 170.513 44.503 170.513 44.1635C170.513 43.7855 170.705 43.516 171.024 43.516C171.255 43.516 171.416 43.677 171.465 43.866C171.475 43.9045 171.479 43.95 171.479 43.992V44.3105ZM173.801 43.306H173.493V44.342C173.493 44.4015 173.483 44.4575 173.465 44.4995C173.409 44.6395 173.266 44.783 173.059 44.783C172.783 44.783 172.681 44.5625 172.681 44.2405V43.306H172.373V44.2965C172.373 44.888 172.692 45.0385 172.958 45.0385C173.259 45.0385 173.441 44.86 173.518 44.7235H173.525L173.542 45H173.815C173.805 44.867 173.801 44.713 173.801 44.5345V43.306ZM175.76 44.209C175.767 44.174 175.771 44.1285 175.771 44.0655C175.771 43.754 175.627 43.271 175.071 43.271C174.577 43.271 174.276 43.67 174.276 44.181C174.276 44.692 174.588 45.0385 175.109 45.0385C175.379 45.0385 175.568 44.979 175.676 44.93L175.62 44.7095C175.508 44.7585 175.372 44.797 175.151 44.797C174.84 44.797 174.577 44.6255 174.57 44.209H175.76ZM174.574 43.9885C174.598 43.775 174.731 43.4915 175.046 43.4915C175.393 43.4915 175.477 43.796 175.473 43.9885H174.574ZM176.24 45H176.548V44.097C176.548 44.048 176.551 43.9955 176.558 43.9535C176.6 43.7225 176.754 43.5615 176.971 43.5615C177.013 43.5615 177.045 43.5615 177.076 43.5685V43.278C177.048 43.2745 177.024 43.271 176.992 43.271C176.786 43.271 176.597 43.4145 176.52 43.642H176.509L176.495 43.306H176.226C176.236 43.4635 176.24 43.635 176.24 43.8345V45ZM177.337 43.306L177.96 44.867C177.978 44.9055 177.985 44.93 177.985 44.9475C177.985 44.965 177.974 44.9895 177.96 45.021C177.887 45.1785 177.785 45.2975 177.701 45.364C177.61 45.441 177.509 45.49 177.432 45.5145L177.509 45.77C177.586 45.756 177.733 45.7035 177.887 45.574C178.097 45.3885 178.247 45.0945 178.468 44.5135L178.93 43.306H178.604L178.268 44.3C178.226 44.4225 178.191 44.552 178.16 44.6535H178.153C178.125 44.552 178.083 44.419 178.041 44.307L177.673 43.306H177.337ZM180.896 43.9675L179.272 43.138V43.3795L180.651 44.0655V44.0725L179.272 44.7585V45L180.896 44.167V43.9675ZM114.263 46.641V49H114.571V46.641H114.263ZM115.215 49H115.523V47.9815C115.523 47.929 115.53 47.8765 115.544 47.838C115.6 47.6665 115.757 47.523 115.957 47.523C116.247 47.523 116.349 47.7505 116.349 48.0235V49H116.657V47.992C116.657 47.411 116.293 47.271 116.058 47.271C115.778 47.271 115.582 47.4285 115.498 47.586H115.491L115.474 47.306H115.201C115.211 47.446 115.215 47.586 115.215 47.7645V49ZM117.128 48.9195C117.247 48.9895 117.418 49.0385 117.604 49.0385C117.999 49.0385 118.234 48.8285 118.234 48.5275C118.234 48.2755 118.08 48.1285 117.789 48.02C117.569 47.9325 117.471 47.8695 117.471 47.7295C117.471 47.6035 117.569 47.4985 117.751 47.4985C117.908 47.4985 118.031 47.558 118.097 47.6L118.171 47.376C118.08 47.3165 117.929 47.271 117.758 47.271C117.397 47.271 117.173 47.495 117.173 47.768C117.173 47.971 117.317 48.1355 117.625 48.2475C117.849 48.3315 117.936 48.4085 117.936 48.5555C117.936 48.699 117.831 48.8075 117.611 48.8075C117.457 48.8075 117.296 48.7445 117.201 48.6885L117.128 48.9195ZM118.789 46.991V47.306H118.526V47.5405H118.789V48.4645C118.789 48.664 118.824 48.8145 118.908 48.909C118.981 48.9895 119.097 49.0385 119.24 49.0385C119.359 49.0385 119.454 49.0175 119.513 48.9965L119.499 48.762C119.454 48.776 119.405 48.783 119.321 48.783C119.149 48.783 119.09 48.664 119.09 48.454V47.5405H119.531V47.306H119.09V46.9L118.789 46.991ZM121.155 47.9605C121.155 47.6245 121.029 47.271 120.511 47.271C120.297 47.271 120.091 47.3305 119.951 47.418L120.021 47.6245C120.14 47.544 120.304 47.4985 120.465 47.4985C120.812 47.495 120.85 47.7505 120.85 47.887V47.922C120.196 47.9185 119.832 48.1425 119.832 48.552C119.832 48.797 120.007 49.0385 120.35 49.0385C120.591 49.0385 120.773 48.9195 120.868 48.7865H120.878L120.903 49H121.179C121.162 48.8845 121.155 48.741 121.155 48.594V47.9605ZM120.857 48.4295C120.857 48.4575 120.854 48.4925 120.843 48.5275C120.794 48.671 120.651 48.811 120.427 48.811C120.273 48.811 120.14 48.72 120.14 48.517C120.14 48.188 120.521 48.1285 120.857 48.1355V48.4295ZM121.741 49H122.049V46.515H121.741V49ZM122.655 49H122.963V46.515H122.655V49ZM125.589 47.9605C125.589 47.6245 125.463 47.271 124.945 47.271C124.732 47.271 124.525 47.3305 124.385 47.418L124.455 47.6245C124.574 47.544 124.739 47.4985 124.9 47.4985C125.246 47.495 125.285 47.7505 125.285 47.887V47.922C124.63 47.9185 124.266 48.1425 124.266 48.552C124.266 48.797 124.441 49.0385 124.784 49.0385C125.026 49.0385 125.208 48.9195 125.302 48.7865H125.313L125.337 49H125.614C125.596 48.8845 125.589 48.741 125.589 48.594V47.9605ZM125.292 48.4295C125.292 48.4575 125.288 48.4925 125.278 48.5275C125.229 48.671 125.085 48.811 124.861 48.811C124.707 48.811 124.574 48.72 124.574 48.517C124.574 48.188 124.956 48.1285 125.292 48.1355V48.4295ZM127.005 49.693H127.309V48.7725H127.316C127.418 48.9405 127.614 49.0385 127.838 49.0385C128.237 49.0385 128.611 48.7375 128.611 48.1285C128.611 47.6175 128.303 47.271 127.89 47.271C127.614 47.271 127.411 47.39 127.288 47.5965H127.281L127.264 47.306H126.991C126.998 47.467 127.005 47.642 127.005 47.859V49.693ZM127.309 48.0165C127.309 47.978 127.32 47.9325 127.33 47.894C127.386 47.663 127.586 47.516 127.796 47.516C128.121 47.516 128.3 47.8065 128.3 48.1425C128.3 48.531 128.111 48.797 127.785 48.797C127.565 48.797 127.379 48.65 127.323 48.4365C127.313 48.398 127.309 48.356 127.309 48.3105V48.0165ZM130.275 47.9605C130.275 47.6245 130.149 47.271 129.631 47.271C129.417 47.271 129.211 47.3305 129.071 47.418L129.141 47.6245C129.26 47.544 129.424 47.4985 129.585 47.4985C129.932 47.495 129.97 47.7505 129.97 47.887V47.922C129.316 47.9185 128.952 48.1425 128.952 48.552C128.952 48.797 129.127 49.0385 129.47 49.0385C129.711 49.0385 129.893 48.9195 129.988 48.7865H129.998L130.023 49H130.299C130.282 48.8845 130.275 48.741 130.275 48.594V47.9605ZM129.977 48.4295C129.977 48.4575 129.974 48.4925 129.963 48.5275C129.914 48.671 129.771 48.811 129.547 48.811C129.393 48.811 129.26 48.72 129.26 48.517C129.26 48.188 129.641 48.1285 129.977 48.1355V48.4295ZM132.016 48.7095C131.928 48.748 131.813 48.79 131.638 48.79C131.302 48.79 131.05 48.5485 131.05 48.1565C131.05 47.8065 131.26 47.516 131.648 47.516C131.816 47.516 131.932 47.558 132.005 47.5965L132.075 47.362C131.991 47.3165 131.83 47.271 131.648 47.271C131.095 47.271 130.738 47.6525 130.738 48.174C130.738 48.692 131.071 49.0385 131.582 49.0385C131.809 49.0385 131.988 48.979 132.068 48.9405L132.016 48.7095ZM132.822 46.515H132.517V49H132.822V48.363L132.979 48.188L133.56 49H133.938L133.193 48.0025L133.844 47.306H133.476L132.976 47.8905C132.927 47.95 132.871 48.0235 132.829 48.083H132.822V46.515ZM135.497 47.9605C135.497 47.6245 135.371 47.271 134.853 47.271C134.639 47.271 134.433 47.3305 134.293 47.418L134.363 47.6245C134.482 47.544 134.646 47.4985 134.807 47.4985C135.154 47.495 135.192 47.7505 135.192 47.887V47.922C134.538 47.9185 134.174 48.1425 134.174 48.552C134.174 48.797 134.349 49.0385 134.692 49.0385C134.933 49.0385 135.115 48.9195 135.21 48.7865H135.22L135.245 49H135.521C135.504 48.8845 135.497 48.741 135.497 48.594V47.9605ZM135.199 48.4295C135.199 48.4575 135.196 48.4925 135.185 48.5275C135.136 48.671 134.993 48.811 134.769 48.811C134.615 48.811 134.482 48.72 134.482 48.517C134.482 48.188 134.863 48.1285 135.199 48.1355V48.4295ZM137.532 47.768C137.532 47.565 137.535 47.425 137.546 47.306H137.273L137.262 47.5615H137.255C137.178 47.4215 137.021 47.271 136.727 47.271C136.335 47.271 135.96 47.593 135.96 48.167C135.96 48.636 136.261 48.993 136.681 48.993C136.944 48.993 137.129 48.867 137.22 48.7095H137.227V48.895C137.227 49.3255 136.996 49.49 136.681 49.49C136.471 49.49 136.296 49.427 136.184 49.3535L136.107 49.5915C136.244 49.6825 136.468 49.7315 136.671 49.7315C136.884 49.7315 137.122 49.679 137.29 49.5285C137.451 49.378 137.532 49.1435 137.532 48.7515V47.768ZM137.224 48.279C137.224 48.3315 137.217 48.391 137.199 48.4435C137.136 48.6395 136.965 48.7585 136.772 48.7585C136.443 48.7585 136.272 48.482 136.272 48.1495C136.272 47.7575 136.482 47.509 136.776 47.509C137.003 47.509 137.15 47.656 137.206 47.838C137.22 47.8765 137.224 47.922 137.224 47.9745V48.279ZM139.487 48.209C139.494 48.174 139.497 48.1285 139.497 48.0655C139.497 47.754 139.354 47.271 138.797 47.271C138.304 47.271 138.003 47.67 138.003 48.181C138.003 48.692 138.314 49.0385 138.836 49.0385C139.105 49.0385 139.294 48.979 139.403 48.93L139.347 48.7095C139.235 48.7585 139.098 48.797 138.878 48.797C138.566 48.797 138.304 48.6255 138.297 48.209H139.487ZM138.3 47.9885C138.325 47.775 138.458 47.4915 138.773 47.4915C139.119 47.4915 139.203 47.796 139.2 47.9885H138.3ZM140.099 47.803C140.229 47.803 140.309 47.7085 140.309 47.586C140.309 47.4565 140.229 47.3655 140.103 47.3655C139.984 47.3655 139.896 47.4565 139.896 47.586C139.896 47.7085 139.98 47.803 140.099 47.803ZM140.099 49.0385C140.229 49.0385 140.309 48.944 140.309 48.8215C140.309 48.692 140.229 48.601 140.103 48.601C139.984 48.601 139.896 48.692 139.896 48.8215C139.896 48.944 139.98 49.0385 140.099 49.0385ZM150.729 49.693H151.033V48.7725H151.04C151.142 48.9405 151.338 49.0385 151.562 49.0385C151.961 49.0385 152.335 48.7375 152.335 48.1285C152.335 47.6175 152.027 47.271 151.614 47.271C151.338 47.271 151.135 47.39 151.012 47.5965H151.005L150.988 47.306H150.715C150.722 47.467 150.729 47.642 150.729 47.859V49.693ZM151.033 48.0165C151.033 47.978 151.044 47.9325 151.054 47.894C151.11 47.663 151.31 47.516 151.52 47.516C151.845 47.516 152.024 47.8065 152.024 48.1425C152.024 48.531 151.835 48.797 151.509 48.797C151.289 48.797 151.103 48.65 151.047 48.4365C151.037 48.398 151.033 48.356 151.033 48.3105V48.0165ZM153.113 46.515H152.809V49H153.113V48.363L153.271 48.188L153.852 49H154.23L153.484 48.0025L154.135 47.306H153.768L153.267 47.8905C153.218 47.95 153.162 48.0235 153.12 48.083H153.113V46.515ZM155.986 47.768C155.986 47.565 155.989 47.425 156 47.306H155.727L155.716 47.5615H155.709C155.632 47.4215 155.475 47.271 155.181 47.271C154.789 47.271 154.414 47.593 154.414 48.167C154.414 48.636 154.715 48.993 155.135 48.993C155.398 48.993 155.583 48.867 155.674 48.7095H155.681V48.895C155.681 49.3255 155.45 49.49 155.135 49.49C154.925 49.49 154.75 49.427 154.638 49.3535L154.561 49.5915C154.698 49.6825 154.922 49.7315 155.125 49.7315C155.338 49.7315 155.576 49.679 155.744 49.5285C155.905 49.378 155.986 49.1435 155.986 48.7515V47.768ZM155.678 48.279C155.678 48.3315 155.671 48.391 155.653 48.4435C155.59 48.6395 155.419 48.7585 155.226 48.7585C154.897 48.7585 154.726 48.482 154.726 48.1495C154.726 47.7575 154.936 47.509 155.23 47.509C155.457 47.509 155.604 47.656 155.66 47.838C155.674 47.8765 155.678 47.922 155.678 47.9745V48.279ZM157.717 49V47.306H157.409V49H157.717ZM157.563 46.6375C157.447 46.6375 157.37 46.725 157.37 46.83C157.37 46.935 157.444 47.019 157.556 47.019C157.678 47.019 157.752 46.935 157.752 46.83C157.752 46.7215 157.675 46.6375 157.563 46.6375ZM158.317 49H158.625V47.9815C158.625 47.929 158.632 47.8765 158.646 47.838C158.702 47.6665 158.859 47.523 159.059 47.523C159.349 47.523 159.451 47.7505 159.451 48.0235V49H159.759V47.992C159.759 47.411 159.395 47.271 159.16 47.271C158.88 47.271 158.684 47.4285 158.6 47.586H158.593L158.576 47.306H158.303C158.313 47.446 158.317 47.586 158.317 47.7645V49ZM160.23 48.9195C160.349 48.9895 160.52 49.0385 160.706 49.0385C161.101 49.0385 161.336 48.8285 161.336 48.5275C161.336 48.2755 161.182 48.1285 160.891 48.02C160.671 47.9325 160.573 47.8695 160.573 47.7295C160.573 47.6035 160.671 47.4985 160.853 47.4985C161.01 47.4985 161.133 47.558 161.199 47.6L161.273 47.376C161.182 47.3165 161.031 47.271 160.86 47.271C160.499 47.271 160.275 47.495 160.275 47.768C160.275 47.971 160.419 48.1355 160.727 48.2475C160.951 48.3315 161.038 48.4085 161.038 48.5555C161.038 48.699 160.933 48.8075 160.713 48.8075C160.559 48.8075 160.398 48.7445 160.303 48.6885L160.23 48.9195ZM161.891 46.991V47.306H161.628V47.5405H161.891V48.4645C161.891 48.664 161.926 48.8145 162.01 48.909C162.083 48.9895 162.199 49.0385 162.342 49.0385C162.461 49.0385 162.556 49.0175 162.615 48.9965L162.601 48.762C162.556 48.776 162.507 48.783 162.423 48.783C162.251 48.783 162.192 48.664 162.192 48.454V47.5405H162.633V47.306H162.192V46.9L161.891 46.991ZM164.257 47.9605C164.257 47.6245 164.131 47.271 163.613 47.271C163.399 47.271 163.193 47.3305 163.053 47.418L163.123 47.6245C163.242 47.544 163.406 47.4985 163.567 47.4985C163.914 47.495 163.952 47.7505 163.952 47.887V47.922C163.298 47.9185 162.934 48.1425 162.934 48.552C162.934 48.797 163.109 49.0385 163.452 49.0385C163.693 49.0385 163.875 48.9195 163.97 48.7865H163.98L164.005 49H164.281C164.264 48.8845 164.257 48.741 164.257 48.594V47.9605ZM163.959 48.4295C163.959 48.4575 163.956 48.4925 163.945 48.5275C163.896 48.671 163.753 48.811 163.529 48.811C163.375 48.811 163.242 48.72 163.242 48.517C163.242 48.188 163.623 48.1285 163.959 48.1355V48.4295ZM164.843 49H165.151V46.515H164.843V49ZM165.757 49H166.065V46.515H165.757V49ZM167.477 48.1635L169.101 49V48.7585L167.732 48.0725V48.0655L169.101 47.3795V47.138L167.477 47.9745V48.1635ZM169.674 49.693H169.978V48.7725H169.985C170.087 48.9405 170.283 49.0385 170.507 49.0385C170.906 49.0385 171.28 48.7375 171.28 48.1285C171.28 47.6175 170.972 47.271 170.559 47.271C170.283 47.271 170.08 47.39 169.957 47.5965H169.95L169.933 47.306H169.66C169.667 47.467 169.674 47.642 169.674 47.859V49.693ZM169.978 48.0165C169.978 47.978 169.989 47.9325 169.999 47.894C170.055 47.663 170.255 47.516 170.465 47.516C170.79 47.516 170.969 47.8065 170.969 48.1425C170.969 48.531 170.78 48.797 170.454 48.797C170.234 48.797 170.048 48.65 169.992 48.4365C169.982 48.398 169.978 48.356 169.978 48.3105V48.0165ZM172.944 47.9605C172.944 47.6245 172.818 47.271 172.3 47.271C172.086 47.271 171.88 47.3305 171.74 47.418L171.81 47.6245C171.929 47.544 172.093 47.4985 172.254 47.4985C172.601 47.495 172.639 47.7505 172.639 47.887V47.922C171.985 47.9185 171.621 48.1425 171.621 48.552C171.621 48.797 171.796 49.0385 172.139 49.0385C172.38 49.0385 172.562 48.9195 172.657 48.7865H172.667L172.692 49H172.968C172.951 48.8845 172.944 48.741 172.944 48.594V47.9605ZM172.646 48.4295C172.646 48.4575 172.643 48.4925 172.632 48.5275C172.583 48.671 172.44 48.811 172.216 48.811C172.062 48.811 171.929 48.72 171.929 48.517C171.929 48.188 172.31 48.1285 172.646 48.1355V48.4295ZM174.685 48.7095C174.597 48.748 174.482 48.79 174.307 48.79C173.971 48.79 173.719 48.5485 173.719 48.1565C173.719 47.8065 173.929 47.516 174.317 47.516C174.485 47.516 174.601 47.558 174.674 47.5965L174.744 47.362C174.66 47.3165 174.499 47.271 174.317 47.271C173.764 47.271 173.407 47.6525 173.407 48.174C173.407 48.692 173.74 49.0385 174.251 49.0385C174.478 49.0385 174.657 48.979 174.737 48.9405L174.685 48.7095ZM175.491 46.515H175.186V49H175.491V48.363L175.648 48.188L176.229 49H176.607L175.862 48.0025L176.513 47.306H176.145L175.645 47.8905C175.596 47.95 175.54 48.0235 175.498 48.083H175.491V46.515ZM178.166 47.9605C178.166 47.6245 178.04 47.271 177.522 47.271C177.308 47.271 177.102 47.3305 176.962 47.418L177.032 47.6245C177.151 47.544 177.315 47.4985 177.476 47.4985C177.823 47.495 177.861 47.7505 177.861 47.887V47.922C177.207 47.9185 176.843 48.1425 176.843 48.552C176.843 48.797 177.018 49.0385 177.361 49.0385C177.602 49.0385 177.784 48.9195 177.879 48.7865H177.889L177.914 49H178.19C178.173 48.8845 178.166 48.741 178.166 48.594V47.9605ZM177.868 48.4295C177.868 48.4575 177.865 48.4925 177.854 48.5275C177.805 48.671 177.662 48.811 177.438 48.811C177.284 48.811 177.151 48.72 177.151 48.517C177.151 48.188 177.532 48.1285 177.868 48.1355V48.4295ZM180.201 47.768C180.201 47.565 180.204 47.425 180.215 47.306H179.942L179.931 47.5615H179.924C179.847 47.4215 179.69 47.271 179.396 47.271C179.004 47.271 178.629 47.593 178.629 48.167C178.629 48.636 178.93 48.993 179.35 48.993C179.613 48.993 179.798 48.867 179.889 48.7095H179.896V48.895C179.896 49.3255 179.665 49.49 179.35 49.49C179.14 49.49 178.965 49.427 178.853 49.3535L178.776 49.5915C178.913 49.6825 179.137 49.7315 179.34 49.7315C179.553 49.7315 179.791 49.679 179.959 49.5285C180.12 49.378 180.201 49.1435 180.201 48.7515V47.768ZM179.893 48.279C179.893 48.3315 179.886 48.391 179.868 48.4435C179.805 48.6395 179.634 48.7585 179.441 48.7585C179.112 48.7585 178.941 48.482 178.941 48.1495C178.941 47.7575 179.151 47.509 179.445 47.509C179.672 47.509 179.819 47.656 179.875 47.838C179.889 47.8765 179.893 47.922 179.893 47.9745V48.279ZM182.156 48.209C182.163 48.174 182.166 48.1285 182.166 48.0655C182.166 47.754 182.023 47.271 181.466 47.271C180.973 47.271 180.672 47.67 180.672 48.181C180.672 48.692 180.983 49.0385 181.505 49.0385C181.774 49.0385 181.963 48.979 182.072 48.93L182.016 48.7095C181.904 48.7585 181.767 48.797 181.547 48.797C181.235 48.797 180.973 48.6255 180.966 48.209H182.156ZM180.969 47.9885C180.994 47.775 181.127 47.4915 181.442 47.4915C181.788 47.4915 181.872 47.796 181.869 47.9885H180.969ZM184.235 47.9675L182.611 47.138V47.3795L183.99 48.0655V48.0725L182.611 48.7585V49L184.235 48.167V47.9675ZM114.263 50.641V52.0305C114.263 52.7655 114.627 53.0385 115.11 53.0385C115.621 53.0385 116.002 52.7445 116.002 52.02V50.641H115.694V52.041C115.694 52.559 115.467 52.79 115.12 52.79C114.805 52.79 114.571 52.566 114.571 52.041V50.641H114.263ZM116.609 53.693H116.914V52.7725H116.921C117.022 52.9405 117.218 53.0385 117.442 53.0385C117.841 53.0385 118.216 52.7375 118.216 52.1285C118.216 51.6175 117.908 51.271 117.495 51.271C117.218 51.271 117.015 51.39 116.893 51.5965H116.886L116.868 51.306H116.595C116.602 51.467 116.609 51.642 116.609 51.859V53.693ZM116.914 52.0165C116.914 51.978 116.924 51.9325 116.935 51.894C116.991 51.663 117.19 51.516 117.4 51.516C117.726 51.516 117.904 51.8065 117.904 52.1425C117.904 52.531 117.715 52.797 117.39 52.797C117.169 52.797 116.984 52.65 116.928 52.4365C116.917 52.398 116.914 52.356 116.914 52.3105V52.0165ZM120.138 51.768C120.138 51.565 120.142 51.425 120.152 51.306H119.879L119.869 51.5615H119.862C119.785 51.4215 119.627 51.271 119.333 51.271C118.941 51.271 118.567 51.593 118.567 52.167C118.567 52.636 118.868 52.993 119.288 52.993C119.55 52.993 119.736 52.867 119.827 52.7095H119.834V52.895C119.834 53.3255 119.603 53.49 119.288 53.49C119.078 53.49 118.903 53.427 118.791 53.3535L118.714 53.5915C118.85 53.6825 119.074 53.7315 119.277 53.7315C119.491 53.7315 119.729 53.679 119.897 53.5285C120.058 53.378 120.138 53.1435 120.138 52.7515V51.768ZM119.83 52.279C119.83 52.3315 119.823 52.391 119.806 52.4435C119.743 52.6395 119.571 52.7585 119.379 52.7585C119.05 52.7585 118.878 52.482 118.878 52.1495C118.878 51.7575 119.088 51.509 119.382 51.509C119.61 51.509 119.757 51.656 119.813 51.838C119.827 51.8765 119.83 51.922 119.83 51.9745V52.279ZM120.711 53H121.019V52.097C121.019 52.048 121.023 51.9955 121.03 51.9535C121.072 51.7225 121.226 51.5615 121.443 51.5615C121.485 51.5615 121.516 51.5615 121.548 51.5685V51.278C121.52 51.2745 121.495 51.271 121.464 51.271C121.257 51.271 121.068 51.4145 120.991 51.642H120.981L120.967 51.306H120.697C120.708 51.4635 120.711 51.635 120.711 51.8345V53ZM123.117 51.9605C123.117 51.6245 122.991 51.271 122.473 51.271C122.259 51.271 122.053 51.3305 121.913 51.418L121.983 51.6245C122.102 51.544 122.266 51.4985 122.427 51.4985C122.774 51.495 122.812 51.7505 122.812 51.887V51.922C122.158 51.9185 121.794 52.1425 121.794 52.552C121.794 52.797 121.969 53.0385 122.312 53.0385C122.553 53.0385 122.735 52.9195 122.83 52.7865H122.84L122.865 53H123.141C123.124 52.8845 123.117 52.741 123.117 52.594V51.9605ZM122.819 52.4295C122.819 52.4575 122.816 52.4925 122.805 52.5275C122.756 52.671 122.613 52.811 122.389 52.811C122.235 52.811 122.102 52.72 122.102 52.517C122.102 52.188 122.483 52.1285 122.819 52.1355V52.4295ZM124.858 50.515V51.5265H124.851C124.774 51.3935 124.602 51.271 124.34 51.271C123.93 51.271 123.577 51.614 123.58 52.1775C123.58 52.692 123.899 53.0385 124.308 53.0385C124.585 53.0385 124.788 52.895 124.879 52.706H124.889L124.903 53H125.176C125.169 52.8845 125.162 52.713 125.162 52.5625V50.515H124.858ZM124.858 52.2895C124.858 52.3385 124.854 52.3805 124.844 52.4225C124.788 52.65 124.599 52.79 124.392 52.79C124.063 52.79 123.892 52.5065 123.892 52.1635C123.892 51.7925 124.081 51.5125 124.399 51.5125C124.63 51.5125 124.798 51.6735 124.844 51.866C124.854 51.9045 124.858 51.957 124.858 51.9955V52.2895ZM127.127 52.209C127.134 52.174 127.138 52.1285 127.138 52.0655C127.138 51.754 126.994 51.271 126.438 51.271C125.944 51.271 125.643 51.67 125.643 52.181C125.643 52.692 125.955 53.0385 126.476 53.0385C126.746 53.0385 126.935 52.979 127.043 52.93L126.987 52.7095C126.875 52.7585 126.739 52.797 126.518 52.797C126.207 52.797 125.944 52.6255 125.937 52.209H127.127ZM125.941 51.9885C125.965 51.775 126.098 51.4915 126.413 51.4915C126.76 51.4915 126.844 51.796 126.84 51.9885H125.941ZM128.436 53.693H128.74V52.7725H128.747C128.849 52.9405 129.045 53.0385 129.269 53.0385C129.668 53.0385 130.042 52.7375 130.042 52.1285C130.042 51.6175 129.734 51.271 129.321 51.271C129.045 51.271 128.842 51.39 128.719 51.5965H128.712L128.695 51.306H128.422C128.429 51.467 128.436 51.642 128.436 51.859V53.693ZM128.74 52.0165C128.74 51.978 128.751 51.9325 128.761 51.894C128.817 51.663 129.017 51.516 129.227 51.516C129.552 51.516 129.731 51.8065 129.731 52.1425C129.731 52.531 129.542 52.797 129.216 52.797C128.996 52.797 128.81 52.65 128.754 52.4365C128.744 52.398 128.74 52.356 128.74 52.3105V52.0165ZM131.706 51.9605C131.706 51.6245 131.58 51.271 131.062 51.271C130.849 51.271 130.642 51.3305 130.502 51.418L130.572 51.6245C130.691 51.544 130.856 51.4985 131.017 51.4985C131.363 51.495 131.402 51.7505 131.402 51.887V51.922C130.747 51.9185 130.383 52.1425 130.383 52.552C130.383 52.797 130.558 53.0385 130.901 53.0385C131.143 53.0385 131.325 52.9195 131.419 52.7865H131.43L131.454 53H131.731C131.713 52.8845 131.706 52.741 131.706 52.594V51.9605ZM131.409 52.4295C131.409 52.4575 131.405 52.4925 131.395 52.5275C131.346 52.671 131.202 52.811 130.978 52.811C130.824 52.811 130.691 52.72 130.691 52.517C130.691 52.188 131.073 52.1285 131.409 52.1355V52.4295ZM133.447 52.7095C133.36 52.748 133.244 52.79 133.069 52.79C132.733 52.79 132.481 52.5485 132.481 52.1565C132.481 51.8065 132.691 51.516 133.08 51.516C133.248 51.516 133.363 51.558 133.437 51.5965L133.507 51.362C133.423 51.3165 133.262 51.271 133.08 51.271C132.527 51.271 132.17 51.6525 132.17 52.174C132.17 52.692 132.502 53.0385 133.013 53.0385C133.241 53.0385 133.419 52.979 133.5 52.9405L133.447 52.7095ZM134.253 50.515H133.948V53H134.253V52.363L134.41 52.188L134.991 53H135.369L134.624 52.0025L135.275 51.306H134.907L134.407 51.8905C134.358 51.95 134.302 52.0235 134.26 52.083H134.253V50.515ZM136.928 51.9605C136.928 51.6245 136.802 51.271 136.284 51.271C136.071 51.271 135.864 51.3305 135.724 51.418L135.794 51.6245C135.913 51.544 136.078 51.4985 136.239 51.4985C136.585 51.495 136.624 51.7505 136.624 51.887V51.922C135.969 51.9185 135.605 52.1425 135.605 52.552C135.605 52.797 135.78 53.0385 136.123 53.0385C136.365 53.0385 136.547 52.9195 136.641 52.7865H136.652L136.676 53H136.953C136.935 52.8845 136.928 52.741 136.928 52.594V51.9605ZM136.631 52.4295C136.631 52.4575 136.627 52.4925 136.617 52.5275C136.568 52.671 136.424 52.811 136.2 52.811C136.046 52.811 135.913 52.72 135.913 52.517C135.913 52.188 136.295 52.1285 136.631 52.1355V52.4295ZM138.963 51.768C138.963 51.565 138.967 51.425 138.977 51.306H138.704L138.694 51.5615H138.687C138.61 51.4215 138.452 51.271 138.158 51.271C137.766 51.271 137.392 51.593 137.392 52.167C137.392 52.636 137.693 52.993 138.113 52.993C138.375 52.993 138.561 52.867 138.652 52.7095H138.659V52.895C138.659 53.3255 138.428 53.49 138.113 53.49C137.903 53.49 137.728 53.427 137.616 53.3535L137.539 53.5915C137.675 53.6825 137.899 53.7315 138.102 53.7315C138.316 53.7315 138.554 53.679 138.722 53.5285C138.883 53.378 138.963 53.1435 138.963 52.7515V51.768ZM138.655 52.279C138.655 52.3315 138.648 52.391 138.631 52.4435C138.568 52.6395 138.396 52.7585 138.204 52.7585C137.875 52.7585 137.703 52.482 137.703 52.1495C137.703 51.7575 137.913 51.509 138.207 51.509C138.435 51.509 138.582 51.656 138.638 51.838C138.652 51.8765 138.655 51.922 138.655 51.9745V52.279ZM140.918 52.209C140.925 52.174 140.929 52.1285 140.929 52.0655C140.929 51.754 140.785 51.271 140.229 51.271C139.735 51.271 139.434 51.67 139.434 52.181C139.434 52.692 139.746 53.0385 140.267 53.0385C140.537 53.0385 140.726 52.979 140.834 52.93L140.778 52.7095C140.666 52.7585 140.53 52.797 140.309 52.797C139.998 52.797 139.735 52.6255 139.728 52.209H140.918ZM139.732 51.9885C139.756 51.775 139.889 51.4915 140.204 51.4915C140.551 51.4915 140.635 51.796 140.631 51.9885H139.732ZM141.282 52.9195C141.401 52.9895 141.573 53.0385 141.758 53.0385C142.154 53.0385 142.388 52.8285 142.388 52.5275C142.388 52.2755 142.234 52.1285 141.944 52.02C141.723 51.9325 141.625 51.8695 141.625 51.7295C141.625 51.6035 141.723 51.4985 141.905 51.4985C142.063 51.4985 142.185 51.558 142.252 51.6L142.325 51.376C142.234 51.3165 142.084 51.271 141.912 51.271C141.552 51.271 141.328 51.495 141.328 51.768C141.328 51.971 141.471 52.1355 141.779 52.2475C142.003 52.3315 142.091 52.4085 142.091 52.5555C142.091 52.699 141.986 52.8075 141.765 52.8075C141.611 52.8075 141.45 52.7445 141.356 52.6885L141.282 52.9195ZM143.006 51.803C143.135 51.803 143.216 51.7085 143.216 51.586C143.216 51.4565 143.135 51.3655 143.009 51.3655C142.89 51.3655 142.803 51.4565 142.803 51.586C142.803 51.7085 142.887 51.803 143.006 51.803ZM143.006 53.0385C143.135 53.0385 143.216 52.944 143.216 52.8215C143.216 52.692 143.135 52.601 143.009 52.601C142.89 52.601 142.803 52.692 142.803 52.8215C142.803 52.944 142.887 53.0385 143.006 53.0385ZM150.318 53.693H150.623V52.7725H150.63C150.731 52.9405 150.927 53.0385 151.151 53.0385C151.55 53.0385 151.925 52.7375 151.925 52.1285C151.925 51.6175 151.617 51.271 151.204 51.271C150.927 51.271 150.724 51.39 150.602 51.5965H150.595L150.577 51.306H150.304C150.311 51.467 150.318 51.642 150.318 51.859V53.693ZM150.623 52.0165C150.623 51.978 150.633 51.9325 150.644 51.894C150.7 51.663 150.899 51.516 151.109 51.516C151.435 51.516 151.613 51.8065 151.613 52.1425C151.613 52.531 151.424 52.797 151.099 52.797C150.878 52.797 150.693 52.65 150.637 52.4365C150.626 52.398 150.623 52.356 150.623 52.3105V52.0165ZM152.703 50.515H152.399V53H152.703V52.363L152.861 52.188L153.442 53H153.82L153.074 52.0025L153.725 51.306H153.358L152.857 51.8905C152.808 51.95 152.752 52.0235 152.71 52.083H152.703V50.515ZM155.576 51.768C155.576 51.565 155.579 51.425 155.59 51.306H155.317L155.306 51.5615H155.299C155.222 51.4215 155.065 51.271 154.771 51.271C154.379 51.271 154.004 51.593 154.004 52.167C154.004 52.636 154.305 52.993 154.725 52.993C154.988 52.993 155.173 52.867 155.264 52.7095H155.271V52.895C155.271 53.3255 155.04 53.49 154.725 53.49C154.515 53.49 154.34 53.427 154.228 53.3535L154.151 53.5915C154.288 53.6825 154.512 53.7315 154.715 53.7315C154.928 53.7315 155.166 53.679 155.334 53.5285C155.495 53.378 155.576 53.1435 155.576 52.7515V51.768ZM155.268 52.279C155.268 52.3315 155.261 52.391 155.243 52.4435C155.18 52.6395 155.009 52.7585 154.816 52.7585C154.487 52.7585 154.316 52.482 154.316 52.1495C154.316 51.7575 154.526 51.509 154.82 51.509C155.047 51.509 155.194 51.656 155.25 51.838C155.264 51.8765 155.268 51.922 155.268 51.9745V52.279ZM158.416 51.306H158.108V52.342C158.108 52.4015 158.098 52.4575 158.08 52.4995C158.024 52.6395 157.881 52.783 157.674 52.783C157.398 52.783 157.296 52.5625 157.296 52.2405V51.306H156.988V52.2965C156.988 52.888 157.307 53.0385 157.573 53.0385C157.874 53.0385 158.056 52.86 158.133 52.7235H158.14L158.157 53H158.43C158.42 52.867 158.416 52.713 158.416 52.5345V51.306ZM159.014 53.693H159.318V52.7725H159.325C159.427 52.9405 159.623 53.0385 159.847 53.0385C160.246 53.0385 160.62 52.7375 160.62 52.1285C160.62 51.6175 160.312 51.271 159.899 51.271C159.623 51.271 159.42 51.39 159.297 51.5965H159.29L159.273 51.306H159C159.007 51.467 159.014 51.642 159.014 51.859V53.693ZM159.318 52.0165C159.318 51.978 159.329 51.9325 159.339 51.894C159.395 51.663 159.595 51.516 159.805 51.516C160.13 51.516 160.309 51.8065 160.309 52.1425C160.309 52.531 160.12 52.797 159.794 52.797C159.574 52.797 159.388 52.65 159.332 52.4365C159.322 52.398 159.318 52.356 159.318 52.3105V52.0165ZM162.543 51.768C162.543 51.565 162.546 51.425 162.557 51.306H162.284L162.273 51.5615H162.266C162.189 51.4215 162.032 51.271 161.738 51.271C161.346 51.271 160.971 51.593 160.971 52.167C160.971 52.636 161.272 52.993 161.692 52.993C161.955 52.993 162.14 52.867 162.231 52.7095H162.238V52.895C162.238 53.3255 162.007 53.49 161.692 53.49C161.482 53.49 161.307 53.427 161.195 53.3535L161.118 53.5915C161.255 53.6825 161.479 53.7315 161.682 53.7315C161.895 53.7315 162.133 53.679 162.301 53.5285C162.462 53.378 162.543 53.1435 162.543 52.7515V51.768ZM162.235 52.279C162.235 52.3315 162.228 52.391 162.21 52.4435C162.147 52.6395 161.976 52.7585 161.783 52.7585C161.454 52.7585 161.283 52.482 161.283 52.1495C161.283 51.7575 161.493 51.509 161.787 51.509C162.014 51.509 162.161 51.656 162.217 51.838C162.231 51.8765 162.235 51.922 162.235 51.9745V52.279ZM163.116 53H163.424V52.097C163.424 52.048 163.428 51.9955 163.435 51.9535C163.477 51.7225 163.631 51.5615 163.848 51.5615C163.89 51.5615 163.921 51.5615 163.953 51.5685V51.278C163.925 51.2745 163.9 51.271 163.869 51.271C163.662 51.271 163.473 51.4145 163.396 51.642H163.386L163.372 51.306H163.102C163.113 51.4635 163.116 51.635 163.116 51.8345V53ZM165.521 51.9605C165.521 51.6245 165.395 51.271 164.877 51.271C164.664 51.271 164.457 51.3305 164.317 51.418L164.387 51.6245C164.506 51.544 164.671 51.4985 164.832 51.4985C165.178 51.495 165.217 51.7505 165.217 51.887V51.922C164.562 51.9185 164.198 52.1425 164.198 52.552C164.198 52.797 164.373 53.0385 164.716 53.0385C164.958 53.0385 165.14 52.9195 165.234 52.7865H165.245L165.269 53H165.546C165.528 52.8845 165.521 52.741 165.521 52.594V51.9605ZM165.224 52.4295C165.224 52.4575 165.22 52.4925 165.21 52.5275C165.161 52.671 165.017 52.811 164.793 52.811C164.639 52.811 164.506 52.72 164.506 52.517C164.506 52.188 164.888 52.1285 165.224 52.1355V52.4295ZM167.262 50.515V51.5265H167.255C167.178 51.3935 167.007 51.271 166.744 51.271C166.335 51.271 165.981 51.614 165.985 52.1775C165.985 52.692 166.303 53.0385 166.713 53.0385C166.989 53.0385 167.192 52.895 167.283 52.706H167.294L167.308 53H167.581C167.574 52.8845 167.567 52.713 167.567 52.5625V50.515H167.262ZM167.262 52.2895C167.262 52.3385 167.259 52.3805 167.248 52.4225C167.192 52.65 167.003 52.79 166.797 52.79C166.468 52.79 166.296 52.5065 166.296 52.1635C166.296 51.7925 166.485 51.5125 166.804 51.5125C167.035 51.5125 167.203 51.6735 167.248 51.866C167.259 51.9045 167.262 51.957 167.262 51.9955V52.2895ZM169.532 52.209C169.539 52.174 169.543 52.1285 169.543 52.0655C169.543 51.754 169.399 51.271 168.843 51.271C168.349 51.271 168.048 51.67 168.048 52.181C168.048 52.692 168.36 53.0385 168.881 53.0385C169.151 53.0385 169.34 52.979 169.448 52.93L169.392 52.7095C169.28 52.7585 169.144 52.797 168.923 52.797C168.612 52.797 168.349 52.6255 168.342 52.209H169.532ZM168.346 51.9885C168.37 51.775 168.503 51.4915 168.818 51.4915C169.165 51.4915 169.249 51.796 169.245 51.9885H168.346ZM114.263 57H115.579V56.7445H114.571V54.641H114.263V57ZM117.308 56.209C117.315 56.174 117.318 56.1285 117.318 56.0655C117.318 55.754 117.175 55.271 116.618 55.271C116.125 55.271 115.824 55.67 115.824 56.181C115.824 56.692 116.135 57.0385 116.657 57.0385C116.926 57.0385 117.115 56.979 117.224 56.93L117.168 56.7095C117.056 56.7585 116.919 56.797 116.699 56.797C116.387 56.797 116.125 56.6255 116.118 56.209H117.308ZM116.121 55.9885C116.146 55.775 116.279 55.4915 116.594 55.4915C116.94 55.4915 117.024 55.796 117.021 55.9885H116.121ZM118.977 55.9605C118.977 55.6245 118.851 55.271 118.333 55.271C118.119 55.271 117.913 55.3305 117.773 55.418L117.843 55.6245C117.962 55.544 118.126 55.4985 118.287 55.4985C118.634 55.495 118.672 55.7505 118.672 55.887V55.922C118.018 55.9185 117.654 56.1425 117.654 56.552C117.654 56.797 117.829 57.0385 118.172 57.0385C118.413 57.0385 118.595 56.9195 118.69 56.7865H118.7L118.725 57H119.001C118.984 56.8845 118.977 56.741 118.977 56.594V55.9605ZM118.679 56.4295C118.679 56.4575 118.676 56.4925 118.665 56.5275C118.616 56.671 118.473 56.811 118.249 56.811C118.095 56.811 117.962 56.72 117.962 56.517C117.962 56.188 118.343 56.1285 118.679 56.1355V56.4295ZM119.563 57H119.871V56.097C119.871 56.048 119.874 55.9955 119.881 55.9535C119.923 55.7225 120.077 55.5615 120.294 55.5615C120.336 55.5615 120.368 55.5615 120.399 55.5685V55.278C120.371 55.2745 120.347 55.271 120.315 55.271C120.109 55.271 119.92 55.4145 119.843 55.642H119.832L119.818 55.306H119.549C119.559 55.4635 119.563 55.635 119.563 55.8345V57ZM120.809 57H121.117V55.9815C121.117 55.929 121.124 55.8765 121.138 55.838C121.194 55.6665 121.352 55.523 121.551 55.523C121.842 55.523 121.943 55.7505 121.943 56.0235V57H122.251V55.992C122.251 55.411 121.887 55.271 121.653 55.271C121.373 55.271 121.177 55.4285 121.093 55.586H121.086L121.068 55.306H120.795C120.806 55.446 120.809 55.586 120.809 55.7645V57ZM123.667 57H123.968V55.9815C123.968 55.929 123.975 55.873 123.993 55.831C124.042 55.677 124.185 55.523 124.374 55.523C124.609 55.523 124.728 55.7155 124.728 55.985V57H125.029V55.9535C125.029 55.8975 125.039 55.845 125.053 55.7995C125.109 55.6525 125.242 55.523 125.421 55.523C125.666 55.523 125.788 55.7155 125.788 56.0445V57H126.089V56.006C126.089 55.418 125.757 55.271 125.529 55.271C125.368 55.271 125.26 55.313 125.158 55.39C125.088 55.4425 125.018 55.5125 124.966 55.6105H124.959C124.885 55.411 124.71 55.271 124.483 55.271C124.199 55.271 124.042 55.4215 123.947 55.5825H123.937L123.923 55.306H123.653C123.66 55.446 123.667 55.586 123.667 55.7645V57ZM127.391 55.271C126.926 55.271 126.551 55.6035 126.551 56.167C126.551 56.7025 126.908 57.0385 127.363 57.0385C127.769 57.0385 128.207 56.7655 128.207 56.139C128.207 55.6245 127.878 55.271 127.391 55.271ZM127.384 55.502C127.748 55.502 127.892 55.8625 127.892 56.1495C127.892 56.531 127.671 56.8075 127.377 56.8075C127.076 56.8075 126.866 56.5275 126.866 56.1565C126.866 55.838 127.024 55.502 127.384 55.502ZM128.682 57H128.99V56.097C128.99 56.048 128.994 55.9955 129.001 55.9535C129.043 55.7225 129.197 55.5615 129.414 55.5615C129.456 55.5615 129.487 55.5615 129.519 55.5685V55.278C129.491 55.2745 129.466 55.271 129.435 55.271C129.228 55.271 129.039 55.4145 128.962 55.642H128.952L128.938 55.306H128.668C128.679 55.4635 128.682 55.635 128.682 55.8345V57ZM131.242 56.209C131.249 56.174 131.252 56.1285 131.252 56.0655C131.252 55.754 131.109 55.271 130.552 55.271C130.059 55.271 129.758 55.67 129.758 56.181C129.758 56.692 130.069 57.0385 130.591 57.0385C130.86 57.0385 131.049 56.979 131.158 56.93L131.102 56.7095C130.99 56.7585 130.853 56.797 130.633 56.797C130.321 56.797 130.059 56.6255 130.052 56.209H131.242ZM130.055 55.9885C130.08 55.775 130.213 55.4915 130.528 55.4915C130.874 55.4915 130.958 55.796 130.955 55.9885H130.055ZM131.854 55.803C131.984 55.803 132.064 55.7085 132.064 55.586C132.064 55.4565 131.984 55.3655 131.858 55.3655C131.739 55.3655 131.651 55.4565 131.651 55.586C131.651 55.7085 131.735 55.803 131.854 55.803ZM131.854 57.0385C131.984 57.0385 132.064 56.944 132.064 56.8215C132.064 56.692 131.984 56.601 131.858 56.601C131.739 56.601 131.651 56.692 131.651 56.8215C131.651 56.944 131.735 57.0385 131.854 57.0385ZM114.984 61.2975V60.9335C115.344 60.8775 115.537 60.6185 115.537 60.3385C115.537 60.027 115.355 59.8485 114.994 59.7015C114.69 59.572 114.56 59.481 114.56 59.3025C114.56 59.159 114.662 58.998 114.931 58.998C115.155 58.998 115.299 59.0785 115.372 59.1205L115.46 58.8895C115.355 58.83 115.211 58.774 115.005 58.767V58.4275H114.784V58.7775C114.466 58.83 114.259 59.0505 114.259 59.341C114.259 59.6455 114.48 59.81 114.837 59.95C115.096 60.055 115.232 60.174 115.232 60.3665C115.232 60.566 115.064 60.7095 114.816 60.7095C114.62 60.7095 114.438 60.6395 114.315 60.559L114.231 60.7935C114.354 60.881 114.56 60.944 114.763 60.9475V61.2975H114.984ZM116.851 60.9195C116.97 60.9895 117.142 61.0385 117.327 61.0385C117.723 61.0385 117.957 60.8285 117.957 60.5275C117.957 60.2755 117.803 60.1285 117.513 60.02C117.292 59.9325 117.194 59.8695 117.194 59.7295C117.194 59.6035 117.292 59.4985 117.474 59.4985C117.632 59.4985 117.754 59.558 117.821 59.6L117.894 59.376C117.803 59.3165 117.653 59.271 117.481 59.271C117.121 59.271 116.897 59.495 116.897 59.768C116.897 59.971 117.04 60.1355 117.348 60.2475C117.572 60.3315 117.66 60.4085 117.66 60.5555C117.66 60.699 117.555 60.8075 117.334 60.8075C117.18 60.8075 117.019 60.7445 116.925 60.6885L116.851 60.9195ZM118.326 60.9195C118.445 60.9895 118.617 61.0385 118.802 61.0385C119.198 61.0385 119.432 60.8285 119.432 60.5275C119.432 60.2755 119.278 60.1285 118.988 60.02C118.767 59.9325 118.669 59.8695 118.669 59.7295C118.669 59.6035 118.767 59.4985 118.949 59.4985C119.107 59.4985 119.229 59.558 119.296 59.6L119.369 59.376C119.278 59.3165 119.128 59.271 118.956 59.271C118.596 59.271 118.372 59.495 118.372 59.768C118.372 59.971 118.515 60.1355 118.823 60.2475C119.047 60.3315 119.135 60.4085 119.135 60.5555C119.135 60.699 119.03 60.8075 118.809 60.8075C118.655 60.8075 118.494 60.7445 118.4 60.6885L118.326 60.9195ZM119.917 61H120.225V59.978C120.225 59.922 120.229 59.8765 120.246 59.831C120.306 59.6665 120.46 59.5265 120.659 59.5265C120.95 59.5265 121.051 59.754 121.051 60.027V61H121.359V59.992C121.359 59.411 120.995 59.271 120.768 59.271C120.652 59.271 120.544 59.3025 120.453 59.355C120.358 59.4075 120.281 59.488 120.232 59.5755H120.225V58.515H119.917V61ZM122.625 59.943V60.167H123.489V59.943H122.625ZM123.946 61H124.251V59.978H124.538C124.814 59.9885 124.944 60.111 125.014 60.4365C125.077 60.7305 125.129 60.93 125.168 61H125.483C125.434 60.909 125.378 60.6815 125.301 60.3525C125.245 60.1075 125.136 59.9395 124.958 59.8765V59.866C125.203 59.782 125.399 59.5755 125.399 59.2675C125.399 59.082 125.329 58.921 125.213 58.816C125.07 58.6865 124.856 58.6235 124.531 58.6235C124.324 58.6235 124.1 58.6445 123.946 58.6725V61ZM124.251 58.886C124.303 58.872 124.405 58.8615 124.552 58.8615C124.874 58.8615 125.094 58.9945 125.094 59.299C125.094 59.5685 124.888 59.747 124.562 59.747H124.251V58.886ZM127.88 61V60.377H128.199V60.139H127.88V58.725H127.548L126.533 60.1775V60.377H127.59V61H127.88ZM126.844 60.139V60.132L127.401 59.3585C127.464 59.2535 127.52 59.1555 127.59 59.0225H127.6C127.593 59.1415 127.59 59.2605 127.59 59.3795V60.139H126.844ZM129.878 58.725H128.789L128.642 59.817C128.726 59.8065 128.828 59.796 128.961 59.796C129.412 59.796 129.612 60.0025 129.612 60.2965C129.615 60.601 129.363 60.79 129.076 60.79C128.866 60.79 128.681 60.72 128.586 60.664L128.509 60.8985C128.621 60.9685 128.828 61.0385 129.076 61.0385C129.57 61.0385 129.923 60.706 129.923 60.2615C129.923 59.978 129.776 59.7785 129.598 59.6805C129.458 59.593 129.286 59.558 129.108 59.558C129.024 59.558 128.975 59.5615 128.922 59.5685L129.01 58.984H129.878V58.725ZM131.7 58.69C131.644 58.69 131.567 58.6935 131.476 58.7075C131.189 58.7425 130.937 58.858 130.748 59.0435C130.521 59.2675 130.363 59.621 130.363 60.069C130.363 60.6605 130.682 61.0385 131.165 61.0385C131.641 61.0385 131.924 60.6535 131.924 60.2335C131.924 59.7925 131.641 59.4985 131.238 59.4985C130.986 59.4985 130.794 59.6175 130.685 59.7645H130.678C130.731 59.3865 130.983 59.0365 131.469 58.9595C131.557 58.9455 131.637 58.9385 131.7 58.942V58.69ZM131.172 60.8005C130.846 60.8005 130.671 60.5205 130.668 60.146C130.668 60.09 130.682 60.048 130.699 60.013C130.783 59.845 130.958 59.733 131.144 59.733C131.427 59.733 131.613 59.929 131.613 60.2545C131.613 60.58 131.434 60.8005 131.172 60.8005ZM133.526 61V60.377H133.845V60.139H133.526V58.725H133.194L132.179 60.1775V60.377H133.236V61H133.526ZM132.49 60.139V60.132L133.047 59.3585C133.11 59.2535 133.166 59.1555 133.236 59.0225H133.246C133.239 59.1415 133.236 59.2605 133.236 59.3795V60.139H132.49ZM134.397 59.803C134.526 59.803 134.607 59.7085 134.607 59.586C134.607 59.4565 134.526 59.3655 134.4 59.3655C134.281 59.3655 134.194 59.4565 134.194 59.586C134.194 59.7085 134.278 59.803 134.397 59.803ZM134.397 61.0385C134.526 61.0385 134.607 60.944 134.607 60.8215C134.607 60.692 134.526 60.601 134.4 60.601C134.281 60.601 134.194 60.692 134.194 60.8215C134.194 60.944 134.278 61.0385 134.397 61.0385ZM135.076 61H135.384V58.515H135.076V61ZM136.708 59.271C136.242 59.271 135.868 59.6035 135.868 60.167C135.868 60.7025 136.225 61.0385 136.68 61.0385C137.086 61.0385 137.523 60.7655 137.523 60.139C137.523 59.6245 137.194 59.271 136.708 59.271ZM136.701 59.502C137.065 59.502 137.208 59.8625 137.208 60.1495C137.208 60.531 136.988 60.8075 136.694 60.8075C136.393 60.8075 136.183 60.5275 136.183 60.1565C136.183 59.838 136.34 59.502 136.701 59.502ZM139.154 60.7095C139.066 60.748 138.951 60.79 138.776 60.79C138.44 60.79 138.188 60.5485 138.188 60.1565C138.188 59.8065 138.398 59.516 138.786 59.516C138.954 59.516 139.07 59.558 139.143 59.5965L139.213 59.362C139.129 59.3165 138.968 59.271 138.786 59.271C138.233 59.271 137.876 59.6525 137.876 60.174C137.876 60.692 138.209 61.0385 138.72 61.0385C138.947 61.0385 139.126 60.979 139.206 60.9405L139.154 60.7095ZM140.845 59.9605C140.845 59.6245 140.719 59.271 140.201 59.271C139.988 59.271 139.781 59.3305 139.641 59.418L139.711 59.6245C139.83 59.544 139.995 59.4985 140.156 59.4985C140.502 59.495 140.541 59.7505 140.541 59.887V59.922C139.886 59.9185 139.522 60.1425 139.522 60.552C139.522 60.797 139.697 61.0385 140.04 61.0385C140.282 61.0385 140.464 60.9195 140.558 60.7865H140.569L140.593 61H140.87C140.852 60.8845 140.845 60.741 140.845 60.594V59.9605ZM140.548 60.4295C140.548 60.4575 140.544 60.4925 140.534 60.5275C140.485 60.671 140.341 60.811 140.117 60.811C139.963 60.811 139.83 60.72 139.83 60.517C139.83 60.188 140.212 60.1285 140.548 60.1355V60.4295ZM141.431 61H141.739V58.515H141.431V61ZM142.346 61H142.654V59.978C142.654 59.922 142.657 59.8765 142.675 59.831C142.734 59.6665 142.888 59.5265 143.088 59.5265C143.378 59.5265 143.48 59.754 143.48 60.027V61H143.788V59.992C143.788 59.411 143.424 59.271 143.196 59.271C143.081 59.271 142.972 59.3025 142.881 59.355C142.787 59.4075 142.71 59.488 142.661 59.5755H142.654V58.515H142.346V61ZM145.092 59.271C144.627 59.271 144.252 59.6035 144.252 60.167C144.252 60.7025 144.609 61.0385 145.064 61.0385C145.47 61.0385 145.908 60.7655 145.908 60.139C145.908 59.6245 145.579 59.271 145.092 59.271ZM145.085 59.502C145.449 59.502 145.593 59.8625 145.593 60.1495C145.593 60.531 145.372 60.8075 145.078 60.8075C144.777 60.8075 144.567 60.5275 144.567 60.1565C144.567 59.838 144.725 59.502 145.085 59.502ZM146.268 60.9195C146.387 60.9895 146.558 61.0385 146.744 61.0385C147.139 61.0385 147.374 60.8285 147.374 60.5275C147.374 60.2755 147.22 60.1285 146.929 60.02C146.709 59.9325 146.611 59.8695 146.611 59.7295C146.611 59.6035 146.709 59.4985 146.891 59.4985C147.048 59.4985 147.171 59.558 147.237 59.6L147.311 59.376C147.22 59.3165 147.069 59.271 146.898 59.271C146.537 59.271 146.313 59.495 146.313 59.768C146.313 59.971 146.457 60.1355 146.765 60.2475C146.989 60.3315 147.076 60.4085 147.076 60.5555C147.076 60.699 146.971 60.8075 146.751 60.8075C146.597 60.8075 146.436 60.7445 146.341 60.6885L146.268 60.9195ZM147.928 58.991V59.306H147.666V59.5405H147.928V60.4645C147.928 60.664 147.963 60.8145 148.047 60.909C148.121 60.9895 148.236 61.0385 148.38 61.0385C148.499 61.0385 148.593 61.0175 148.653 60.9965L148.639 60.762C148.593 60.776 148.544 60.783 148.46 60.783C148.289 60.783 148.229 60.664 148.229 60.454V59.5405H148.67V59.306H148.229V58.9L147.928 58.991ZM114.266 69H114.571V68.055C114.641 68.0725 114.725 68.076 114.816 68.076C115.113 68.076 115.372 67.9885 115.537 67.817C115.656 67.6945 115.719 67.5265 115.719 67.313C115.719 67.103 115.638 66.9315 115.512 66.8195C115.372 66.6935 115.152 66.6235 114.851 66.6235C114.606 66.6235 114.413 66.6445 114.266 66.669V69ZM114.571 66.8895C114.623 66.8755 114.725 66.865 114.858 66.865C115.19 66.865 115.414 67.0155 115.414 67.3305C115.414 67.649 115.19 67.831 114.823 67.831C114.721 67.831 114.637 67.824 114.571 67.8065V66.8895ZM116.151 69H116.459V68.097C116.459 68.048 116.463 67.9955 116.47 67.9535C116.512 67.7225 116.666 67.5615 116.883 67.5615C116.925 67.5615 116.956 67.5615 116.988 67.5685V67.278C116.96 67.2745 116.935 67.271 116.904 67.271C116.697 67.271 116.508 67.4145 116.431 67.642H116.421L116.407 67.306H116.137C116.148 67.4635 116.151 67.635 116.151 67.8345V69ZM118.711 68.209C118.718 68.174 118.721 68.1285 118.721 68.0655C118.721 67.754 118.578 67.271 118.021 67.271C117.528 67.271 117.227 67.67 117.227 68.181C117.227 68.692 117.538 69.0385 118.06 69.0385C118.329 69.0385 118.518 68.979 118.627 68.93L118.571 68.7095C118.459 68.7585 118.322 68.797 118.102 68.797C117.79 68.797 117.528 68.6255 117.521 68.209H118.711ZM117.524 67.9885C117.549 67.775 117.682 67.4915 117.997 67.4915C118.343 67.4915 118.427 67.796 118.424 67.9885H117.524ZM119.075 68.9195C119.194 68.9895 119.365 69.0385 119.551 69.0385C119.946 69.0385 120.181 68.8285 120.181 68.5275C120.181 68.2755 120.027 68.1285 119.736 68.02C119.516 67.9325 119.418 67.8695 119.418 67.7295C119.418 67.6035 119.516 67.4985 119.698 67.4985C119.855 67.4985 119.978 67.558 120.044 67.6L120.118 67.376C120.027 67.3165 119.876 67.271 119.705 67.271C119.344 67.271 119.12 67.495 119.12 67.768C119.12 67.971 119.264 68.1355 119.572 68.2475C119.796 68.3315 119.883 68.4085 119.883 68.5555C119.883 68.699 119.778 68.8075 119.558 68.8075C119.404 68.8075 119.243 68.7445 119.148 68.6885L119.075 68.9195ZM120.55 68.9195C120.669 68.9895 120.841 69.0385 121.026 69.0385C121.422 69.0385 121.656 68.8285 121.656 68.5275C121.656 68.2755 121.502 68.1285 121.212 68.02C120.991 67.9325 120.893 67.8695 120.893 67.7295C120.893 67.6035 120.991 67.4985 121.173 67.4985C121.331 67.4985 121.453 67.558 121.52 67.6L121.593 67.376C121.502 67.3165 121.352 67.271 121.18 67.271C120.82 67.271 120.596 67.495 120.596 67.768C120.596 67.971 120.739 68.1355 121.047 68.2475C121.271 68.3315 121.359 68.4085 121.359 68.5555C121.359 68.699 121.254 68.8075 121.033 68.8075C120.879 68.8075 120.718 68.7445 120.624 68.6885L120.55 68.9195ZM124.419 67.768C124.419 67.565 124.422 67.425 124.433 67.306H124.16L124.149 67.5615H124.142C124.065 67.4215 123.908 67.271 123.614 67.271C123.222 67.271 122.847 67.593 122.847 68.167C122.847 68.636 123.148 68.993 123.568 68.993C123.831 68.993 124.016 68.867 124.107 68.7095H124.114V68.895C124.114 69.3255 123.883 69.49 123.568 69.49C123.358 69.49 123.183 69.427 123.071 69.3535L122.994 69.5915C123.131 69.6825 123.355 69.7315 123.558 69.7315C123.771 69.7315 124.009 69.679 124.177 69.5285C124.338 69.378 124.419 69.1435 124.419 68.7515V67.768ZM124.111 68.279C124.111 68.3315 124.104 68.391 124.086 68.4435C124.023 68.6395 123.852 68.7585 123.659 68.7585C123.33 68.7585 123.159 68.482 123.159 68.1495C123.159 67.7575 123.369 67.509 123.663 67.509C123.89 67.509 124.037 67.656 124.093 67.838C124.107 67.8765 124.111 67.922 124.111 67.9745V68.279ZM125.912 66.991V67.306H125.649V67.5405H125.912V68.4645C125.912 68.664 125.947 68.8145 126.031 68.909C126.104 68.9895 126.22 69.0385 126.363 69.0385C126.482 69.0385 126.577 69.0175 126.636 68.9965L126.622 68.762C126.577 68.776 126.528 68.783 126.444 68.783C126.272 68.783 126.213 68.664 126.213 68.454V67.5405H126.654V67.306H126.213V66.9L125.912 66.991ZM127.785 67.271C127.319 67.271 126.945 67.6035 126.945 68.167C126.945 68.7025 127.302 69.0385 127.757 69.0385C128.163 69.0385 128.6 68.7655 128.6 68.139C128.6 67.6245 128.271 67.271 127.785 67.271ZM127.778 67.502C128.142 67.502 128.285 67.8625 128.285 68.1495C128.285 68.531 128.065 68.8075 127.771 68.8075C127.47 68.8075 127.26 68.5275 127.26 68.1565C127.26 67.838 127.417 67.502 127.778 67.502ZM129.79 68.9195C129.909 68.9895 130.08 69.0385 130.266 69.0385C130.661 69.0385 130.896 68.8285 130.896 68.5275C130.896 68.2755 130.742 68.1285 130.451 68.02C130.231 67.9325 130.133 67.8695 130.133 67.7295C130.133 67.6035 130.231 67.4985 130.413 67.4985C130.57 67.4985 130.693 67.558 130.759 67.6L130.833 67.376C130.742 67.3165 130.591 67.271 130.42 67.271C130.059 67.271 129.835 67.495 129.835 67.768C129.835 67.971 129.979 68.1355 130.287 68.2475C130.511 68.3315 130.598 68.4085 130.598 68.5555C130.598 68.699 130.493 68.8075 130.273 68.8075C130.119 68.8075 129.958 68.7445 129.863 68.6885L129.79 68.9195ZM131.45 66.991V67.306H131.188V67.5405H131.45V68.4645C131.45 68.664 131.485 68.8145 131.569 68.909C131.643 68.9895 131.758 69.0385 131.902 69.0385C132.021 69.0385 132.115 69.0175 132.175 68.9965L132.161 68.762C132.115 68.776 132.066 68.783 131.982 68.783C131.811 68.783 131.751 68.664 131.751 68.454V67.5405H132.192V67.306H131.751V66.9L131.45 66.991ZM133.816 67.9605C133.816 67.6245 133.69 67.271 133.172 67.271C132.959 67.271 132.752 67.3305 132.612 67.418L132.682 67.6245C132.801 67.544 132.966 67.4985 133.127 67.4985C133.473 67.495 133.512 67.7505 133.512 67.887V67.922C132.857 67.9185 132.493 68.1425 132.493 68.552C132.493 68.797 132.668 69.0385 133.011 69.0385C133.253 69.0385 133.435 68.9195 133.529 68.7865H133.54L133.564 69H133.841C133.823 68.8845 133.816 68.741 133.816 68.594V67.9605ZM133.519 68.4295C133.519 68.4575 133.515 68.4925 133.505 68.5275C133.456 68.671 133.312 68.811 133.088 68.811C132.934 68.811 132.801 68.72 132.801 68.517C132.801 68.188 133.183 68.1285 133.519 68.1355V68.4295ZM134.402 69H134.71V68.097C134.71 68.048 134.714 67.9955 134.721 67.9535C134.763 67.7225 134.917 67.5615 135.134 67.5615C135.176 67.5615 135.207 67.5615 135.239 67.5685V67.278C135.211 67.2745 135.186 67.271 135.155 67.271C134.948 67.271 134.759 67.4145 134.682 67.642H134.672L134.658 67.306H134.388C134.399 67.4635 134.402 67.635 134.402 67.8345V69ZM135.79 66.991V67.306H135.528V67.5405H135.79V68.4645C135.79 68.664 135.825 68.8145 135.909 68.909C135.983 68.9895 136.098 69.0385 136.242 69.0385C136.361 69.0385 136.455 69.0175 136.515 68.9965L136.501 68.762C136.455 68.776 136.406 68.783 136.322 68.783C136.151 68.783 136.091 68.664 136.091 68.454V67.5405H136.532V67.306H136.091V66.9L135.79 66.991Z" fill="white" fill-opacity="0.5"/>
<path d="M114.263 65H114.571V63.9325H115.46V63.6805H114.571V62.8965H115.533V62.641H114.263V65ZM116.657 63.271C116.191 63.271 115.817 63.6035 115.817 64.167C115.817 64.7025 116.174 65.0385 116.629 65.0385C117.035 65.0385 117.472 64.7655 117.472 64.139C117.472 63.6245 117.143 63.271 116.657 63.271ZM116.65 63.502C117.014 63.502 117.157 63.8625 117.157 64.1495C117.157 64.531 116.937 64.8075 116.643 64.8075C116.342 64.8075 116.132 64.5275 116.132 64.1565C116.132 63.838 116.289 63.502 116.65 63.502ZM117.948 65H118.256V64.097C118.256 64.048 118.259 63.9955 118.266 63.9535C118.308 63.7225 118.462 63.5615 118.679 63.5615C118.721 63.5615 118.753 63.5615 118.784 63.5685V63.278C118.756 63.2745 118.732 63.271 118.7 63.271C118.494 63.271 118.305 63.4145 118.228 63.642H118.217L118.203 63.306H117.934C117.944 63.4635 117.948 63.635 117.948 63.8345V65ZM119.076 63.306L119.587 65H119.867L120.14 64.195C120.2 64.013 120.252 63.838 120.294 63.635H120.301C120.343 63.8345 120.392 64.0025 120.452 64.1915L120.711 65H120.991L121.537 63.306H121.232L120.991 64.1565C120.935 64.356 120.889 64.5345 120.861 64.706H120.851C120.812 64.5345 120.763 64.356 120.7 64.153L120.438 63.306H120.179L119.902 64.1705C119.846 64.3525 119.79 64.5345 119.752 64.706H119.741C119.71 64.531 119.664 64.356 119.619 64.167L119.391 63.306H119.076ZM123.11 63.9605C123.11 63.6245 122.984 63.271 122.466 63.271C122.252 63.271 122.046 63.3305 121.906 63.418L121.976 63.6245C122.095 63.544 122.259 63.4985 122.42 63.4985C122.767 63.495 122.805 63.7505 122.805 63.887V63.922C122.151 63.9185 121.787 64.1425 121.787 64.552C121.787 64.797 121.962 65.0385 122.305 65.0385C122.546 65.0385 122.728 64.9195 122.823 64.7865H122.833L122.858 65H123.134C123.117 64.8845 123.11 64.741 123.11 64.594V63.9605ZM122.812 64.4295C122.812 64.4575 122.809 64.4925 122.798 64.5275C122.749 64.671 122.606 64.811 122.382 64.811C122.228 64.811 122.095 64.72 122.095 64.517C122.095 64.188 122.476 64.1285 122.812 64.1355V64.4295ZM123.696 65H124.004V64.097C124.004 64.048 124.007 63.9955 124.014 63.9535C124.056 63.7225 124.21 63.5615 124.427 63.5615C124.469 63.5615 124.501 63.5615 124.532 63.5685V63.278C124.504 63.2745 124.48 63.271 124.448 63.271C124.242 63.271 124.053 63.4145 123.976 63.642H123.965L123.951 63.306H123.682C123.692 63.4635 123.696 63.635 123.696 63.8345V65ZM126.049 62.515V63.5265H126.042C125.965 63.3935 125.794 63.271 125.531 63.271C125.122 63.271 124.768 63.614 124.772 64.1775C124.772 64.692 125.09 65.0385 125.5 65.0385C125.776 65.0385 125.979 64.895 126.07 64.706H126.081L126.095 65H126.368C126.361 64.8845 126.354 64.713 126.354 64.5625V62.515H126.049ZM126.049 64.2895C126.049 64.3385 126.046 64.3805 126.035 64.4225C125.979 64.65 125.79 64.79 125.584 64.79C125.255 64.79 125.083 64.5065 125.083 64.1635C125.083 63.7925 125.272 63.5125 125.591 63.5125C125.822 63.5125 125.99 63.6735 126.035 63.866C126.046 63.9045 126.049 63.957 126.049 63.9955V64.2895ZM127.265 65V63.306H126.957V65H127.265ZM127.111 62.6375C126.996 62.6375 126.919 62.725 126.919 62.83C126.919 62.935 126.992 63.019 127.104 63.019C127.227 63.019 127.3 62.935 127.3 62.83C127.3 62.7215 127.223 62.6375 127.111 62.6375ZM127.865 65H128.173V63.9815C128.173 63.929 128.18 63.8765 128.194 63.838C128.25 63.6665 128.408 63.523 128.607 63.523C128.898 63.523 128.999 63.7505 128.999 64.0235V65H129.307V63.992C129.307 63.411 128.943 63.271 128.709 63.271C128.429 63.271 128.233 63.4285 128.149 63.586H128.142L128.124 63.306H127.851C127.862 63.446 127.865 63.586 127.865 63.7645V65ZM131.343 63.768C131.343 63.565 131.347 63.425 131.357 63.306H131.084L131.074 63.5615H131.067C130.99 63.4215 130.832 63.271 130.538 63.271C130.146 63.271 129.772 63.593 129.772 64.167C129.772 64.636 130.073 64.993 130.493 64.993C130.755 64.993 130.941 64.867 131.032 64.7095H131.039V64.895C131.039 65.3255 130.808 65.49 130.493 65.49C130.283 65.49 130.108 65.427 129.996 65.3535L129.919 65.5915C130.055 65.6825 130.279 65.7315 130.482 65.7315C130.696 65.7315 130.934 65.679 131.102 65.5285C131.263 65.378 131.343 65.1435 131.343 64.7515V63.768ZM131.035 64.279C131.035 64.3315 131.028 64.391 131.011 64.4435C130.948 64.6395 130.776 64.7585 130.584 64.7585C130.255 64.7585 130.083 64.482 130.083 64.1495C130.083 63.7575 130.293 63.509 130.587 63.509C130.815 63.509 130.962 63.656 131.018 63.838C131.032 63.8765 131.035 63.922 131.035 63.9745V64.279ZM133.081 65H133.389V62.9H134.11V62.641H132.363V62.9H133.081V65ZM135.95 64.6815C135.827 64.741 135.638 64.7795 135.449 64.7795C134.879 64.7795 134.546 64.412 134.546 63.831C134.546 63.2115 134.914 62.858 135.467 62.858C135.663 62.858 135.827 62.9 135.939 62.956L136.016 62.7075C135.936 62.6655 135.747 62.6025 135.456 62.6025C134.725 62.6025 134.224 63.0995 134.224 63.8415C134.224 64.6185 134.721 65.0385 135.386 65.0385C135.673 65.0385 135.901 64.9825 136.009 64.9265L135.95 64.6815ZM136.482 65H136.787V64.055C136.857 64.0725 136.941 64.076 137.032 64.076C137.329 64.076 137.588 63.9885 137.753 63.817C137.872 63.6945 137.935 63.5265 137.935 63.313C137.935 63.103 137.854 62.9315 137.728 62.8195C137.588 62.6935 137.368 62.6235 137.067 62.6235C136.822 62.6235 136.629 62.6445 136.482 62.669V65ZM136.787 62.8895C136.839 62.8755 136.941 62.865 137.074 62.865C137.406 62.865 137.63 63.0155 137.63 63.3305C137.63 63.649 137.406 63.831 137.039 63.831C136.937 63.831 136.853 63.824 136.787 63.8065V62.8895ZM140.406 64.7095C140.319 64.748 140.203 64.79 140.028 64.79C139.692 64.79 139.44 64.5485 139.44 64.1565C139.44 63.8065 139.65 63.516 140.039 63.516C140.207 63.516 140.322 63.558 140.396 63.5965L140.466 63.362C140.382 63.3165 140.221 63.271 140.039 63.271C139.486 63.271 139.129 63.6525 139.129 64.174C139.129 64.692 139.461 65.0385 139.972 65.0385C140.2 65.0385 140.378 64.979 140.459 64.9405L140.406 64.7095ZM141.604 63.271C141.139 63.271 140.764 63.6035 140.764 64.167C140.764 64.7025 141.121 65.0385 141.576 65.0385C141.982 65.0385 142.42 64.7655 142.42 64.139C142.42 63.6245 142.091 63.271 141.604 63.271ZM141.597 63.502C141.961 63.502 142.105 63.8625 142.105 64.1495C142.105 64.531 141.884 64.8075 141.59 64.8075C141.289 64.8075 141.079 64.5275 141.079 64.1565C141.079 63.838 141.237 63.502 141.597 63.502ZM142.895 65H143.203V63.9815C143.203 63.929 143.21 63.8765 143.224 63.838C143.28 63.6665 143.438 63.523 143.637 63.523C143.928 63.523 144.029 63.7505 144.029 64.0235V65H144.337V63.992C144.337 63.411 143.973 63.271 143.739 63.271C143.459 63.271 143.263 63.4285 143.179 63.586H143.172L143.154 63.306H142.881C142.892 63.446 142.895 63.586 142.895 63.7645V65ZM144.924 65H145.232V63.9815C145.232 63.929 145.239 63.8765 145.253 63.838C145.309 63.6665 145.467 63.523 145.666 63.523C145.957 63.523 146.058 63.7505 146.058 64.0235V65H146.366V63.992C146.366 63.411 146.002 63.271 145.768 63.271C145.488 63.271 145.292 63.4285 145.208 63.586H145.201L145.183 63.306H144.91C144.921 63.446 144.924 63.586 144.924 63.7645V65ZM148.315 64.209C148.322 64.174 148.325 64.1285 148.325 64.0655C148.325 63.754 148.182 63.271 147.625 63.271C147.132 63.271 146.831 63.67 146.831 64.181C146.831 64.692 147.142 65.0385 147.664 65.0385C147.933 65.0385 148.122 64.979 148.231 64.93L148.175 64.7095C148.063 64.7585 147.926 64.797 147.706 64.797C147.394 64.797 147.132 64.6255 147.125 64.209H148.315ZM147.128 63.9885C147.153 63.775 147.286 63.4915 147.601 63.4915C147.947 63.4915 148.031 63.796 148.028 63.9885H147.128ZM149.949 64.7095C149.862 64.748 149.746 64.79 149.571 64.79C149.235 64.79 148.983 64.5485 148.983 64.1565C148.983 63.8065 149.193 63.516 149.582 63.516C149.75 63.516 149.865 63.558 149.939 63.5965L150.009 63.362C149.925 63.3165 149.764 63.271 149.582 63.271C149.029 63.271 148.672 63.6525 148.672 64.174C148.672 64.692 149.004 65.0385 149.515 65.0385C149.743 65.0385 149.921 64.979 150.002 64.9405L149.949 64.7095ZM150.565 62.991V63.306H150.302V63.5405H150.565V64.4645C150.565 64.664 150.6 64.8145 150.684 64.909C150.757 64.9895 150.873 65.0385 151.016 65.0385C151.135 65.0385 151.23 65.0175 151.289 64.9965L151.275 64.762C151.23 64.776 151.181 64.783 151.097 64.783C150.925 64.783 150.866 64.664 150.866 64.454V63.5405H151.307V63.306H150.866V62.9L150.565 62.991ZM152.049 65V63.306H151.741V65H152.049ZM151.895 62.6375C151.78 62.6375 151.703 62.725 151.703 62.83C151.703 62.935 151.776 63.019 151.888 63.019C152.011 63.019 152.084 62.935 152.084 62.83C152.084 62.7215 152.007 62.6375 151.895 62.6375ZM153.366 63.271C152.901 63.271 152.526 63.6035 152.526 64.167C152.526 64.7025 152.883 65.0385 153.338 65.0385C153.744 65.0385 154.182 64.7655 154.182 64.139C154.182 63.6245 153.853 63.271 153.366 63.271ZM153.359 63.502C153.723 63.502 153.867 63.8625 153.867 64.1495C153.867 64.531 153.646 64.8075 153.352 64.8075C153.051 64.8075 152.841 64.5275 152.841 64.1565C152.841 63.838 152.999 63.502 153.359 63.502ZM154.657 65H154.965V63.9815C154.965 63.929 154.972 63.8765 154.986 63.838C155.042 63.6665 155.2 63.523 155.399 63.523C155.69 63.523 155.791 63.7505 155.791 64.0235V65H156.099V63.992C156.099 63.411 155.735 63.271 155.501 63.271C155.221 63.271 155.025 63.4285 154.941 63.586H154.934L154.916 63.306H154.643C154.654 63.446 154.657 63.586 154.657 63.7645V65Z" fill="#EB0718" fill-opacity="0.5"/>
<path d="M13 104.5L89.5 28H187" stroke="url(#paint0_linear)"/>
<path d="M121.976 14H120.296V7.456L118.392 11.648H117.288L115.384 7.472V14H113.704V4.432H115.624L117.864 9.152L120.072 4.432H121.976V14ZM131.098 14H129.306L128.602 11.968H124.97L124.266 14H122.474L125.818 4.432H127.77L131.098 14ZM128.074 10.368L126.794 6.592L125.498 10.368H128.074ZM138.407 8.048C138.407 8.41067 138.311 8.736 138.119 9.024C138.045 9.13067 137.911 9.28 137.719 9.472C137.527 9.65333 137.373 9.78667 137.255 9.872C136.925 10.1067 136.546 10.224 136.119 10.224H133.303V14H131.623V4.432H136.119C136.546 4.432 136.925 4.54933 137.255 4.784C137.362 4.85867 137.511 4.99733 137.703 5.2C137.906 5.40267 138.045 5.55733 138.119 5.664C138.311 5.952 138.407 6.27733 138.407 6.64V8.048ZM136.727 8.032V6.656C136.727 6.60267 136.722 6.56533 136.711 6.544C136.53 6.224 136.359 6.05333 136.199 6.032H136.119H133.303V8.624H136.119C136.194 8.624 136.295 8.56533 136.423 8.448C136.551 8.33067 136.647 8.21333 136.711 8.096C136.722 8.07467 136.727 8.05333 136.727 8.032Z" fill="white"/>
<path d="M150.842 11.588V10.13C150.842 10.094 150.836 10.064 150.824 10.04C150.752 9.908 150.644 9.776 150.5 9.644C150.368 9.512 150.26 9.446 150.176 9.446H150.158H147.872V7.664H150.158H150.176C150.26 7.664 150.368 7.598 150.5 7.466C150.644 7.334 150.752 7.202 150.824 7.07L150.842 6.98V5.684L150.824 5.594C150.74 5.45 150.626 5.318 150.482 5.198C150.35 5.066 150.242 5 150.158 5H148.106C148.082 5 148.058 5.006 148.034 5.018C147.878 5.09 147.704 5.216 147.512 5.396C147.332 5.564 147.212 5.744 147.152 5.936L145.316 5.432C145.472 5.108 145.616 4.85 145.748 4.658C146.528 3.674 147.296 3.182 148.052 3.182H150.176C150.644 3.182 151.064 3.314 151.436 3.578C151.808 3.854 152.132 4.184 152.408 4.568C152.624 4.892 152.732 5.258 152.732 5.666V7.016C152.732 7.556 152.492 8.066 152.012 8.546C152.492 9.026 152.732 9.542 152.732 10.094V11.606C152.732 12.014 152.624 12.38 152.408 12.704C152.324 12.824 152.168 12.998 151.94 13.226C151.724 13.454 151.556 13.61 151.436 13.694C151.064 13.958 150.644 14.09 150.176 14.09H148.052C147.272 14.09 146.504 13.598 145.748 12.614C145.52 12.302 145.37 12.044 145.298 11.84L147.134 11.354C147.458 11.834 147.752 12.14 148.016 12.272C148.04 12.284 148.07 12.29 148.106 12.29H150.158C150.23 12.29 150.338 12.224 150.482 12.092C150.626 11.96 150.74 11.822 150.824 11.678C150.836 11.654 150.842 11.624 150.842 11.588ZM161.814 11.39C161.814 11.81 161.724 12.152 161.544 12.416C161.424 12.584 161.22 12.812 160.932 13.1C160.644 13.376 160.404 13.568 160.212 13.676C159.828 13.892 159.468 14 159.132 14H154.2V3.236H159.132C159.552 3.236 159.918 3.338 160.23 3.542C160.41 3.65 160.638 3.848 160.914 4.136C161.19 4.424 161.394 4.664 161.526 4.856C161.718 5.12 161.814 5.462 161.814 5.882V11.39ZM156.09 12.2H159.006C159.078 12.2 159.12 12.194 159.132 12.182C159.276 12.098 159.444 11.966 159.636 11.786C159.828 11.594 159.924 11.45 159.924 11.354V5.936C159.924 5.9 159.918 5.87 159.906 5.846C159.678 5.474 159.414 5.21 159.114 5.054C159.102 5.042 159.048 5.036 158.952 5.036H156.09V12.2Z" fill="#E12033"/>
<rect x="12.7275" y="91.7071" width="17" height="17" transform="rotate(45 12.7275 91.7071)" stroke="white"/>
<defs>
<linearGradient id="paint0_linear" x1="228.5" y1="4.00002" x2="-94" y2="326.5" gradientUnits="userSpaceOnUse">
<stop stop-color="white" stop-opacity="0.4"/>
<stop offset="1" stop-color="white" stop-opacity="0"/>
</linearGradient>
</defs>
</svg>
