<svg width="244" height="157" viewBox="0 0 244 157" fill="none" xmlns="http://www.w3.org/2000/svg">
<path d="M231.229 131.979L243.249 144L231.229 156.021L219.208 144L231.229 131.979Z" stroke="white"/>
<path d="M231.5 144L115.5 28H0" stroke="url(#paint0_linear)"/>
<path d="M7.472 10.824C7.472 11.1973 7.38133 11.5173 7.2 11.784C7.12533 11.8907 6.992 12.0453 6.8 12.248C6.608 12.44 6.45867 12.5733 6.352 12.648C6.02133 12.8827 5.63733 13 5.2 13H0.704V3.432H5.2C5.616 3.432 6 3.55467 6.352 3.8C6.45867 3.87467 6.608 4.01333 6.8 4.216C6.992 4.408 7.12533 4.55733 7.2 4.664C7.38133 4.93067 7.472 5.26133 7.472 5.656V6.84C7.472 7.352 7.264 7.816 6.848 8.232C7.264 8.648 7.472 9.10667 7.472 9.608V10.824ZM5.776 6.92C5.78667 6.89867 5.792 6.86133 5.792 6.808V5.672L5.776 5.592C5.70133 5.464 5.6 5.34133 5.472 5.224C5.35467 5.096 5.25867 5.032 5.184 5.032H2.384V7.448H5.2C5.27467 7.448 5.376 7.38933 5.504 7.272C5.632 7.15467 5.72267 7.03733 5.776 6.92ZM5.776 10.872C5.78667 10.84 5.792 10.8027 5.792 10.76V9.624L5.776 9.544C5.70133 9.416 5.6 9.29333 5.472 9.176C5.35467 9.05867 5.25867 9 5.184 9H2.384V11.4H5.2C5.27467 11.4 5.376 11.3413 5.504 11.224C5.632 11.1067 5.72267 10.9893 5.776 10.872ZM15.643 7.048C15.643 7.41067 15.547 7.736 15.355 8.024C15.2803 8.13067 15.147 8.28 14.955 8.472C14.763 8.65333 14.6083 8.78667 14.491 8.872C14.1603 9.10667 13.7817 9.224 13.355 9.224H10.539V13H8.859V3.432H13.355C13.7817 3.432 14.1603 3.54933 14.491 3.784C14.5977 3.85867 14.747 3.99733 14.939 4.2C15.1417 4.40267 15.2803 4.55733 15.355 4.664C15.547 4.952 15.643 5.27733 15.643 5.64V7.048ZM13.963 7.032V5.656C13.963 5.60267 13.9577 5.56533 13.947 5.544C13.7657 5.224 13.595 5.05333 13.435 5.032H13.355H10.539V7.624H13.355C13.4297 7.624 13.531 7.56533 13.659 7.448C13.787 7.33067 13.883 7.21333 13.947 7.096C13.9577 7.07467 13.963 7.05333 13.963 7.032ZM25.0048 13H23.3247V6.456L21.4207 10.648H20.3167L18.4127 6.472V13H16.7327V3.432H18.6527L20.8927 8.152L23.1007 3.432H25.0048V13Z" fill="white"/>
<path d="M34.0845 13H32.4045V5.048H30.5005V3.432H34.0845V13ZM41.3574 4.984H39.7414C39.6987 4.984 39.6667 4.98933 39.6454 5C39.2614 5.224 39.0054 5.50133 38.8774 5.832L37.2774 5.352C37.3734 5.096 37.4854 4.88267 37.6134 4.712C38.296 3.82667 38.984 3.384 39.6774 3.384H41.3734C41.7894 3.384 42.1627 3.50667 42.4934 3.752C42.6107 3.82667 42.7654 3.96533 42.9574 4.168C43.16 4.36 43.2987 4.50933 43.3734 4.616C43.5654 4.904 43.6614 5.22933 43.6614 5.592V6.616C43.6614 7.36267 43.2667 7.93867 42.4774 8.344L39.3254 9.976C39.1547 10.072 39.0694 10.184 39.0694 10.312V11.4H43.5494V13H37.3894V10.248C37.3894 9.52267 37.7894 8.952 38.5894 8.536L41.7734 6.888C41.912 6.824 41.9814 6.71733 41.9814 6.568V5.592L41.9654 5.512C41.8907 5.384 41.7894 5.26667 41.6614 5.16C41.5334 5.04267 41.432 4.984 41.3574 4.984ZM51.3023 10.728C51.3023 11.08 51.2169 11.384 51.0463 11.64C50.9289 11.8 50.7423 12.0133 50.4863 12.28C50.2409 12.536 50.0383 12.7067 49.8783 12.792C49.5689 12.984 49.2436 13.08 48.9023 13.08H47.1263C46.7743 13.08 46.4436 12.984 46.1343 12.792C45.9849 12.7067 45.7769 12.536 45.5103 12.28C45.2543 12.0133 45.0729 11.8 44.9663 11.64C44.7956 11.384 44.7103 11.08 44.7103 10.728V5.72C44.7103 5.368 44.7956 5.064 44.9663 4.808C45.0729 4.648 45.2543 4.44 45.5103 4.184C45.7769 3.91733 45.9849 3.74133 46.1343 3.656C46.4436 3.464 46.7743 3.368 47.1263 3.368H48.9023C49.2436 3.368 49.5689 3.464 49.8783 3.656C50.0383 3.74133 50.2409 3.91733 50.4863 4.184C50.7423 4.44 50.9289 4.648 51.0463 4.808C51.2169 5.064 51.3023 5.368 51.3023 5.72V10.728ZM46.3903 5.752V10.712C46.3903 10.744 46.3956 10.7653 46.4063 10.776C46.6303 11.1067 46.8649 11.336 47.1103 11.464C47.1316 11.4747 47.1583 11.48 47.1903 11.48H48.8383C48.8703 11.48 48.8969 11.4747 48.9183 11.464C49.1636 11.336 49.3929 11.1067 49.6063 10.776L49.6223 10.712V5.752C49.6223 5.70933 49.6169 5.68267 49.6063 5.672C49.3929 5.34133 49.1636 5.112 48.9183 4.984C48.8969 4.97333 48.8703 4.968 48.8383 4.968H47.1903C47.1476 4.968 47.1209 4.97333 47.1103 4.984C46.8649 5.10133 46.6303 5.33067 46.4063 5.672L46.3903 5.752Z" fill="#E60D2E"/>
<path d="M64.6626 12.3294L64.6612 12.3281C62.8387 10.6556 61.4068 9.33862 60.4184 8.11564C59.4418 6.90731 59 5.91084 59 4.89646C59 3.25538 60.2576 2 61.85 2C62.7607 2 63.6539 2.434 64.2348 3.12448L65 4.03387L65.7652 3.12448C66.3461 2.434 67.2393 2 68.15 2C69.7424 2 71 3.25538 71 4.89646C71 5.91085 70.5582 6.90737 69.5814 8.11679C68.593 9.34065 67.1613 10.6591 65.3391 12.3349C65.3388 12.3352 65.3384 12.3356 65.3381 12.3359L65.0026 12.6426L64.6626 12.3294Z" stroke="#E60D2E" stroke-width="2"/>
<path d="M0.147 41.8845C0.273 41.9685 0.5215 42.0385 0.749 42.0385C1.3055 42.0385 1.5715 41.72 1.5715 41.356C1.5715 41.0095 1.372 40.817 0.973 40.663C0.6475 40.537 0.504 40.4285 0.504 40.208C0.504 40.047 0.6265 39.8545 0.9485 39.8545C1.162 39.8545 1.3195 39.921 1.393 39.9665L1.477 39.718C1.3755 39.6585 1.197 39.6025 0.959 39.6025C0.5005 39.6025 0.196 39.8755 0.196 40.243C0.196 40.572 0.434 40.775 0.819 40.915C1.1375 41.034 1.2635 41.1635 1.2635 41.3805C1.2635 41.6185 1.0815 41.783 0.77 41.783C0.56 41.783 0.364 41.7165 0.2275 41.629L0.147 41.8845ZM3.45108 41.209C3.45808 41.174 3.46158 41.1285 3.46158 41.0655C3.46158 40.754 3.31808 40.271 2.76158 40.271C2.26808 40.271 1.96708 40.67 1.96708 41.181C1.96708 41.692 2.27858 42.0385 2.80008 42.0385C3.06958 42.0385 3.25858 41.979 3.36708 41.93L3.31108 41.7095C3.19908 41.7585 3.06258 41.797 2.84208 41.797C2.53058 41.797 2.26808 41.6255 2.26108 41.209H3.45108ZM2.26458 40.9885C2.28908 40.775 2.42208 40.4915 2.73708 40.4915C3.08358 40.4915 3.16758 40.796 3.16408 40.9885H2.26458ZM5.1205 40.9605C5.1205 40.6245 4.9945 40.271 4.4765 40.271C4.263 40.271 4.0565 40.3305 3.9165 40.418L3.9865 40.6245C4.1055 40.544 4.27 40.4985 4.431 40.4985C4.7775 40.495 4.816 40.7505 4.816 40.887V40.922C4.1615 40.9185 3.7975 41.1425 3.7975 41.552C3.7975 41.797 3.9725 42.0385 4.3155 42.0385C4.557 42.0385 4.739 41.9195 4.8335 41.7865H4.844L4.8685 42H5.145C5.1275 41.8845 5.1205 41.741 5.1205 41.594V40.9605ZM4.823 41.4295C4.823 41.4575 4.8195 41.4925 4.809 41.5275C4.76 41.671 4.6165 41.811 4.3925 41.811C4.2385 41.811 4.1055 41.72 4.1055 41.517C4.1055 41.188 4.487 41.1285 4.823 41.1355V41.4295ZM5.70648 42H6.01448V41.097C6.01448 41.048 6.01798 40.9955 6.02498 40.9535C6.06698 40.7225 6.22098 40.5615 6.43798 40.5615C6.47998 40.5615 6.51148 40.5615 6.54298 40.5685V40.278C6.51498 40.2745 6.49048 40.271 6.45898 40.271C6.25248 40.271 6.06348 40.4145 5.98648 40.642H5.97598L5.96198 40.306H5.69248C5.70298 40.4635 5.70648 40.635 5.70648 40.8345V42ZM8.05982 41.7095C7.97232 41.748 7.85682 41.79 7.68182 41.79C7.34582 41.79 7.09382 41.5485 7.09382 41.1565C7.09382 40.8065 7.30382 40.516 7.69232 40.516C7.86032 40.516 7.97582 40.558 8.04932 40.5965L8.11932 40.362C8.03532 40.3165 7.87432 40.271 7.69232 40.271C7.13932 40.271 6.78232 40.6525 6.78232 41.174C6.78232 41.692 7.11482 42.0385 7.62582 42.0385C7.85332 42.0385 8.03182 41.979 8.11232 41.9405L8.05982 41.7095ZM8.56116 42H8.86916V40.978C8.86916 40.922 8.87266 40.8765 8.89016 40.831C8.94966 40.6665 9.10366 40.5265 9.30316 40.5265C9.59366 40.5265 9.69516 40.754 9.69516 41.027V42H10.0032V40.992C10.0032 40.411 9.63916 40.271 9.41166 40.271C9.29616 40.271 9.18766 40.3025 9.09666 40.355C9.00216 40.4075 8.92516 40.488 8.87616 40.5755H8.86916V39.515H8.56116V42ZM11.4193 42.693H11.7238V41.7725H11.7308C11.8323 41.9405 12.0283 42.0385 12.2523 42.0385C12.6513 42.0385 13.0258 41.7375 13.0258 41.1285C13.0258 40.6175 12.7178 40.271 12.3048 40.271C12.0283 40.271 11.8253 40.39 11.7028 40.5965H11.6958L11.6783 40.306H11.4053C11.4123 40.467 11.4193 40.642 11.4193 40.859V42.693ZM11.7238 41.0165C11.7238 40.978 11.7343 40.9325 11.7448 40.894C11.8008 40.663 12.0003 40.516 12.2103 40.516C12.5358 40.516 12.7143 40.8065 12.7143 41.1425C12.7143 41.531 12.5253 41.797 12.1998 41.797C11.9793 41.797 11.7938 41.65 11.7378 41.4365C11.7273 41.398 11.7238 41.356 11.7238 41.3105V41.0165ZM14.6894 40.9605C14.6894 40.6245 14.5634 40.271 14.0454 40.271C13.8319 40.271 13.6254 40.3305 13.4854 40.418L13.5554 40.6245C13.6744 40.544 13.8389 40.4985 13.9999 40.4985C14.3464 40.495 14.3849 40.7505 14.3849 40.887V40.922C13.7304 40.9185 13.3664 41.1425 13.3664 41.552C13.3664 41.797 13.5414 42.0385 13.8844 42.0385C14.1259 42.0385 14.3079 41.9195 14.4024 41.7865H14.4129L14.4374 42H14.7139C14.6964 41.8845 14.6894 41.741 14.6894 41.594V40.9605ZM14.3919 41.4295C14.3919 41.4575 14.3884 41.4925 14.3779 41.5275C14.3289 41.671 14.1854 41.811 13.9614 41.811C13.8074 41.811 13.6744 41.72 13.6744 41.517C13.6744 41.188 14.0559 41.1285 14.3919 41.1355V41.4295ZM16.4304 41.7095C16.3429 41.748 16.2274 41.79 16.0524 41.79C15.7164 41.79 15.4644 41.5485 15.4644 41.1565C15.4644 40.8065 15.6744 40.516 16.0629 40.516C16.2309 40.516 16.3464 40.558 16.4199 40.5965L16.4899 40.362C16.4059 40.3165 16.2449 40.271 16.0629 40.271C15.5099 40.271 15.1529 40.6525 15.1529 41.174C15.1529 41.692 15.4854 42.0385 15.9964 42.0385C16.2239 42.0385 16.4024 41.979 16.4829 41.9405L16.4304 41.7095ZM17.2363 39.515H16.9318V42H17.2363V41.363L17.3938 41.188L17.9748 42H18.3528L17.6073 41.0025L18.2583 40.306H17.8908L17.3903 40.8905C17.3413 40.95 17.2853 41.0235 17.2433 41.083H17.2363V39.515ZM19.9114 40.9605C19.9114 40.6245 19.7854 40.271 19.2674 40.271C19.0539 40.271 18.8474 40.3305 18.7074 40.418L18.7774 40.6245C18.8964 40.544 19.0609 40.4985 19.2219 40.4985C19.5684 40.495 19.6069 40.7505 19.6069 40.887V40.922C18.9524 40.9185 18.5884 41.1425 18.5884 41.552C18.5884 41.797 18.7634 42.0385 19.1064 42.0385C19.3479 42.0385 19.5299 41.9195 19.6244 41.7865H19.6349L19.6594 42H19.9359C19.9184 41.8845 19.9114 41.741 19.9114 41.594V40.9605ZM19.6139 41.4295C19.6139 41.4575 19.6104 41.4925 19.5999 41.5275C19.5509 41.671 19.4074 41.811 19.1834 41.811C19.0294 41.811 18.8964 41.72 18.8964 41.517C18.8964 41.188 19.2779 41.1285 19.6139 41.1355V41.4295ZM21.9464 40.768C21.9464 40.565 21.9499 40.425 21.9604 40.306H21.6874L21.6769 40.5615H21.6699C21.5929 40.4215 21.4354 40.271 21.1414 40.271C20.7494 40.271 20.3749 40.593 20.3749 41.167C20.3749 41.636 20.6759 41.993 21.0959 41.993C21.3584 41.993 21.5439 41.867 21.6349 41.7095H21.6419V41.895C21.6419 42.3255 21.4109 42.49 21.0959 42.49C20.8859 42.49 20.7109 42.427 20.5989 42.3535L20.5219 42.5915C20.6584 42.6825 20.8824 42.7315 21.0854 42.7315C21.2989 42.7315 21.5369 42.679 21.7049 42.5285C21.8659 42.378 21.9464 42.1435 21.9464 41.7515V40.768ZM21.6384 41.279C21.6384 41.3315 21.6314 41.391 21.6139 41.4435C21.5509 41.6395 21.3794 41.7585 21.1869 41.7585C20.8579 41.7585 20.6864 41.482 20.6864 41.1495C20.6864 40.7575 20.8964 40.509 21.1904 40.509C21.4179 40.509 21.5649 40.656 21.6209 40.838C21.6349 40.8765 21.6384 40.922 21.6384 40.9745V41.279ZM23.9015 41.209C23.9085 41.174 23.912 41.1285 23.912 41.0655C23.912 40.754 23.7685 40.271 23.212 40.271C22.7185 40.271 22.4175 40.67 22.4175 41.181C22.4175 41.692 22.729 42.0385 23.2505 42.0385C23.52 42.0385 23.709 41.979 23.8175 41.93L23.7615 41.7095C23.6495 41.7585 23.513 41.797 23.2925 41.797C22.981 41.797 22.7185 41.6255 22.7115 41.209H23.9015ZM22.715 40.9885C22.7395 40.775 22.8725 40.4915 23.1875 40.4915C23.534 40.4915 23.618 40.796 23.6145 40.9885H22.715ZM24.2654 41.9195C24.3844 41.9895 24.5559 42.0385 24.7414 42.0385C25.1369 42.0385 25.3714 41.8285 25.3714 41.5275C25.3714 41.2755 25.2174 41.1285 24.9269 41.02C24.7064 40.9325 24.6084 40.8695 24.6084 40.7295C24.6084 40.6035 24.7064 40.4985 24.8884 40.4985C25.0459 40.4985 25.1684 40.558 25.2349 40.6L25.3084 40.376C25.2174 40.3165 25.0669 40.271 24.8954 40.271C24.5349 40.271 24.3109 40.495 24.3109 40.768C24.3109 40.971 24.4544 41.1355 24.7624 41.2475C24.9864 41.3315 25.0739 41.4085 25.0739 41.5555C25.0739 41.699 24.9689 41.8075 24.7484 41.8075C24.5944 41.8075 24.4334 41.7445 24.3389 41.6885L24.2654 41.9195ZM25.9891 40.803C26.1186 40.803 26.1991 40.7085 26.1991 40.586C26.1991 40.4565 26.1186 40.3655 25.9926 40.3655C25.8736 40.3655 25.7861 40.4565 25.7861 40.586C25.7861 40.7085 25.8701 40.803 25.9891 40.803ZM25.9891 42.0385C26.1186 42.0385 26.1991 41.944 26.1991 41.8215C26.1991 41.692 26.1186 41.601 25.9926 41.601C25.8736 41.601 25.7861 41.692 25.7861 41.8215C25.7861 41.944 25.8701 42.0385 25.9891 42.0385ZM36.6186 42.693H36.9231V41.7725H36.9301C37.0316 41.9405 37.2276 42.0385 37.4516 42.0385C37.8506 42.0385 38.2251 41.7375 38.2251 41.1285C38.2251 40.6175 37.9171 40.271 37.5041 40.271C37.2276 40.271 37.0246 40.39 36.9021 40.5965H36.8951L36.8776 40.306H36.6046C36.6116 40.467 36.6186 40.642 36.6186 40.859V42.693ZM36.9231 41.0165C36.9231 40.978 36.9336 40.9325 36.9441 40.894C37.0001 40.663 37.1996 40.516 37.4096 40.516C37.7351 40.516 37.9136 40.8065 37.9136 41.1425C37.9136 41.531 37.7246 41.797 37.3991 41.797C37.1786 41.797 36.9931 41.65 36.9371 41.4365C36.9266 41.398 36.9231 41.356 36.9231 41.3105V41.0165ZM39.0033 39.515H38.6988V42H39.0033V41.363L39.1608 41.188L39.7418 42H40.1198L39.3743 41.0025L40.0253 40.306H39.6578L39.1573 40.8905C39.1083 40.95 39.0523 41.0235 39.0103 41.083H39.0033V39.515ZM41.8759 40.768C41.8759 40.565 41.8794 40.425 41.8899 40.306H41.6169L41.6064 40.5615H41.5994C41.5224 40.4215 41.3649 40.271 41.0709 40.271C40.6789 40.271 40.3044 40.593 40.3044 41.167C40.3044 41.636 40.6054 41.993 41.0254 41.993C41.2879 41.993 41.4734 41.867 41.5644 41.7095H41.5714V41.895C41.5714 42.3255 41.3404 42.49 41.0254 42.49C40.8154 42.49 40.6404 42.427 40.5284 42.3535L40.4514 42.5915C40.5879 42.6825 40.8119 42.7315 41.0149 42.7315C41.2284 42.7315 41.4664 42.679 41.6344 42.5285C41.7954 42.378 41.8759 42.1435 41.8759 41.7515V40.768ZM41.5679 41.279C41.5679 41.3315 41.5609 41.391 41.5434 41.4435C41.4804 41.6395 41.3089 41.7585 41.1164 41.7585C40.7874 41.7585 40.6159 41.482 40.6159 41.1495C40.6159 40.7575 40.8259 40.509 41.1199 40.509C41.3474 40.509 41.4944 40.656 41.5504 40.838C41.5644 40.8765 41.5679 40.922 41.5679 40.9745V41.279ZM43.1832 41.9195C43.3022 41.9895 43.4737 42.0385 43.6592 42.0385C44.0547 42.0385 44.2892 41.8285 44.2892 41.5275C44.2892 41.2755 44.1352 41.1285 43.8447 41.02C43.6242 40.9325 43.5262 40.8695 43.5262 40.7295C43.5262 40.6035 43.6242 40.4985 43.8062 40.4985C43.9637 40.4985 44.0862 40.558 44.1527 40.6L44.2262 40.376C44.1352 40.3165 43.9847 40.271 43.8132 40.271C43.4527 40.271 43.2287 40.495 43.2287 40.768C43.2287 40.971 43.3722 41.1355 43.6802 41.2475C43.9042 41.3315 43.9917 41.4085 43.9917 41.5555C43.9917 41.699 43.8867 41.8075 43.6662 41.8075C43.5122 41.8075 43.3512 41.7445 43.2567 41.6885L43.1832 41.9195ZM46.1354 41.209C46.1424 41.174 46.1459 41.1285 46.1459 41.0655C46.1459 40.754 46.0024 40.271 45.4459 40.271C44.9524 40.271 44.6514 40.67 44.6514 41.181C44.6514 41.692 44.9629 42.0385 45.4844 42.0385C45.7539 42.0385 45.9429 41.979 46.0514 41.93L45.9954 41.7095C45.8834 41.7585 45.7469 41.797 45.5264 41.797C45.2149 41.797 44.9524 41.6255 44.9454 41.209H46.1354ZM44.9489 40.9885C44.9734 40.775 45.1064 40.4915 45.4214 40.4915C45.7679 40.4915 45.8519 40.796 45.8484 40.9885H44.9489ZM47.8048 40.9605C47.8048 40.6245 47.6788 40.271 47.1608 40.271C46.9473 40.271 46.7408 40.3305 46.6008 40.418L46.6708 40.6245C46.7898 40.544 46.9543 40.4985 47.1153 40.4985C47.4618 40.495 47.5003 40.7505 47.5003 40.887V40.922C46.8458 40.9185 46.4818 41.1425 46.4818 41.552C46.4818 41.797 46.6568 42.0385 46.9998 42.0385C47.2413 42.0385 47.4233 41.9195 47.5178 41.7865H47.5283L47.5528 42H47.8293C47.8118 41.8845 47.8048 41.741 47.8048 41.594V40.9605ZM47.5073 41.4295C47.5073 41.4575 47.5038 41.4925 47.4933 41.5275C47.4443 41.671 47.3008 41.811 47.0768 41.811C46.9228 41.811 46.7898 41.72 46.7898 41.517C46.7898 41.188 47.1713 41.1285 47.5073 41.1355V41.4295ZM49.5458 41.7095C49.4583 41.748 49.3428 41.79 49.1678 41.79C48.8318 41.79 48.5798 41.5485 48.5798 41.1565C48.5798 40.8065 48.7898 40.516 49.1783 40.516C49.3463 40.516 49.4618 40.558 49.5353 40.5965L49.6053 40.362C49.5213 40.3165 49.3603 40.271 49.1783 40.271C48.6253 40.271 48.2683 40.6525 48.2683 41.174C48.2683 41.692 48.6008 42.0385 49.1118 42.0385C49.3393 42.0385 49.5178 41.979 49.5983 41.9405L49.5458 41.7095ZM50.0471 42H50.3551V41.097C50.3551 41.048 50.3586 40.9955 50.3656 40.9535C50.4076 40.7225 50.5616 40.5615 50.7786 40.5615C50.8206 40.5615 50.8521 40.5615 50.8836 40.5685V40.278C50.8556 40.2745 50.8311 40.271 50.7996 40.271C50.5931 40.271 50.4041 40.4145 50.3271 40.642H50.3166L50.3026 40.306H50.0331C50.0436 40.4635 50.0471 40.635 50.0471 40.8345V42ZM51.2933 42H51.6013V40.978C51.6013 40.922 51.6048 40.8765 51.6223 40.831C51.6818 40.6665 51.8358 40.5265 52.0353 40.5265C52.3258 40.5265 52.4273 40.754 52.4273 41.027V42H52.7353V40.992C52.7353 40.411 52.3713 40.271 52.1438 40.271C52.0283 40.271 51.9198 40.3025 51.8288 40.355C51.7343 40.4075 51.6573 40.488 51.6083 40.5755H51.6013V39.515H51.2933V42ZM54.1269 41.1635L55.7509 42V41.7585L54.3824 41.0725V41.0655L55.7509 40.3795V40.138L54.1269 40.9745V41.1635ZM57.4789 42.693H57.7834V40.7715C57.7834 40.5965 57.7904 40.446 57.7974 40.306H57.5069L57.4964 40.5615H57.4894C57.4054 40.4005 57.2304 40.271 56.9679 40.271C56.6109 40.271 56.2014 40.5475 56.2014 41.1845C56.2014 41.699 56.5234 42.0385 56.9189 42.0385C57.1919 42.0385 57.3774 41.9055 57.4719 41.741H57.4789V42.693ZM57.4789 41.3105C57.4789 41.356 57.4684 41.4155 57.4544 41.461C57.3844 41.671 57.2129 41.7935 57.0134 41.7935C56.6739 41.7935 56.5129 41.503 56.5129 41.1635C56.5129 40.7855 56.7054 40.516 57.0239 40.516C57.2549 40.516 57.4159 40.677 57.4649 40.866C57.4754 40.9045 57.4789 40.95 57.4789 40.992V41.3105ZM59.801 40.306H59.493V41.342C59.493 41.4015 59.4825 41.4575 59.465 41.4995C59.409 41.6395 59.2655 41.783 59.059 41.783C58.7825 41.783 58.681 41.5625 58.681 41.2405V40.306H58.373V41.2965C58.373 41.888 58.6915 42.0385 58.9575 42.0385C59.2585 42.0385 59.4405 41.86 59.5175 41.7235H59.5245L59.542 42H59.815C59.8045 41.867 59.801 41.713 59.801 41.5345V40.306ZM61.7603 41.209C61.7673 41.174 61.7708 41.1285 61.7708 41.0655C61.7708 40.754 61.6273 40.271 61.0708 40.271C60.5773 40.271 60.2763 40.67 60.2763 41.181C60.2763 41.692 60.5878 42.0385 61.1093 42.0385C61.3788 42.0385 61.5678 41.979 61.6763 41.93L61.6203 41.7095C61.5083 41.7585 61.3718 41.797 61.1513 41.797C60.8398 41.797 60.5773 41.6255 60.5703 41.209H61.7603ZM60.5738 40.9885C60.5983 40.775 60.7313 40.4915 61.0463 40.4915C61.3928 40.4915 61.4768 40.796 61.4733 40.9885H60.5738ZM62.2397 42H62.5477V41.097C62.5477 41.048 62.5512 40.9955 62.5582 40.9535C62.6002 40.7225 62.7542 40.5615 62.9712 40.5615C63.0132 40.5615 63.0447 40.5615 63.0762 40.5685V40.278C63.0482 40.2745 63.0237 40.271 62.9922 40.271C62.7857 40.271 62.5967 40.4145 62.5197 40.642H62.5092L62.4952 40.306H62.2257C62.2362 40.4635 62.2397 40.635 62.2397 40.8345V42ZM63.3371 40.306L63.9601 41.867C63.9776 41.9055 63.9846 41.93 63.9846 41.9475C63.9846 41.965 63.9741 41.9895 63.9601 42.021C63.8866 42.1785 63.7851 42.2975 63.7011 42.364C63.6101 42.441 63.5086 42.49 63.4316 42.5145L63.5086 42.77C63.5856 42.756 63.7326 42.7035 63.8866 42.574C64.0966 42.3885 64.2471 42.0945 64.4676 41.5135L64.9296 40.306H64.6041L64.2681 41.3C64.2261 41.4225 64.1911 41.552 64.1596 41.6535H64.1526C64.1246 41.552 64.0826 41.419 64.0406 41.307L63.6731 40.306H63.3371ZM66.8955 40.9675L65.2715 40.138V40.3795L66.6505 41.0655V41.0725L65.2715 41.7585V42L66.8955 41.167V40.9675ZM0.2625 43.641V46H0.5705V43.641H0.2625ZM1.21458 46H1.52258V44.9815C1.52258 44.929 1.52958 44.8765 1.54358 44.838C1.59958 44.6665 1.75708 44.523 1.95658 44.523C2.24708 44.523 2.34858 44.7505 2.34858 45.0235V46H2.65658V44.992C2.65658 44.411 2.29258 44.271 2.05808 44.271C1.77808 44.271 1.58208 44.4285 1.49808 44.586H1.49108L1.47358 44.306H1.20058C1.21108 44.446 1.21458 44.586 1.21458 44.7645V46ZM3.12799 45.9195C3.24699 45.9895 3.41849 46.0385 3.60399 46.0385C3.99949 46.0385 4.23399 45.8285 4.23399 45.5275C4.23399 45.2755 4.07999 45.1285 3.78949 45.02C3.56899 44.9325 3.47099 44.8695 3.47099 44.7295C3.47099 44.6035 3.56899 44.4985 3.75099 44.4985C3.90849 44.4985 4.03099 44.558 4.09749 44.6L4.17099 44.376C4.07999 44.3165 3.92949 44.271 3.75799 44.271C3.39749 44.271 3.17349 44.495 3.17349 44.768C3.17349 44.971 3.31699 45.1355 3.62499 45.2475C3.84899 45.3315 3.93649 45.4085 3.93649 45.5555C3.93649 45.699 3.83149 45.8075 3.61099 45.8075C3.45699 45.8075 3.29599 45.7445 3.20149 45.6885L3.12799 45.9195ZM4.78868 43.991V44.306H4.52618V44.5405H4.78868V45.4645C4.78868 45.664 4.82368 45.8145 4.90768 45.909C4.98118 45.9895 5.09668 46.0385 5.24018 46.0385C5.35918 46.0385 5.45368 46.0175 5.51318 45.9965L5.49918 45.762C5.45368 45.776 5.40468 45.783 5.32068 45.783C5.14918 45.783 5.08968 45.664 5.08968 45.454V44.5405H5.53068V44.306H5.08968V43.9L4.78868 43.991ZM7.15487 44.9605C7.15487 44.6245 7.02887 44.271 6.51087 44.271C6.29737 44.271 6.09087 44.3305 5.95087 44.418L6.02087 44.6245C6.13987 44.544 6.30437 44.4985 6.46537 44.4985C6.81188 44.495 6.85037 44.7505 6.85037 44.887V44.922C6.19587 44.9185 5.83187 45.1425 5.83187 45.552C5.83187 45.797 6.00687 46.0385 6.34987 46.0385C6.59137 46.0385 6.77337 45.9195 6.86788 45.7865H6.87837L6.90287 46H7.17937C7.16187 45.8845 7.15487 45.741 7.15487 45.594V44.9605ZM6.85737 45.4295C6.85737 45.4575 6.85387 45.4925 6.84337 45.5275C6.79437 45.671 6.65087 45.811 6.42687 45.811C6.27287 45.811 6.13987 45.72 6.13987 45.517C6.13987 45.188 6.52137 45.1285 6.85737 45.1355V45.4295ZM7.74085 46H8.04885V43.515H7.74085V46ZM8.6555 46H8.9635V43.515H8.6555V46ZM11.5893 44.9605C11.5893 44.6245 11.4633 44.271 10.9453 44.271C10.7318 44.271 10.5253 44.3305 10.3853 44.418L10.4553 44.6245C10.5743 44.544 10.7388 44.4985 10.8998 44.4985C11.2463 44.495 11.2848 44.7505 11.2848 44.887V44.922C10.6303 44.9185 10.2663 45.1425 10.2663 45.552C10.2663 45.797 10.4413 46.0385 10.7843 46.0385C11.0258 46.0385 11.2078 45.9195 11.3023 45.7865H11.3128L11.3373 46H11.6138C11.5963 45.8845 11.5893 45.741 11.5893 45.594V44.9605ZM11.2918 45.4295C11.2918 45.4575 11.2883 45.4925 11.2778 45.5275C11.2288 45.671 11.0853 45.811 10.8613 45.811C10.7073 45.811 10.5743 45.72 10.5743 45.517C10.5743 45.188 10.9558 45.1285 11.2918 45.1355V45.4295ZM13.0045 46.693H13.309V45.7725H13.316C13.4175 45.9405 13.6135 46.0385 13.8375 46.0385C14.2365 46.0385 14.611 45.7375 14.611 45.1285C14.611 44.6175 14.303 44.271 13.89 44.271C13.6135 44.271 13.4105 44.39 13.288 44.5965H13.281L13.2635 44.306H12.9905C12.9975 44.467 13.0045 44.642 13.0045 44.859V46.693ZM13.309 45.0165C13.309 44.978 13.3195 44.9325 13.33 44.894C13.386 44.663 13.5855 44.516 13.7955 44.516C14.121 44.516 14.2995 44.8065 14.2995 45.1425C14.2995 45.531 14.1105 45.797 13.785 45.797C13.5645 45.797 13.379 45.65 13.323 45.4365C13.3125 45.398 13.309 45.356 13.309 45.3105V45.0165ZM16.2747 44.9605C16.2747 44.6245 16.1487 44.271 15.6307 44.271C15.4172 44.271 15.2107 44.3305 15.0707 44.418L15.1407 44.6245C15.2597 44.544 15.4242 44.4985 15.5852 44.4985C15.9317 44.495 15.9702 44.7505 15.9702 44.887V44.922C15.3157 44.9185 14.9517 45.1425 14.9517 45.552C14.9517 45.797 15.1267 46.0385 15.4697 46.0385C15.7112 46.0385 15.8932 45.9195 15.9877 45.7865H15.9982L16.0227 46H16.2992C16.2817 45.8845 16.2747 45.741 16.2747 45.594V44.9605ZM15.9772 45.4295C15.9772 45.4575 15.9737 45.4925 15.9632 45.5275C15.9142 45.671 15.7707 45.811 15.5467 45.811C15.3927 45.811 15.2597 45.72 15.2597 45.517C15.2597 45.188 15.6412 45.1285 15.9772 45.1355V45.4295ZM18.0157 45.7095C17.9282 45.748 17.8127 45.79 17.6377 45.79C17.3017 45.79 17.0497 45.5485 17.0497 45.1565C17.0497 44.8065 17.2597 44.516 17.6482 44.516C17.8162 44.516 17.9317 44.558 18.0052 44.5965L18.0752 44.362C17.9912 44.3165 17.8302 44.271 17.6482 44.271C17.0952 44.271 16.7382 44.6525 16.7382 45.174C16.7382 45.692 17.0707 46.0385 17.5817 46.0385C17.8092 46.0385 17.9877 45.979 18.0682 45.9405L18.0157 45.7095ZM18.8215 43.515H18.517V46H18.8215V45.363L18.979 45.188L19.56 46H19.938L19.1925 45.0025L19.8435 44.306H19.476L18.9755 44.8905C18.9265 44.95 18.8705 45.0235 18.8285 45.083H18.8215V43.515ZM21.4967 44.9605C21.4967 44.6245 21.3707 44.271 20.8527 44.271C20.6392 44.271 20.4327 44.3305 20.2927 44.418L20.3627 44.6245C20.4817 44.544 20.6462 44.4985 20.8072 44.4985C21.1537 44.495 21.1922 44.7505 21.1922 44.887V44.922C20.5377 44.9185 20.1737 45.1425 20.1737 45.552C20.1737 45.797 20.3487 46.0385 20.6917 46.0385C20.9332 46.0385 21.1152 45.9195 21.2097 45.7865H21.2202L21.2447 46H21.5212C21.5037 45.8845 21.4967 45.741 21.4967 45.594V44.9605ZM21.1992 45.4295C21.1992 45.4575 21.1957 45.4925 21.1852 45.5275C21.1362 45.671 20.9927 45.811 20.7687 45.811C20.6147 45.811 20.4817 45.72 20.4817 45.517C20.4817 45.188 20.8632 45.1285 21.1992 45.1355V45.4295ZM23.5316 44.768C23.5316 44.565 23.5351 44.425 23.5456 44.306H23.2726L23.2621 44.5615H23.2551C23.1781 44.4215 23.0206 44.271 22.7266 44.271C22.3346 44.271 21.9601 44.593 21.9601 45.167C21.9601 45.636 22.2611 45.993 22.6811 45.993C22.9436 45.993 23.1291 45.867 23.2201 45.7095H23.2271V45.895C23.2271 46.3255 22.9961 46.49 22.6811 46.49C22.4711 46.49 22.2961 46.427 22.1841 46.3535L22.1071 46.5915C22.2436 46.6825 22.4676 46.7315 22.6706 46.7315C22.8841 46.7315 23.1221 46.679 23.2901 46.5285C23.4511 46.378 23.5316 46.1435 23.5316 45.7515V44.768ZM23.2236 45.279C23.2236 45.3315 23.2166 45.391 23.1991 45.4435C23.1361 45.6395 22.9646 45.7585 22.7721 45.7585C22.4431 45.7585 22.2716 45.482 22.2716 45.1495C22.2716 44.7575 22.4816 44.509 22.7756 44.509C23.0031 44.509 23.1501 44.656 23.2061 44.838C23.2201 44.8765 23.2236 44.922 23.2236 44.9745V45.279ZM25.4867 45.209C25.4937 45.174 25.4972 45.1285 25.4972 45.0655C25.4972 44.754 25.3537 44.271 24.7972 44.271C24.3037 44.271 24.0027 44.67 24.0027 45.181C24.0027 45.692 24.3142 46.0385 24.8357 46.0385C25.1052 46.0385 25.2942 45.979 25.4027 45.93L25.3467 45.7095C25.2347 45.7585 25.0982 45.797 24.8777 45.797C24.5662 45.797 24.3037 45.6255 24.2967 45.209H25.4867ZM24.3002 44.9885C24.3247 44.775 24.4577 44.4915 24.7727 44.4915C25.1192 44.4915 25.2032 44.796 25.1997 44.9885H24.3002ZM26.0991 44.803C26.2286 44.803 26.3091 44.7085 26.3091 44.586C26.3091 44.4565 26.2286 44.3655 26.1026 44.3655C25.9836 44.3655 25.8961 44.4565 25.8961 44.586C25.8961 44.7085 25.9801 44.803 26.0991 44.803ZM26.0991 46.0385C26.2286 46.0385 26.3091 45.944 26.3091 45.8215C26.3091 45.692 26.2286 45.601 26.1026 45.601C25.9836 45.601 25.8961 45.692 25.8961 45.8215C25.8961 45.944 25.9801 46.0385 26.0991 46.0385ZM36.7286 46.693H37.0331V45.7725H37.0401C37.1416 45.9405 37.3376 46.0385 37.5616 46.0385C37.9606 46.0385 38.3351 45.7375 38.3351 45.1285C38.3351 44.6175 38.0271 44.271 37.6141 44.271C37.3376 44.271 37.1346 44.39 37.0121 44.5965H37.0051L36.9876 44.306H36.7146C36.7216 44.467 36.7286 44.642 36.7286 44.859V46.693ZM37.0331 45.0165C37.0331 44.978 37.0436 44.9325 37.0541 44.894C37.1101 44.663 37.3096 44.516 37.5196 44.516C37.8451 44.516 38.0236 44.8065 38.0236 45.1425C38.0236 45.531 37.8346 45.797 37.5091 45.797C37.2886 45.797 37.1031 45.65 37.0471 45.4365C37.0366 45.398 37.0331 45.356 37.0331 45.3105V45.0165ZM39.1133 43.515H38.8088V46H39.1133V45.363L39.2708 45.188L39.8518 46H40.2298L39.4843 45.0025L40.1353 44.306H39.7678L39.2673 44.8905C39.2183 44.95 39.1623 45.0235 39.1203 45.083H39.1133V43.515ZM41.9859 44.768C41.9859 44.565 41.9894 44.425 41.9999 44.306H41.7269L41.7164 44.5615H41.7094C41.6324 44.4215 41.4749 44.271 41.1809 44.271C40.7889 44.271 40.4144 44.593 40.4144 45.167C40.4144 45.636 40.7154 45.993 41.1354 45.993C41.3979 45.993 41.5834 45.867 41.6744 45.7095H41.6814V45.895C41.6814 46.3255 41.4504 46.49 41.1354 46.49C40.9254 46.49 40.7504 46.427 40.6384 46.3535L40.5614 46.5915C40.6979 46.6825 40.9219 46.7315 41.1249 46.7315C41.3384 46.7315 41.5764 46.679 41.7444 46.5285C41.9054 46.378 41.9859 46.1435 41.9859 45.7515V44.768ZM41.6779 45.279C41.6779 45.3315 41.6709 45.391 41.6534 45.4435C41.5904 45.6395 41.4189 45.7585 41.2264 45.7585C40.8974 45.7585 40.7259 45.482 40.7259 45.1495C40.7259 44.7575 40.9359 44.509 41.2299 44.509C41.4574 44.509 41.6044 44.656 41.6604 44.838C41.6744 44.8765 41.6779 44.922 41.6779 44.9745V45.279ZM43.7167 46V44.306H43.4087V46H43.7167ZM43.5627 43.6375C43.4472 43.6375 43.3702 43.725 43.3702 43.83C43.3702 43.935 43.4437 44.019 43.5557 44.019C43.6782 44.019 43.7517 43.935 43.7517 43.83C43.7517 43.7215 43.6747 43.6375 43.5627 43.6375ZM44.3165 46H44.6245V44.9815C44.6245 44.929 44.6315 44.8765 44.6455 44.838C44.7015 44.6665 44.859 44.523 45.0585 44.523C45.349 44.523 45.4505 44.7505 45.4505 45.0235V46H45.7585V44.992C45.7585 44.411 45.3945 44.271 45.16 44.271C44.88 44.271 44.684 44.4285 44.6 44.586H44.593L44.5755 44.306H44.3025C44.313 44.446 44.3165 44.586 44.3165 44.7645V46ZM46.2299 45.9195C46.3489 45.9895 46.5204 46.0385 46.7059 46.0385C47.1014 46.0385 47.3359 45.8285 47.3359 45.5275C47.3359 45.2755 47.1819 45.1285 46.8914 45.02C46.6709 44.9325 46.5729 44.8695 46.5729 44.7295C46.5729 44.6035 46.6709 44.4985 46.8529 44.4985C47.0104 44.4985 47.1329 44.558 47.1994 44.6L47.2729 44.376C47.1819 44.3165 47.0314 44.271 46.8599 44.271C46.4994 44.271 46.2754 44.495 46.2754 44.768C46.2754 44.971 46.4189 45.1355 46.7269 45.2475C46.9509 45.3315 47.0384 45.4085 47.0384 45.5555C47.0384 45.699 46.9334 45.8075 46.7129 45.8075C46.5589 45.8075 46.3979 45.7445 46.3034 45.6885L46.2299 45.9195ZM47.8906 43.991V44.306H47.6281V44.5405H47.8906V45.4645C47.8906 45.664 47.9256 45.8145 48.0096 45.909C48.0831 45.9895 48.1986 46.0385 48.3421 46.0385C48.4611 46.0385 48.5556 46.0175 48.6151 45.9965L48.6011 45.762C48.5556 45.776 48.5066 45.783 48.4226 45.783C48.2511 45.783 48.1916 45.664 48.1916 45.454V44.5405H48.6326V44.306H48.1916V43.9L47.8906 43.991ZM50.2568 44.9605C50.2568 44.6245 50.1308 44.271 49.6128 44.271C49.3993 44.271 49.1928 44.3305 49.0528 44.418L49.1228 44.6245C49.2418 44.544 49.4063 44.4985 49.5673 44.4985C49.9138 44.495 49.9523 44.7505 49.9523 44.887V44.922C49.2978 44.9185 48.9338 45.1425 48.9338 45.552C48.9338 45.797 49.1088 46.0385 49.4518 46.0385C49.6933 46.0385 49.8753 45.9195 49.9698 45.7865H49.9803L50.0048 46H50.2813C50.2638 45.8845 50.2568 45.741 50.2568 45.594V44.9605ZM49.9593 45.4295C49.9593 45.4575 49.9558 45.4925 49.9453 45.5275C49.8963 45.671 49.7528 45.811 49.5288 45.811C49.3748 45.811 49.2418 45.72 49.2418 45.517C49.2418 45.188 49.6233 45.1285 49.9593 45.1355V45.4295ZM50.8428 46H51.1508V43.515H50.8428V46ZM51.7575 46H52.0655V43.515H51.7575V46ZM53.4768 45.1635L55.1008 46V45.7585L53.7323 45.0725V45.0655L55.1008 44.3795V44.138L53.4768 44.9745V45.1635ZM55.6738 46.693H55.9783V45.7725H55.9853C56.0868 45.9405 56.2828 46.0385 56.5068 46.0385C56.9058 46.0385 57.2803 45.7375 57.2803 45.1285C57.2803 44.6175 56.9723 44.271 56.5593 44.271C56.2828 44.271 56.0798 44.39 55.9573 44.5965H55.9503L55.9328 44.306H55.6598C55.6668 44.467 55.6738 44.642 55.6738 44.859V46.693ZM55.9783 45.0165C55.9783 44.978 55.9888 44.9325 55.9993 44.894C56.0553 44.663 56.2548 44.516 56.4648 44.516C56.7903 44.516 56.9688 44.8065 56.9688 45.1425C56.9688 45.531 56.7798 45.797 56.4543 45.797C56.2338 45.797 56.0483 45.65 55.9923 45.4365C55.9818 45.398 55.9783 45.356 55.9783 45.3105V45.0165ZM58.9439 44.9605C58.9439 44.6245 58.8179 44.271 58.2999 44.271C58.0864 44.271 57.8799 44.3305 57.7399 44.418L57.8099 44.6245C57.9289 44.544 58.0934 44.4985 58.2544 44.4985C58.6009 44.495 58.6394 44.7505 58.6394 44.887V44.922C57.9849 44.9185 57.6209 45.1425 57.6209 45.552C57.6209 45.797 57.7959 46.0385 58.1389 46.0385C58.3804 46.0385 58.5624 45.9195 58.6569 45.7865H58.6674L58.6919 46H58.9684C58.9509 45.8845 58.9439 45.741 58.9439 45.594V44.9605ZM58.6464 45.4295C58.6464 45.4575 58.6429 45.4925 58.6324 45.5275C58.5834 45.671 58.4399 45.811 58.2159 45.811C58.0619 45.811 57.9289 45.72 57.9289 45.517C57.9289 45.188 58.3104 45.1285 58.6464 45.1355V45.4295ZM60.6849 45.7095C60.5974 45.748 60.4819 45.79 60.3069 45.79C59.9709 45.79 59.7189 45.5485 59.7189 45.1565C59.7189 44.8065 59.9289 44.516 60.3174 44.516C60.4854 44.516 60.6009 44.558 60.6744 44.5965L60.7444 44.362C60.6604 44.3165 60.4994 44.271 60.3174 44.271C59.7644 44.271 59.4074 44.6525 59.4074 45.174C59.4074 45.692 59.7399 46.0385 60.2509 46.0385C60.4784 46.0385 60.6569 45.979 60.7374 45.9405L60.6849 45.7095ZM61.4908 43.515H61.1863V46H61.4908V45.363L61.6483 45.188L62.2293 46H62.6073L61.8618 45.0025L62.5128 44.306H62.1453L61.6448 44.8905C61.5958 44.95 61.5398 45.0235 61.4978 45.083H61.4908V43.515ZM64.1659 44.9605C64.1659 44.6245 64.0399 44.271 63.5219 44.271C63.3084 44.271 63.1019 44.3305 62.9619 44.418L63.0319 44.6245C63.1509 44.544 63.3154 44.4985 63.4764 44.4985C63.8229 44.495 63.8614 44.7505 63.8614 44.887V44.922C63.2069 44.9185 62.8429 45.1425 62.8429 45.552C62.8429 45.797 63.0179 46.0385 63.3609 46.0385C63.6024 46.0385 63.7844 45.9195 63.8789 45.7865H63.8894L63.9139 46H64.1904C64.1729 45.8845 64.1659 45.741 64.1659 45.594V44.9605ZM63.8684 45.4295C63.8684 45.4575 63.8649 45.4925 63.8544 45.5275C63.8054 45.671 63.6619 45.811 63.4379 45.811C63.2839 45.811 63.1509 45.72 63.1509 45.517C63.1509 45.188 63.5324 45.1285 63.8684 45.1355V45.4295ZM66.2009 44.768C66.2009 44.565 66.2044 44.425 66.2149 44.306H65.9419L65.9314 44.5615H65.9244C65.8474 44.4215 65.6899 44.271 65.3959 44.271C65.0039 44.271 64.6294 44.593 64.6294 45.167C64.6294 45.636 64.9304 45.993 65.3504 45.993C65.6129 45.993 65.7984 45.867 65.8894 45.7095H65.8964V45.895C65.8964 46.3255 65.6654 46.49 65.3504 46.49C65.1404 46.49 64.9654 46.427 64.8534 46.3535L64.7764 46.5915C64.9129 46.6825 65.1369 46.7315 65.3399 46.7315C65.5534 46.7315 65.7914 46.679 65.9594 46.5285C66.1204 46.378 66.2009 46.1435 66.2009 45.7515V44.768ZM65.8929 45.279C65.8929 45.3315 65.8859 45.391 65.8684 45.4435C65.8054 45.6395 65.6339 45.7585 65.4414 45.7585C65.1124 45.7585 64.9409 45.482 64.9409 45.1495C64.9409 44.7575 65.1509 44.509 65.4449 44.509C65.6724 44.509 65.8194 44.656 65.8754 44.838C65.8894 44.8765 65.8929 44.922 65.8929 44.9745V45.279ZM68.156 45.209C68.163 45.174 68.1665 45.1285 68.1665 45.0655C68.1665 44.754 68.023 44.271 67.4665 44.271C66.973 44.271 66.672 44.67 66.672 45.181C66.672 45.692 66.9835 46.0385 67.505 46.0385C67.7745 46.0385 67.9635 45.979 68.072 45.93L68.016 45.7095C67.904 45.7585 67.7675 45.797 67.547 45.797C67.2355 45.797 66.973 45.6255 66.966 45.209H68.156ZM66.9695 44.9885C66.994 44.775 67.127 44.4915 67.442 44.4915C67.7885 44.4915 67.8725 44.796 67.869 44.9885H66.9695ZM70.2349 44.9675L68.6109 44.138V44.3795L69.9899 45.0655V45.0725L68.6109 45.7585V46L70.2349 45.167V44.9675ZM0.2625 47.641V49.0305C0.2625 49.7655 0.6265 50.0385 1.1095 50.0385C1.6205 50.0385 2.002 49.7445 2.002 49.02V47.641H1.694V49.041C1.694 49.559 1.4665 49.79 1.12 49.79C0.805 49.79 0.5705 49.566 0.5705 49.041V47.641H0.2625ZM2.60911 50.693H2.91361V49.7725H2.92061C3.02211 49.9405 3.21811 50.0385 3.44211 50.0385C3.84111 50.0385 4.21561 49.7375 4.21561 49.1285C4.21561 48.6175 3.90761 48.271 3.49461 48.271C3.21811 48.271 3.01511 48.39 2.89261 48.5965H2.88561L2.86811 48.306H2.59511C2.60211 48.467 2.60911 48.642 2.60911 48.859V50.693ZM2.91361 49.0165C2.91361 48.978 2.92411 48.9325 2.93461 48.894C2.99061 48.663 3.19011 48.516 3.40011 48.516C3.72561 48.516 3.90411 48.8065 3.90411 49.1425C3.90411 49.531 3.71511 49.797 3.38961 49.797C3.16911 49.797 2.98361 49.65 2.92761 49.4365C2.91711 49.398 2.91361 49.356 2.91361 49.3105V49.0165ZM6.13829 48.768C6.13829 48.565 6.14179 48.425 6.15229 48.306H5.87929L5.86879 48.5615H5.86179C5.78479 48.4215 5.62729 48.271 5.33329 48.271C4.94129 48.271 4.56679 48.593 4.56679 49.167C4.56679 49.636 4.86779 49.993 5.28779 49.993C5.55029 49.993 5.73579 49.867 5.82679 49.7095H5.83379V49.895C5.83379 50.3255 5.60279 50.49 5.28779 50.49C5.07779 50.49 4.90279 50.427 4.79079 50.3535L4.71379 50.5915C4.85029 50.6825 5.07429 50.7315 5.27729 50.7315C5.49079 50.7315 5.72879 50.679 5.89679 50.5285C6.05779 50.378 6.13829 50.1435 6.13829 49.7515V48.768ZM5.83029 49.279C5.83029 49.3315 5.82329 49.391 5.80579 49.4435C5.74279 49.6395 5.57129 49.7585 5.37879 49.7585C5.04979 49.7585 4.87829 49.482 4.87829 49.1495C4.87829 48.7575 5.08829 48.509 5.38229 48.509C5.60979 48.509 5.75679 48.656 5.81279 48.838C5.82679 48.8765 5.83029 48.922 5.83029 48.9745V49.279ZM6.71136 50H7.01936V49.097C7.01936 49.048 7.02286 48.9955 7.02986 48.9535C7.07186 48.7225 7.22586 48.5615 7.44286 48.5615C7.48486 48.5615 7.51636 48.5615 7.54786 48.5685V48.278C7.51986 48.2745 7.49536 48.271 7.46386 48.271C7.25736 48.271 7.06836 48.4145 6.99136 48.642H6.98086L6.96686 48.306H6.69736C6.70786 48.4635 6.71136 48.635 6.71136 48.8345V50ZM9.11679 48.9605C9.11679 48.6245 8.99079 48.271 8.47279 48.271C8.25929 48.271 8.05279 48.3305 7.91279 48.418L7.98279 48.6245C8.10179 48.544 8.26629 48.4985 8.42729 48.4985C8.77379 48.495 8.81229 48.7505 8.81229 48.887V48.922C8.15779 48.9185 7.79379 49.1425 7.79379 49.552C7.79379 49.797 7.96879 50.0385 8.31179 50.0385C8.55329 50.0385 8.73529 49.9195 8.82979 49.7865H8.84029L8.86479 50H9.14129C9.12379 49.8845 9.11679 49.741 9.11679 49.594V48.9605ZM8.81929 49.4295C8.81929 49.4575 8.81579 49.4925 8.80529 49.5275C8.75629 49.671 8.61279 49.811 8.38879 49.811C8.23479 49.811 8.10179 49.72 8.10179 49.517C8.10179 49.188 8.48329 49.1285 8.81929 49.1355V49.4295ZM10.8578 47.515V48.5265H10.8508C10.7738 48.3935 10.6023 48.271 10.3398 48.271C9.93027 48.271 9.57677 48.614 9.58027 49.1775C9.58027 49.692 9.89877 50.0385 10.3083 50.0385C10.5848 50.0385 10.7878 49.895 10.8788 49.706H10.8893L10.9033 50H11.1763C11.1693 49.8845 11.1623 49.713 11.1623 49.5625V47.515H10.8578ZM10.8578 49.2895C10.8578 49.3385 10.8543 49.3805 10.8438 49.4225C10.7878 49.65 10.5988 49.79 10.3923 49.79C10.0633 49.79 9.89177 49.5065 9.89177 49.1635C9.89177 48.7925 10.0808 48.5125 10.3993 48.5125C10.6303 48.5125 10.7983 48.6735 10.8438 48.866C10.8543 48.9045 10.8578 48.957 10.8578 48.9955V49.2895ZM13.1274 49.209C13.1344 49.174 13.1379 49.1285 13.1379 49.0655C13.1379 48.754 12.9944 48.271 12.4379 48.271C11.9444 48.271 11.6434 48.67 11.6434 49.181C11.6434 49.692 11.9549 50.0385 12.4764 50.0385C12.7459 50.0385 12.9349 49.979 13.0434 49.93L12.9874 49.7095C12.8754 49.7585 12.7389 49.797 12.5184 49.797C12.2069 49.797 11.9444 49.6255 11.9374 49.209H13.1274ZM11.9409 48.9885C11.9654 48.775 12.0984 48.4915 12.4134 48.4915C12.7599 48.4915 12.8439 48.796 12.8404 48.9885H11.9409ZM14.436 50.693H14.7405V49.7725H14.7475C14.849 49.9405 15.045 50.0385 15.269 50.0385C15.668 50.0385 16.0425 49.7375 16.0425 49.1285C16.0425 48.6175 15.7345 48.271 15.3215 48.271C15.045 48.271 14.842 48.39 14.7195 48.5965H14.7125L14.695 48.306H14.422C14.429 48.467 14.436 48.642 14.436 48.859V50.693ZM14.7405 49.0165C14.7405 48.978 14.751 48.9325 14.7615 48.894C14.8175 48.663 15.017 48.516 15.227 48.516C15.5525 48.516 15.731 48.8065 15.731 49.1425C15.731 49.531 15.542 49.797 15.2165 49.797C14.996 49.797 14.8105 49.65 14.7545 49.4365C14.744 49.398 14.7405 49.356 14.7405 49.3105V49.0165ZM17.7061 48.9605C17.7061 48.6245 17.5801 48.271 17.0621 48.271C16.8486 48.271 16.6421 48.3305 16.5021 48.418L16.5721 48.6245C16.6911 48.544 16.8556 48.4985 17.0166 48.4985C17.3631 48.495 17.4016 48.7505 17.4016 48.887V48.922C16.7471 48.9185 16.3831 49.1425 16.3831 49.552C16.3831 49.797 16.5581 50.0385 16.9011 50.0385C17.1426 50.0385 17.3246 49.9195 17.4191 49.7865H17.4296L17.4541 50H17.7306C17.7131 49.8845 17.7061 49.741 17.7061 49.594V48.9605ZM17.4086 49.4295C17.4086 49.4575 17.4051 49.4925 17.3946 49.5275C17.3456 49.671 17.2021 49.811 16.9781 49.811C16.8241 49.811 16.6911 49.72 16.6911 49.517C16.6911 49.188 17.0726 49.1285 17.4086 49.1355V49.4295ZM19.4471 49.7095C19.3596 49.748 19.2441 49.79 19.0691 49.79C18.7331 49.79 18.4811 49.5485 18.4811 49.1565C18.4811 48.8065 18.6911 48.516 19.0796 48.516C19.2476 48.516 19.3631 48.558 19.4366 48.5965L19.5066 48.362C19.4226 48.3165 19.2616 48.271 19.0796 48.271C18.5266 48.271 18.1696 48.6525 18.1696 49.174C18.1696 49.692 18.5021 50.0385 19.0131 50.0385C19.2406 50.0385 19.4191 49.979 19.4996 49.9405L19.4471 49.7095ZM20.253 47.515H19.9485V50H20.253V49.363L20.4105 49.188L20.9915 50H21.3695L20.624 49.0025L21.275 48.306H20.9075L20.407 48.8905C20.358 48.95 20.302 49.0235 20.26 49.083H20.253V47.515ZM22.9281 48.9605C22.9281 48.6245 22.8021 48.271 22.2841 48.271C22.0706 48.271 21.8641 48.3305 21.7241 48.418L21.7941 48.6245C21.9131 48.544 22.0776 48.4985 22.2386 48.4985C22.5851 48.495 22.6236 48.7505 22.6236 48.887V48.922C21.9691 48.9185 21.6051 49.1425 21.6051 49.552C21.6051 49.797 21.7801 50.0385 22.1231 50.0385C22.3646 50.0385 22.5466 49.9195 22.6411 49.7865H22.6516L22.6761 50H22.9526C22.9351 49.8845 22.9281 49.741 22.9281 49.594V48.9605ZM22.6306 49.4295C22.6306 49.4575 22.6271 49.4925 22.6166 49.5275C22.5676 49.671 22.4241 49.811 22.2001 49.811C22.0461 49.811 21.9131 49.72 21.9131 49.517C21.9131 49.188 22.2946 49.1285 22.6306 49.1355V49.4295ZM24.9631 48.768C24.9631 48.565 24.9666 48.425 24.9771 48.306H24.7041L24.6936 48.5615H24.6866C24.6096 48.4215 24.4521 48.271 24.1581 48.271C23.7661 48.271 23.3916 48.593 23.3916 49.167C23.3916 49.636 23.6926 49.993 24.1126 49.993C24.3751 49.993 24.5606 49.867 24.6516 49.7095H24.6586V49.895C24.6586 50.3255 24.4276 50.49 24.1126 50.49C23.9026 50.49 23.7276 50.427 23.6156 50.3535L23.5386 50.5915C23.6751 50.6825 23.8991 50.7315 24.1021 50.7315C24.3156 50.7315 24.5536 50.679 24.7216 50.5285C24.8826 50.378 24.9631 50.1435 24.9631 49.7515V48.768ZM24.6551 49.279C24.6551 49.3315 24.6481 49.391 24.6306 49.4435C24.5676 49.6395 24.3961 49.7585 24.2036 49.7585C23.8746 49.7585 23.7031 49.482 23.7031 49.1495C23.7031 48.7575 23.9131 48.509 24.2071 48.509C24.4346 48.509 24.5816 48.656 24.6376 48.838C24.6516 48.8765 24.6551 48.922 24.6551 48.9745V49.279ZM26.9182 49.209C26.9252 49.174 26.9287 49.1285 26.9287 49.0655C26.9287 48.754 26.7852 48.271 26.2287 48.271C25.7352 48.271 25.4342 48.67 25.4342 49.181C25.4342 49.692 25.7457 50.0385 26.2672 50.0385C26.5367 50.0385 26.7257 49.979 26.8342 49.93L26.7782 49.7095C26.6662 49.7585 26.5297 49.797 26.3092 49.797C25.9977 49.797 25.7352 49.6255 25.7282 49.209H26.9182ZM25.7317 48.9885C25.7562 48.775 25.8892 48.4915 26.2042 48.4915C26.5507 48.4915 26.6347 48.796 26.6312 48.9885H25.7317ZM27.2821 49.9195C27.4011 49.9895 27.5726 50.0385 27.7581 50.0385C28.1536 50.0385 28.3881 49.8285 28.3881 49.5275C28.3881 49.2755 28.2341 49.1285 27.9436 49.02C27.7231 48.9325 27.6251 48.8695 27.6251 48.7295C27.6251 48.6035 27.7231 48.4985 27.9051 48.4985C28.0626 48.4985 28.1851 48.558 28.2516 48.6L28.3251 48.376C28.2341 48.3165 28.0836 48.271 27.9121 48.271C27.5516 48.271 27.3276 48.495 27.3276 48.768C27.3276 48.971 27.4711 49.1355 27.7791 49.2475C28.0031 49.3315 28.0906 49.4085 28.0906 49.5555C28.0906 49.699 27.9856 49.8075 27.7651 49.8075C27.6111 49.8075 27.4501 49.7445 27.3556 49.6885L27.2821 49.9195ZM29.0058 48.803C29.1353 48.803 29.2158 48.7085 29.2158 48.586C29.2158 48.4565 29.1353 48.3655 29.0093 48.3655C28.8903 48.3655 28.8028 48.4565 28.8028 48.586C28.8028 48.7085 28.8868 48.803 29.0058 48.803ZM29.0058 50.0385C29.1353 50.0385 29.2158 49.944 29.2158 49.8215C29.2158 49.692 29.1353 49.601 29.0093 49.601C28.8903 49.601 28.8028 49.692 28.8028 49.8215C28.8028 49.944 28.8868 50.0385 29.0058 50.0385ZM36.3185 50.693H36.623V49.7725H36.63C36.7315 49.9405 36.9275 50.0385 37.1515 50.0385C37.5505 50.0385 37.925 49.7375 37.925 49.1285C37.925 48.6175 37.617 48.271 37.204 48.271C36.9275 48.271 36.7245 48.39 36.602 48.5965H36.595L36.5775 48.306H36.3045C36.3115 48.467 36.3185 48.642 36.3185 48.859V50.693ZM36.623 49.0165C36.623 48.978 36.6335 48.9325 36.644 48.894C36.7 48.663 36.8995 48.516 37.1095 48.516C37.435 48.516 37.6135 48.8065 37.6135 49.1425C37.6135 49.531 37.4245 49.797 37.099 49.797C36.8785 49.797 36.693 49.65 36.637 49.4365C36.6265 49.398 36.623 49.356 36.623 49.3105V49.0165ZM38.7032 47.515H38.3987V50H38.7032V49.363L38.8607 49.188L39.4417 50H39.8197L39.0742 49.0025L39.7252 48.306H39.3577L38.8572 48.8905C38.8082 48.95 38.7522 49.0235 38.7102 49.083H38.7032V47.515ZM41.5758 48.768C41.5758 48.565 41.5793 48.425 41.5898 48.306H41.3168L41.3063 48.5615H41.2993C41.2223 48.4215 41.0648 48.271 40.7708 48.271C40.3788 48.271 40.0043 48.593 40.0043 49.167C40.0043 49.636 40.3053 49.993 40.7253 49.993C40.9878 49.993 41.1733 49.867 41.2643 49.7095H41.2713V49.895C41.2713 50.3255 41.0403 50.49 40.7253 50.49C40.5153 50.49 40.3403 50.427 40.2283 50.3535L40.1513 50.5915C40.2878 50.6825 40.5118 50.7315 40.7148 50.7315C40.9283 50.7315 41.1663 50.679 41.3343 50.5285C41.4953 50.378 41.5758 50.1435 41.5758 49.7515V48.768ZM41.2678 49.279C41.2678 49.3315 41.2608 49.391 41.2433 49.4435C41.1803 49.6395 41.0088 49.7585 40.8163 49.7585C40.4873 49.7585 40.3158 49.482 40.3158 49.1495C40.3158 48.7575 40.5258 48.509 40.8198 48.509C41.0473 48.509 41.1943 48.656 41.2503 48.838C41.2643 48.8765 41.2678 48.922 41.2678 48.9745V49.279ZM44.4161 48.306H44.1081V49.342C44.1081 49.4015 44.0976 49.4575 44.0801 49.4995C44.0241 49.6395 43.8806 49.783 43.6741 49.783C43.3976 49.783 43.2961 49.5625 43.2961 49.2405V48.306H42.9881V49.2965C42.9881 49.888 43.3066 50.0385 43.5726 50.0385C43.8736 50.0385 44.0556 49.86 44.1326 49.7235H44.1396L44.1571 50H44.4301C44.4196 49.867 44.4161 49.713 44.4161 49.5345V48.306ZM45.0138 50.693H45.3183V49.7725H45.3253C45.4268 49.9405 45.6228 50.0385 45.8468 50.0385C46.2458 50.0385 46.6203 49.7375 46.6203 49.1285C46.6203 48.6175 46.3123 48.271 45.8993 48.271C45.6228 48.271 45.4198 48.39 45.2973 48.5965H45.2903L45.2728 48.306H44.9998C45.0068 48.467 45.0138 48.642 45.0138 48.859V50.693ZM45.3183 49.0165C45.3183 48.978 45.3288 48.9325 45.3393 48.894C45.3953 48.663 45.5948 48.516 45.8048 48.516C46.1303 48.516 46.3088 48.8065 46.3088 49.1425C46.3088 49.531 46.1198 49.797 45.7943 49.797C45.5738 49.797 45.3883 49.65 45.3323 49.4365C45.3218 49.398 45.3183 49.356 45.3183 49.3105V49.0165ZM48.543 48.768C48.543 48.565 48.5465 48.425 48.557 48.306H48.284L48.2735 48.5615H48.2665C48.1895 48.4215 48.032 48.271 47.738 48.271C47.346 48.271 46.9715 48.593 46.9715 49.167C46.9715 49.636 47.2725 49.993 47.6925 49.993C47.955 49.993 48.1405 49.867 48.2315 49.7095H48.2385V49.895C48.2385 50.3255 48.0075 50.49 47.6925 50.49C47.4825 50.49 47.3075 50.427 47.1955 50.3535L47.1185 50.5915C47.255 50.6825 47.479 50.7315 47.682 50.7315C47.8955 50.7315 48.1335 50.679 48.3015 50.5285C48.4625 50.378 48.543 50.1435 48.543 49.7515V48.768ZM48.235 49.279C48.235 49.3315 48.228 49.391 48.2105 49.4435C48.1475 49.6395 47.976 49.7585 47.7835 49.7585C47.4545 49.7585 47.283 49.482 47.283 49.1495C47.283 48.7575 47.493 48.509 47.787 48.509C48.0145 48.509 48.1615 48.656 48.2175 48.838C48.2315 48.8765 48.235 48.922 48.235 48.9745V49.279ZM49.116 50H49.424V49.097C49.424 49.048 49.4275 48.9955 49.4345 48.9535C49.4765 48.7225 49.6305 48.5615 49.8475 48.5615C49.8895 48.5615 49.921 48.5615 49.9525 48.5685V48.278C49.9245 48.2745 49.9 48.271 49.8685 48.271C49.662 48.271 49.473 48.4145 49.396 48.642H49.3855L49.3715 48.306H49.102C49.1125 48.4635 49.116 48.635 49.116 48.8345V50ZM51.5215 48.9605C51.5215 48.6245 51.3955 48.271 50.8775 48.271C50.664 48.271 50.4575 48.3305 50.3175 48.418L50.3875 48.6245C50.5065 48.544 50.671 48.4985 50.832 48.4985C51.1785 48.495 51.217 48.7505 51.217 48.887V48.922C50.5625 48.9185 50.1985 49.1425 50.1985 49.552C50.1985 49.797 50.3735 50.0385 50.7165 50.0385C50.958 50.0385 51.14 49.9195 51.2345 49.7865H51.245L51.2695 50H51.546C51.5285 49.8845 51.5215 49.741 51.5215 49.594V48.9605ZM51.224 49.4295C51.224 49.4575 51.2205 49.4925 51.21 49.5275C51.161 49.671 51.0175 49.811 50.7935 49.811C50.6395 49.811 50.5065 49.72 50.5065 49.517C50.5065 49.188 50.888 49.1285 51.224 49.1355V49.4295ZM53.2625 47.515V48.5265H53.2555C53.1785 48.3935 53.007 48.271 52.7445 48.271C52.335 48.271 51.9815 48.614 51.985 49.1775C51.985 49.692 52.3035 50.0385 52.713 50.0385C52.9895 50.0385 53.1925 49.895 53.2835 49.706H53.294L53.308 50H53.581C53.574 49.8845 53.567 49.713 53.567 49.5625V47.515H53.2625ZM53.2625 49.2895C53.2625 49.3385 53.259 49.3805 53.2485 49.4225C53.1925 49.65 53.0035 49.79 52.797 49.79C52.468 49.79 52.2965 49.5065 52.2965 49.1635C52.2965 48.7925 52.4855 48.5125 52.804 48.5125C53.035 48.5125 53.203 48.6735 53.2485 48.866C53.259 48.9045 53.2625 48.957 53.2625 48.9955V49.2895ZM55.532 49.209C55.539 49.174 55.5425 49.1285 55.5425 49.0655C55.5425 48.754 55.399 48.271 54.8425 48.271C54.349 48.271 54.048 48.67 54.048 49.181C54.048 49.692 54.3595 50.0385 54.881 50.0385C55.1505 50.0385 55.3395 49.979 55.448 49.93L55.392 49.7095C55.28 49.7585 55.1435 49.797 54.923 49.797C54.6115 49.797 54.349 49.6255 54.342 49.209H55.532ZM54.3455 48.9885C54.37 48.775 54.503 48.4915 54.818 48.4915C55.1645 48.4915 55.2485 48.796 55.245 48.9885H54.3455ZM0.2625 54H1.5785V53.7445H0.5705V51.641H0.2625V54ZM3.30753 53.209C3.31453 53.174 3.31803 53.1285 3.31803 53.0655C3.31803 52.754 3.17453 52.271 2.61803 52.271C2.12453 52.271 1.82353 52.67 1.82353 53.181C1.82353 53.692 2.13503 54.0385 2.65653 54.0385C2.92603 54.0385 3.11503 53.979 3.22353 53.93L3.16753 53.7095C3.05553 53.7585 2.91903 53.797 2.69853 53.797C2.38703 53.797 2.12453 53.6255 2.11753 53.209H3.30753ZM2.12103 52.9885C2.14553 52.775 2.27853 52.4915 2.59353 52.4915C2.94003 52.4915 3.02403 52.796 3.02053 52.9885H2.12103ZM4.97695 52.9605C4.97695 52.6245 4.85095 52.271 4.33295 52.271C4.11945 52.271 3.91295 52.3305 3.77295 52.418L3.84295 52.6245C3.96195 52.544 4.12645 52.4985 4.28745 52.4985C4.63395 52.495 4.67245 52.7505 4.67245 52.887V52.922C4.01795 52.9185 3.65395 53.1425 3.65395 53.552C3.65395 53.797 3.82895 54.0385 4.17195 54.0385C4.41345 54.0385 4.59545 53.9195 4.68995 53.7865H4.70045L4.72495 54H5.00145C4.98395 53.8845 4.97695 53.741 4.97695 53.594V52.9605ZM4.67945 53.4295C4.67945 53.4575 4.67595 53.4925 4.66545 53.5275C4.61645 53.671 4.47295 53.811 4.24895 53.811C4.09495 53.811 3.96195 53.72 3.96195 53.517C3.96195 53.188 4.34345 53.1285 4.67945 53.1355V53.4295ZM5.56292 54H5.87092V53.097C5.87092 53.048 5.87442 52.9955 5.88142 52.9535C5.92342 52.7225 6.07742 52.5615 6.29442 52.5615C6.33642 52.5615 6.36792 52.5615 6.39942 52.5685V52.278C6.37142 52.2745 6.34692 52.271 6.31542 52.271C6.10892 52.271 5.91992 52.4145 5.84292 52.642H5.83242L5.81842 52.306H5.54892C5.55942 52.4635 5.56292 52.635 5.56292 52.8345V54ZM6.80911 54H7.11711V52.9815C7.11711 52.929 7.12411 52.8765 7.13811 52.838C7.19411 52.6665 7.35161 52.523 7.55111 52.523C7.84161 52.523 7.94311 52.7505 7.94311 53.0235V54H8.25111V52.992C8.25111 52.411 7.88711 52.271 7.65261 52.271C7.37261 52.271 7.17661 52.4285 7.09261 52.586H7.08561L7.06811 52.306H6.79511C6.80561 52.446 6.80911 52.586 6.80911 52.7645V54ZM9.66722 54H9.96822V52.9815C9.96822 52.929 9.97522 52.873 9.99272 52.831C10.0417 52.677 10.1852 52.523 10.3742 52.523C10.6087 52.523 10.7277 52.7155 10.7277 52.985V54H11.0287V52.9535C11.0287 52.8975 11.0392 52.845 11.0532 52.7995C11.1092 52.6525 11.2422 52.523 11.4207 52.523C11.6657 52.523 11.7882 52.7155 11.7882 53.0445V54H12.0892V53.006C12.0892 52.418 11.7567 52.271 11.5292 52.271C11.3682 52.271 11.2597 52.313 11.1582 52.39C11.0882 52.4425 11.0182 52.5125 10.9657 52.6105H10.9587C10.8852 52.411 10.7102 52.271 10.4827 52.271C10.1992 52.271 10.0417 52.4215 9.94722 52.5825H9.93672L9.92272 52.306H9.65322C9.66022 52.446 9.66722 52.586 9.66722 52.7645V54ZM13.3912 52.271C12.9257 52.271 12.5512 52.6035 12.5512 53.167C12.5512 53.7025 12.9082 54.0385 13.3632 54.0385C13.7692 54.0385 14.2067 53.7655 14.2067 53.139C14.2067 52.6245 13.8777 52.271 13.3912 52.271ZM13.3842 52.502C13.7482 52.502 13.8917 52.8625 13.8917 53.1495C13.8917 53.531 13.6712 53.8075 13.3772 53.8075C13.0762 53.8075 12.8662 53.5275 12.8662 53.1565C12.8662 52.838 13.0237 52.502 13.3842 52.502ZM14.6821 54H14.9901V53.097C14.9901 53.048 14.9936 52.9955 15.0006 52.9535C15.0426 52.7225 15.1966 52.5615 15.4136 52.5615C15.4556 52.5615 15.4871 52.5615 15.5186 52.5685V52.278C15.4906 52.2745 15.4661 52.271 15.4346 52.271C15.2281 52.271 15.0391 52.4145 14.9621 52.642H14.9516L14.9376 52.306H14.6681C14.6786 52.4635 14.6821 52.635 14.6821 52.8345V54ZM17.2419 53.209C17.2489 53.174 17.2524 53.1285 17.2524 53.0655C17.2524 52.754 17.1089 52.271 16.5524 52.271C16.0589 52.271 15.7579 52.67 15.7579 53.181C15.7579 53.692 16.0694 54.0385 16.5909 54.0385C16.8604 54.0385 17.0494 53.979 17.1579 53.93L17.1019 53.7095C16.9899 53.7585 16.8534 53.797 16.6329 53.797C16.3214 53.797 16.0589 53.6255 16.0519 53.209H17.2419ZM16.0554 52.9885C16.0799 52.775 16.2129 52.4915 16.5279 52.4915C16.8744 52.4915 16.9584 52.796 16.9549 52.9885H16.0554ZM17.8543 52.803C17.9838 52.803 18.0643 52.7085 18.0643 52.586C18.0643 52.4565 17.9838 52.3655 17.8578 52.3655C17.7388 52.3655 17.6513 52.4565 17.6513 52.586C17.6513 52.7085 17.7353 52.803 17.8543 52.803ZM17.8543 54.0385C17.9838 54.0385 18.0643 53.944 18.0643 53.8215C18.0643 53.692 17.9838 53.601 17.8578 53.601C17.7388 53.601 17.6513 53.692 17.6513 53.8215C17.6513 53.944 17.7353 54.0385 17.8543 54.0385ZM0.9835 58.2975V57.9335C1.344 57.8775 1.5365 57.6185 1.5365 57.3385C1.5365 57.027 1.3545 56.8485 0.994 56.7015C0.6895 56.572 0.56 56.481 0.56 56.3025C0.56 56.159 0.6615 55.998 0.931 55.998C1.155 55.998 1.2985 56.0785 1.372 56.1205L1.4595 55.8895C1.3545 55.83 1.211 55.774 1.0045 55.767V55.4275H0.784V55.7775C0.4655 55.83 0.259 56.0505 0.259 56.341C0.259 56.6455 0.4795 56.81 0.8365 56.95C1.0955 57.055 1.232 57.174 1.232 57.3665C1.232 57.566 1.064 57.7095 0.8155 57.7095C0.6195 57.7095 0.4375 57.6395 0.315 57.559L0.231 57.7935C0.3535 57.881 0.56 57.944 0.763 57.9475V58.2975H0.9835ZM2.85113 57.9195C2.97013 57.9895 3.14163 58.0385 3.32713 58.0385C3.72263 58.0385 3.95713 57.8285 3.95713 57.5275C3.95713 57.2755 3.80313 57.1285 3.51263 57.02C3.29213 56.9325 3.19413 56.8695 3.19413 56.7295C3.19413 56.6035 3.29213 56.4985 3.47413 56.4985C3.63163 56.4985 3.75413 56.558 3.82063 56.6L3.89413 56.376C3.80313 56.3165 3.65263 56.271 3.48113 56.271C3.12063 56.271 2.89663 56.495 2.89663 56.768C2.89663 56.971 3.04013 57.1355 3.34813 57.2475C3.57213 57.3315 3.65963 57.4085 3.65963 57.5555C3.65963 57.699 3.55463 57.8075 3.33413 57.8075C3.18013 57.8075 3.01913 57.7445 2.92463 57.6885L2.85113 57.9195ZM4.32633 57.9195C4.44533 57.9895 4.61683 58.0385 4.80233 58.0385C5.19783 58.0385 5.43233 57.8285 5.43233 57.5275C5.43233 57.2755 5.27833 57.1285 4.98783 57.02C4.76733 56.9325 4.66933 56.8695 4.66933 56.7295C4.66933 56.6035 4.76733 56.4985 4.94933 56.4985C5.10683 56.4985 5.22933 56.558 5.29583 56.6L5.36933 56.376C5.27833 56.3165 5.12783 56.271 4.95633 56.271C4.59583 56.271 4.37183 56.495 4.37183 56.768C4.37183 56.971 4.51533 57.1355 4.82333 57.2475C5.04733 57.3315 5.13483 57.4085 5.13483 57.5555C5.13483 57.699 5.02983 57.8075 4.80933 57.8075C4.65533 57.8075 4.49433 57.7445 4.39983 57.6885L4.32633 57.9195ZM5.91702 58H6.22502V56.978C6.22502 56.922 6.22852 56.8765 6.24602 56.831C6.30552 56.6665 6.45952 56.5265 6.65902 56.5265C6.94952 56.5265 7.05102 56.754 7.05102 57.027V58H7.35902V56.992C7.35902 56.411 6.99502 56.271 6.76752 56.271C6.65202 56.271 6.54352 56.3025 6.45252 56.355C6.35802 56.4075 6.28102 56.488 6.23202 56.5755H6.22502V55.515H5.91702V58ZM8.62463 56.943V57.167H9.48913V56.943H8.62463ZM9.94637 58H10.2509V56.978H10.5379C10.8144 56.9885 10.9439 57.111 11.0139 57.4365C11.0769 57.7305 11.1294 57.93 11.1679 58H11.4829C11.4339 57.909 11.3779 57.6815 11.3009 57.3525C11.2449 57.1075 11.1364 56.9395 10.9579 56.8765V56.866C11.2029 56.782 11.3989 56.5755 11.3989 56.2675C11.3989 56.082 11.3289 55.921 11.2134 55.816C11.0699 55.6865 10.8564 55.6235 10.5309 55.6235C10.3244 55.6235 10.1004 55.6445 9.94637 55.6725V58ZM10.2509 55.886C10.3034 55.872 10.4049 55.8615 10.5519 55.8615C10.8739 55.8615 11.0944 55.9945 11.0944 56.299C11.0944 56.5685 10.8879 56.747 10.5624 56.747H10.2509V55.886ZM13.8804 58V57.377H14.1989V57.139H13.8804V55.725H13.5479L12.5329 57.1775V57.377H13.5899V58H13.8804ZM12.8444 57.139V57.132L13.4009 56.3585C13.4639 56.2535 13.5199 56.1555 13.5899 56.0225H13.6004C13.5934 56.1415 13.5899 56.2605 13.5899 56.3795V57.139H12.8444ZM15.8778 55.725H14.7893L14.6423 56.817C14.7263 56.8065 14.8278 56.796 14.9608 56.796C15.4123 56.796 15.6118 57.0025 15.6118 57.2965C15.6153 57.601 15.3633 57.79 15.0763 57.79C14.8663 57.79 14.6808 57.72 14.5863 57.664L14.5093 57.8985C14.6213 57.9685 14.8278 58.0385 15.0763 58.0385C15.5698 58.0385 15.9233 57.706 15.9233 57.2615C15.9233 56.978 15.7763 56.7785 15.5978 56.6805C15.4578 56.593 15.2863 56.558 15.1078 56.558C15.0238 56.558 14.9748 56.5615 14.9223 56.5685L15.0098 55.984H15.8778V55.725ZM17.7002 55.69C17.6442 55.69 17.5672 55.6935 17.4762 55.7075C17.1892 55.7425 16.9372 55.858 16.7482 56.0435C16.5207 56.2675 16.3632 56.621 16.3632 57.069C16.3632 57.6605 16.6817 58.0385 17.1647 58.0385C17.6407 58.0385 17.9242 57.6535 17.9242 57.2335C17.9242 56.7925 17.6407 56.4985 17.2382 56.4985C16.9862 56.4985 16.7937 56.6175 16.6852 56.7645H16.6782C16.7307 56.3865 16.9827 56.0365 17.4692 55.9595C17.5567 55.9455 17.6372 55.9385 17.7002 55.942V55.69ZM17.1717 57.8005C16.8462 57.8005 16.6712 57.5205 16.6677 57.146C16.6677 57.09 16.6817 57.048 16.6992 57.013C16.7832 56.845 16.9582 56.733 17.1437 56.733C17.4272 56.733 17.6127 56.929 17.6127 57.2545C17.6127 57.58 17.4342 57.8005 17.1717 57.8005ZM19.5262 58V57.377H19.8447V57.139H19.5262V55.725H19.1937L18.1787 57.1775V57.377H19.2357V58H19.5262ZM18.4902 57.139V57.132L19.0467 56.3585C19.1097 56.2535 19.1657 56.1555 19.2357 56.0225H19.2462C19.2392 56.1415 19.2357 56.2605 19.2357 56.3795V57.139H18.4902ZM20.3966 56.803C20.5261 56.803 20.6066 56.7085 20.6066 56.586C20.6066 56.4565 20.5261 56.3655 20.4001 56.3655C20.2811 56.3655 20.1936 56.4565 20.1936 56.586C20.1936 56.7085 20.2776 56.803 20.3966 56.803ZM20.3966 58.0385C20.5261 58.0385 20.6066 57.944 20.6066 57.8215C20.6066 57.692 20.5261 57.601 20.4001 57.601C20.2811 57.601 20.1936 57.692 20.1936 57.8215C20.1936 57.944 20.2776 58.0385 20.3966 58.0385ZM21.0757 58H21.3837V55.515H21.0757V58ZM22.7079 56.271C22.2424 56.271 21.8679 56.6035 21.8679 57.167C21.8679 57.7025 22.2249 58.0385 22.6799 58.0385C23.0859 58.0385 23.5234 57.7655 23.5234 57.139C23.5234 56.6245 23.1944 56.271 22.7079 56.271ZM22.7009 56.502C23.0649 56.502 23.2084 56.8625 23.2084 57.1495C23.2084 57.531 22.9879 57.8075 22.6939 57.8075C22.3929 57.8075 22.1829 57.5275 22.1829 57.1565C22.1829 56.838 22.3404 56.502 22.7009 56.502ZM25.1538 57.7095C25.0663 57.748 24.9508 57.79 24.7758 57.79C24.4398 57.79 24.1878 57.5485 24.1878 57.1565C24.1878 56.8065 24.3978 56.516 24.7863 56.516C24.9543 56.516 25.0698 56.558 25.1433 56.5965L25.2133 56.362C25.1293 56.3165 24.9683 56.271 24.7863 56.271C24.2333 56.271 23.8763 56.6525 23.8763 57.174C23.8763 57.692 24.2088 58.0385 24.7198 58.0385C24.9473 58.0385 25.1258 57.979 25.2063 57.9405L25.1538 57.7095ZM26.8451 56.9605C26.8451 56.6245 26.7191 56.271 26.2011 56.271C25.9876 56.271 25.7811 56.3305 25.6411 56.418L25.7111 56.6245C25.8301 56.544 25.9946 56.4985 26.1556 56.4985C26.5021 56.495 26.5406 56.7505 26.5406 56.887V56.922C25.8861 56.9185 25.5221 57.1425 25.5221 57.552C25.5221 57.797 25.6971 58.0385 26.0401 58.0385C26.2816 58.0385 26.4636 57.9195 26.5581 57.7865H26.5686L26.5931 58H26.8696C26.8521 57.8845 26.8451 57.741 26.8451 57.594V56.9605ZM26.5476 57.4295C26.5476 57.4575 26.5441 57.4925 26.5336 57.5275C26.4846 57.671 26.3411 57.811 26.1171 57.811C25.9631 57.811 25.8301 57.72 25.8301 57.517C25.8301 57.188 26.2116 57.1285 26.5476 57.1355V57.4295ZM27.4311 58H27.7391V55.515H27.4311V58ZM28.3457 58H28.6537V56.978C28.6537 56.922 28.6572 56.8765 28.6747 56.831C28.7342 56.6665 28.8882 56.5265 29.0877 56.5265C29.3782 56.5265 29.4797 56.754 29.4797 57.027V58H29.7877V56.992C29.7877 56.411 29.4237 56.271 29.1962 56.271C29.0807 56.271 28.9722 56.3025 28.8812 56.355C28.7867 56.4075 28.7097 56.488 28.6607 56.5755H28.6537V55.515H28.3457V58ZM31.0921 56.271C30.6266 56.271 30.2521 56.6035 30.2521 57.167C30.2521 57.7025 30.6091 58.0385 31.0641 58.0385C31.4701 58.0385 31.9076 57.7655 31.9076 57.139C31.9076 56.6245 31.5786 56.271 31.0921 56.271ZM31.0851 56.502C31.4491 56.502 31.5926 56.8625 31.5926 57.1495C31.5926 57.531 31.3721 57.8075 31.0781 57.8075C30.7771 57.8075 30.5671 57.5275 30.5671 57.1565C30.5671 56.838 30.7246 56.502 31.0851 56.502ZM32.2675 57.9195C32.3865 57.9895 32.558 58.0385 32.7435 58.0385C33.139 58.0385 33.3735 57.8285 33.3735 57.5275C33.3735 57.2755 33.2195 57.1285 32.929 57.02C32.7085 56.9325 32.6105 56.8695 32.6105 56.7295C32.6105 56.6035 32.7085 56.4985 32.8905 56.4985C33.048 56.4985 33.1705 56.558 33.237 56.6L33.3105 56.376C33.2195 56.3165 33.069 56.271 32.8975 56.271C32.537 56.271 32.313 56.495 32.313 56.768C32.313 56.971 32.4565 57.1355 32.7645 57.2475C32.9885 57.3315 33.076 57.4085 33.076 57.5555C33.076 57.699 32.971 57.8075 32.7505 57.8075C32.5965 57.8075 32.4355 57.7445 32.341 57.6885L32.2675 57.9195ZM33.9282 55.991V56.306H33.6657V56.5405H33.9282V57.4645C33.9282 57.664 33.9632 57.8145 34.0472 57.909C34.1207 57.9895 34.2362 58.0385 34.3797 58.0385C34.4987 58.0385 34.5932 58.0175 34.6527 57.9965L34.6387 57.762C34.5932 57.776 34.5442 57.783 34.4602 57.783C34.2887 57.783 34.2292 57.664 34.2292 57.454V56.5405H34.6702V56.306H34.2292V55.9L33.9282 55.991ZM0.266 66H0.5705V65.055C0.6405 65.0725 0.7245 65.076 0.8155 65.076C1.113 65.076 1.372 64.9885 1.5365 64.817C1.6555 64.6945 1.7185 64.5265 1.7185 64.313C1.7185 64.103 1.638 63.9315 1.512 63.8195C1.372 63.6935 1.1515 63.6235 0.8505 63.6235C0.6055 63.6235 0.413 63.6445 0.266 63.669V66ZM0.5705 63.8895C0.623 63.8755 0.7245 63.865 0.8575 63.865C1.19 63.865 1.414 64.0155 1.414 64.3305C1.414 64.649 1.19 64.831 0.8225 64.831C0.721 64.831 0.637 64.824 0.5705 64.8065V63.8895ZM2.15111 66H2.45911V65.097C2.45911 65.048 2.46261 64.9955 2.46961 64.9535C2.51161 64.7225 2.66561 64.5615 2.88261 64.5615C2.92461 64.5615 2.95611 64.5615 2.98761 64.5685V64.278C2.95961 64.2745 2.93511 64.271 2.90361 64.271C2.69711 64.271 2.50811 64.4145 2.43111 64.642H2.42061L2.40661 64.306H2.13711C2.14761 64.4635 2.15111 64.635 2.15111 64.8345V66ZM4.71095 65.209C4.71795 65.174 4.72145 65.1285 4.72145 65.0655C4.72145 64.754 4.57795 64.271 4.02145 64.271C3.52795 64.271 3.22695 64.67 3.22695 65.181C3.22695 65.692 3.53845 66.0385 4.05995 66.0385C4.32945 66.0385 4.51845 65.979 4.62695 65.93L4.57095 65.7095C4.45895 65.7585 4.32245 65.797 4.10195 65.797C3.79045 65.797 3.52795 65.6255 3.52095 65.209H4.71095ZM3.52445 64.9885C3.54895 64.775 3.68195 64.4915 3.99695 64.4915C4.34345 64.4915 4.42745 64.796 4.42395 64.9885H3.52445ZM5.07486 65.9195C5.19386 65.9895 5.36536 66.0385 5.55086 66.0385C5.94636 66.0385 6.18086 65.8285 6.18086 65.5275C6.18086 65.2755 6.02686 65.1285 5.73636 65.02C5.51586 64.9325 5.41786 64.8695 5.41786 64.7295C5.41786 64.6035 5.51586 64.4985 5.69786 64.4985C5.85536 64.4985 5.97786 64.558 6.04436 64.6L6.11786 64.376C6.02686 64.3165 5.87636 64.271 5.70486 64.271C5.34436 64.271 5.12036 64.495 5.12036 64.768C5.12036 64.971 5.26386 65.1355 5.57186 65.2475C5.79586 65.3315 5.88336 65.4085 5.88336 65.5555C5.88336 65.699 5.77836 65.8075 5.55786 65.8075C5.40386 65.8075 5.24286 65.7445 5.14836 65.6885L5.07486 65.9195ZM6.55006 65.9195C6.66906 65.9895 6.84056 66.0385 7.02606 66.0385C7.42156 66.0385 7.65606 65.8285 7.65606 65.5275C7.65606 65.2755 7.50206 65.1285 7.21156 65.02C6.99106 64.9325 6.89306 64.8695 6.89306 64.7295C6.89306 64.6035 6.99106 64.4985 7.17306 64.4985C7.33056 64.4985 7.45306 64.558 7.51956 64.6L7.59306 64.376C7.50206 64.3165 7.35156 64.271 7.18006 64.271C6.81956 64.271 6.59556 64.495 6.59556 64.768C6.59556 64.971 6.73906 65.1355 7.04706 65.2475C7.27106 65.3315 7.35856 65.4085 7.35856 65.5555C7.35856 65.699 7.25356 65.8075 7.03306 65.8075C6.87906 65.8075 6.71806 65.7445 6.62356 65.6885L6.55006 65.9195ZM10.419 64.768C10.419 64.565 10.4225 64.425 10.433 64.306H10.16L10.1495 64.5615H10.1425C10.0655 64.4215 9.90795 64.271 9.61395 64.271C9.22195 64.271 8.84745 64.593 8.84745 65.167C8.84745 65.636 9.14845 65.993 9.56845 65.993C9.83095 65.993 10.0165 65.867 10.1075 65.7095H10.1145V65.895C10.1145 66.3255 9.88345 66.49 9.56845 66.49C9.35845 66.49 9.18345 66.427 9.07145 66.3535L8.99445 66.5915C9.13095 66.6825 9.35495 66.7315 9.55795 66.7315C9.77145 66.7315 10.0095 66.679 10.1775 66.5285C10.3385 66.378 10.419 66.1435 10.419 65.7515V64.768ZM10.111 65.279C10.111 65.3315 10.104 65.391 10.0865 65.4435C10.0235 65.6395 9.85195 65.7585 9.65945 65.7585C9.33045 65.7585 9.15895 65.482 9.15895 65.1495C9.15895 64.7575 9.36895 64.509 9.66295 64.509C9.89045 64.509 10.0375 64.656 10.0935 64.838C10.1075 64.8765 10.111 64.922 10.111 64.9745V65.279ZM11.9117 63.991V64.306H11.6492V64.5405H11.9117V65.4645C11.9117 65.664 11.9467 65.8145 12.0307 65.909C12.1042 65.9895 12.2197 66.0385 12.3632 66.0385C12.4822 66.0385 12.5767 66.0175 12.6362 65.9965L12.6222 65.762C12.5767 65.776 12.5277 65.783 12.4437 65.783C12.2722 65.783 12.2127 65.664 12.2127 65.454V64.5405H12.6537V64.306H12.2127V63.9L11.9117 63.991ZM13.7849 64.271C13.3194 64.271 12.9449 64.6035 12.9449 65.167C12.9449 65.7025 13.3019 66.0385 13.7569 66.0385C14.1629 66.0385 14.6004 65.7655 14.6004 65.139C14.6004 64.6245 14.2714 64.271 13.7849 64.271ZM13.7779 64.502C14.1419 64.502 14.2854 64.8625 14.2854 65.1495C14.2854 65.531 14.0649 65.8075 13.7709 65.8075C13.4699 65.8075 13.2599 65.5275 13.2599 65.1565C13.2599 64.838 13.4174 64.502 13.7779 64.502ZM15.7895 65.9195C15.9085 65.9895 16.08 66.0385 16.2655 66.0385C16.661 66.0385 16.8955 65.8285 16.8955 65.5275C16.8955 65.2755 16.7415 65.1285 16.451 65.02C16.2305 64.9325 16.1325 64.8695 16.1325 64.7295C16.1325 64.6035 16.2305 64.4985 16.4125 64.4985C16.57 64.4985 16.6925 64.558 16.759 64.6L16.8325 64.376C16.7415 64.3165 16.591 64.271 16.4195 64.271C16.059 64.271 15.835 64.495 15.835 64.768C15.835 64.971 15.9785 65.1355 16.2865 65.2475C16.5105 65.3315 16.598 65.4085 16.598 65.5555C16.598 65.699 16.493 65.8075 16.2725 65.8075C16.1185 65.8075 15.9575 65.7445 15.863 65.6885L15.7895 65.9195ZM17.4502 63.991V64.306H17.1877V64.5405H17.4502V65.4645C17.4502 65.664 17.4852 65.8145 17.5692 65.909C17.6427 65.9895 17.7582 66.0385 17.9017 66.0385C18.0207 66.0385 18.1152 66.0175 18.1747 65.9965L18.1607 65.762C18.1152 65.776 18.0662 65.783 17.9822 65.783C17.8107 65.783 17.7512 65.664 17.7512 65.454V64.5405H18.1922V64.306H17.7512V63.9L17.4502 63.991ZM19.8164 64.9605C19.8164 64.6245 19.6904 64.271 19.1724 64.271C18.9589 64.271 18.7524 64.3305 18.6124 64.418L18.6824 64.6245C18.8014 64.544 18.9659 64.4985 19.1269 64.4985C19.4734 64.495 19.5119 64.7505 19.5119 64.887V64.922C18.8574 64.9185 18.4934 65.1425 18.4934 65.552C18.4934 65.797 18.6684 66.0385 19.0114 66.0385C19.2529 66.0385 19.4349 65.9195 19.5294 65.7865H19.5399L19.5644 66H19.8409C19.8234 65.8845 19.8164 65.741 19.8164 65.594V64.9605ZM19.5189 65.4295C19.5189 65.4575 19.5154 65.4925 19.5049 65.5275C19.4559 65.671 19.3124 65.811 19.0884 65.811C18.9344 65.811 18.8014 65.72 18.8014 65.517C18.8014 65.188 19.1829 65.1285 19.5189 65.1355V65.4295ZM20.4024 66H20.7104V65.097C20.7104 65.048 20.7139 64.9955 20.7209 64.9535C20.7629 64.7225 20.9169 64.5615 21.1339 64.5615C21.1759 64.5615 21.2074 64.5615 21.2389 64.5685V64.278C21.2109 64.2745 21.1864 64.271 21.1549 64.271C20.9484 64.271 20.7594 64.4145 20.6824 64.642H20.6719L20.6579 64.306H20.3884C20.3989 64.4635 20.4024 64.635 20.4024 64.8345V66ZM21.7903 63.991V64.306H21.5278V64.5405H21.7903V65.4645C21.7903 65.664 21.8253 65.8145 21.9093 65.909C21.9828 65.9895 22.0983 66.0385 22.2418 66.0385C22.3608 66.0385 22.4553 66.0175 22.5148 65.9965L22.5008 65.762C22.4553 65.776 22.4063 65.783 22.3223 65.783C22.1508 65.783 22.0913 65.664 22.0913 65.454V64.5405H22.5323V64.306H22.0913V63.9L21.7903 63.991Z" fill="white" fill-opacity="0.5"/>
<path d="M0.2625 62H0.5705V60.9325H1.4595V60.6805H0.5705V59.8965H1.533V59.641H0.2625V62ZM2.65669 60.271C2.19119 60.271 1.81669 60.6035 1.81669 61.167C1.81669 61.7025 2.17369 62.0385 2.62869 62.0385C3.03469 62.0385 3.47219 61.7655 3.47219 61.139C3.47219 60.6245 3.14319 60.271 2.65669 60.271ZM2.64969 60.502C3.01369 60.502 3.15719 60.8625 3.15719 61.1495C3.15719 61.531 2.93669 61.8075 2.64269 61.8075C2.34169 61.8075 2.13169 61.5275 2.13169 61.1565C2.13169 60.838 2.28919 60.502 2.64969 60.502ZM3.94759 62H4.25559V61.097C4.25559 61.048 4.25909 60.9955 4.26609 60.9535C4.30809 60.7225 4.46209 60.5615 4.67909 60.5615C4.72109 60.5615 4.75259 60.5615 4.78409 60.5685V60.278C4.75609 60.2745 4.73159 60.271 4.70009 60.271C4.49359 60.271 4.30459 60.4145 4.22759 60.642H4.21709L4.20309 60.306H3.93359C3.94409 60.4635 3.94759 60.635 3.94759 60.8345V62ZM5.07648 60.306L5.58748 62H5.86748L6.14048 61.195C6.19998 61.013 6.25248 60.838 6.29448 60.635H6.30148C6.34348 60.8345 6.39248 61.0025 6.45198 61.1915L6.71098 62H6.99098L7.53698 60.306H7.23248L6.99098 61.1565C6.93498 61.356 6.88948 61.5345 6.86148 61.706H6.85098C6.81248 61.5345 6.76348 61.356 6.70048 61.153L6.43798 60.306H6.17898L5.90248 61.1705C5.84648 61.3525 5.79048 61.5345 5.75198 61.706H5.74148C5.70998 61.531 5.66448 61.356 5.61898 61.167L5.39148 60.306H5.07648ZM9.10995 60.9605C9.10995 60.6245 8.98395 60.271 8.46595 60.271C8.25245 60.271 8.04595 60.3305 7.90595 60.418L7.97595 60.6245C8.09495 60.544 8.25945 60.4985 8.42045 60.4985C8.76695 60.495 8.80545 60.7505 8.80545 60.887V60.922C8.15095 60.9185 7.78695 61.1425 7.78695 61.552C7.78695 61.797 7.96195 62.0385 8.30495 62.0385C8.54645 62.0385 8.72845 61.9195 8.82295 61.7865H8.83345L8.85795 62H9.13445C9.11695 61.8845 9.10995 61.741 9.10995 61.594V60.9605ZM8.81245 61.4295C8.81245 61.4575 8.80895 61.4925 8.79845 61.5275C8.74945 61.671 8.60595 61.811 8.38195 61.811C8.22795 61.811 8.09495 61.72 8.09495 61.517C8.09495 61.188 8.47645 61.1285 8.81245 61.1355V61.4295ZM9.69593 62H10.0039V61.097C10.0039 61.048 10.0074 60.9955 10.0144 60.9535C10.0564 60.7225 10.2104 60.5615 10.4274 60.5615C10.4694 60.5615 10.5009 60.5615 10.5324 60.5685V60.278C10.5044 60.2745 10.4799 60.271 10.4484 60.271C10.2419 60.271 10.0529 60.4145 9.97593 60.642H9.96543L9.95143 60.306H9.68193C9.69243 60.4635 9.69593 60.635 9.69593 60.8345V62ZM12.0493 59.515V60.5265H12.0423C11.9653 60.3935 11.7938 60.271 11.5313 60.271C11.1218 60.271 10.7683 60.614 10.7718 61.1775C10.7718 61.692 11.0903 62.0385 11.4998 62.0385C11.7763 62.0385 11.9793 61.895 12.0703 61.706H12.0808L12.0948 62H12.3678C12.3608 61.8845 12.3538 61.713 12.3538 61.5625V59.515H12.0493ZM12.0493 61.2895C12.0493 61.3385 12.0458 61.3805 12.0353 61.4225C11.9793 61.65 11.7903 61.79 11.5838 61.79C11.2548 61.79 11.0833 61.5065 11.0833 61.1635C11.0833 60.7925 11.2723 60.5125 11.5908 60.5125C11.8218 60.5125 11.9898 60.6735 12.0353 60.866C12.0458 60.9045 12.0493 60.957 12.0493 60.9955V61.2895ZM13.2654 62V60.306H12.9574V62H13.2654ZM13.1114 59.6375C12.9959 59.6375 12.9189 59.725 12.9189 59.83C12.9189 59.935 12.9924 60.019 13.1044 60.019C13.2269 60.019 13.3004 59.935 13.3004 59.83C13.3004 59.7215 13.2234 59.6375 13.1114 59.6375ZM13.8652 62H14.1732V60.9815C14.1732 60.929 14.1802 60.8765 14.1942 60.838C14.2502 60.6665 14.4077 60.523 14.6072 60.523C14.8977 60.523 14.9992 60.7505 14.9992 61.0235V62H15.3072V60.992C15.3072 60.411 14.9432 60.271 14.7087 60.271C14.4287 60.271 14.2327 60.4285 14.1487 60.586H14.1417L14.1242 60.306H13.8512C13.8617 60.446 13.8652 60.586 13.8652 60.7645V62ZM17.3431 60.768C17.3431 60.565 17.3466 60.425 17.3571 60.306H17.0841L17.0736 60.5615H17.0666C16.9896 60.4215 16.8321 60.271 16.5381 60.271C16.1461 60.271 15.7716 60.593 15.7716 61.167C15.7716 61.636 16.0726 61.993 16.4926 61.993C16.7551 61.993 16.9406 61.867 17.0316 61.7095H17.0386V61.895C17.0386 62.3255 16.8076 62.49 16.4926 62.49C16.2826 62.49 16.1076 62.427 15.9956 62.3535L15.9186 62.5915C16.0551 62.6825 16.2791 62.7315 16.4821 62.7315C16.6956 62.7315 16.9336 62.679 17.1016 62.5285C17.2626 62.378 17.3431 62.1435 17.3431 61.7515V60.768ZM17.0351 61.279C17.0351 61.3315 17.0281 61.391 17.0106 61.4435C16.9476 61.6395 16.7761 61.7585 16.5836 61.7585C16.2546 61.7585 16.0831 61.482 16.0831 61.1495C16.0831 60.7575 16.2931 60.509 16.5871 60.509C16.8146 60.509 16.9616 60.656 17.0176 60.838C17.0316 60.8765 17.0351 60.922 17.0351 60.9745V61.279ZM19.0808 62H19.3888V59.9H20.1098V59.641H18.3633V59.9H19.0808V62ZM21.9498 61.6815C21.8273 61.741 21.6383 61.7795 21.4493 61.7795C20.8788 61.7795 20.5463 61.412 20.5463 60.831C20.5463 60.2115 20.9138 59.858 21.4668 59.858C21.6628 59.858 21.8273 59.9 21.9393 59.956L22.0163 59.7075C21.9358 59.6655 21.7468 59.6025 21.4563 59.6025C20.7248 59.6025 20.2243 60.0995 20.2243 60.8415C20.2243 61.6185 20.7213 62.0385 21.3863 62.0385C21.6733 62.0385 21.9008 61.9825 22.0093 61.9265L21.9498 61.6815ZM22.4821 62H22.7866V61.055C22.8566 61.0725 22.9406 61.076 23.0316 61.076C23.3291 61.076 23.5881 60.9885 23.7526 60.817C23.8716 60.6945 23.9346 60.5265 23.9346 60.313C23.9346 60.103 23.8541 59.9315 23.7281 59.8195C23.5881 59.6935 23.3676 59.6235 23.0666 59.6235C22.8216 59.6235 22.6291 59.6445 22.4821 59.669V62ZM22.7866 59.8895C22.8391 59.8755 22.9406 59.865 23.0736 59.865C23.4061 59.865 23.6301 60.0155 23.6301 60.3305C23.6301 60.649 23.4061 60.831 23.0386 60.831C22.9371 60.831 22.8531 60.824 22.7866 60.8065V59.8895ZM26.4061 61.7095C26.3186 61.748 26.2031 61.79 26.0281 61.79C25.6921 61.79 25.4401 61.5485 25.4401 61.1565C25.4401 60.8065 25.6501 60.516 26.0386 60.516C26.2066 60.516 26.3221 60.558 26.3956 60.5965L26.4656 60.362C26.3816 60.3165 26.2206 60.271 26.0386 60.271C25.4856 60.271 25.1286 60.6525 25.1286 61.174C25.1286 61.692 25.4611 62.0385 25.9721 62.0385C26.1996 62.0385 26.3781 61.979 26.4586 61.9405L26.4061 61.7095ZM27.6044 60.271C27.1389 60.271 26.7644 60.6035 26.7644 61.167C26.7644 61.7025 27.1214 62.0385 27.5764 62.0385C27.9824 62.0385 28.4199 61.7655 28.4199 61.139C28.4199 60.6245 28.0909 60.271 27.6044 60.271ZM27.5974 60.502C27.9614 60.502 28.1049 60.8625 28.1049 61.1495C28.1049 61.531 27.8844 61.8075 27.5904 61.8075C27.2894 61.8075 27.0794 61.5275 27.0794 61.1565C27.0794 60.838 27.2369 60.502 27.5974 60.502ZM28.8953 62H29.2033V60.9815C29.2033 60.929 29.2103 60.8765 29.2243 60.838C29.2803 60.6665 29.4378 60.523 29.6373 60.523C29.9278 60.523 30.0293 60.7505 30.0293 61.0235V62H30.3373V60.992C30.3373 60.411 29.9733 60.271 29.7388 60.271C29.4588 60.271 29.2628 60.4285 29.1788 60.586H29.1718L29.1543 60.306H28.8813C28.8918 60.446 28.8953 60.586 28.8953 60.7645V62ZM30.9243 62H31.2323V60.9815C31.2323 60.929 31.2393 60.8765 31.2533 60.838C31.3093 60.6665 31.4668 60.523 31.6663 60.523C31.9568 60.523 32.0583 60.7505 32.0583 61.0235V62H32.3663V60.992C32.3663 60.411 32.0023 60.271 31.7678 60.271C31.4878 60.271 31.2918 60.4285 31.2078 60.586H31.2008L31.1833 60.306H30.9103C30.9208 60.446 30.9243 60.586 30.9243 60.7645V62ZM34.3147 61.209C34.3217 61.174 34.3252 61.1285 34.3252 61.0655C34.3252 60.754 34.1817 60.271 33.6252 60.271C33.1317 60.271 32.8307 60.67 32.8307 61.181C32.8307 61.692 33.1422 62.0385 33.6637 62.0385C33.9332 62.0385 34.1222 61.979 34.2307 61.93L34.1747 61.7095C34.0627 61.7585 33.9262 61.797 33.7057 61.797C33.3942 61.797 33.1317 61.6255 33.1247 61.209H34.3147ZM33.1282 60.9885C33.1527 60.775 33.2857 60.4915 33.6007 60.4915C33.9472 60.4915 34.0312 60.796 34.0277 60.9885H33.1282ZM35.9491 61.7095C35.8616 61.748 35.7461 61.79 35.5711 61.79C35.2351 61.79 34.9831 61.5485 34.9831 61.1565C34.9831 60.8065 35.1931 60.516 35.5816 60.516C35.7496 60.516 35.8651 60.558 35.9386 60.5965L36.0086 60.362C35.9246 60.3165 35.7636 60.271 35.5816 60.271C35.0286 60.271 34.6716 60.6525 34.6716 61.174C34.6716 61.692 35.0041 62.0385 35.5151 62.0385C35.7426 62.0385 35.9211 61.979 36.0016 61.9405L35.9491 61.7095ZM36.5649 59.991V60.306H36.3024V60.5405H36.5649V61.4645C36.5649 61.664 36.5999 61.8145 36.6839 61.909C36.7574 61.9895 36.8729 62.0385 37.0164 62.0385C37.1354 62.0385 37.2299 62.0175 37.2894 61.9965L37.2754 61.762C37.2299 61.776 37.1809 61.783 37.0969 61.783C36.9254 61.783 36.8659 61.664 36.8659 61.454V60.5405H37.3069V60.306H36.8659V59.9L36.5649 59.991ZM38.049 62V60.306H37.741V62H38.049ZM37.895 59.6375C37.7795 59.6375 37.7025 59.725 37.7025 59.83C37.7025 59.935 37.776 60.019 37.888 60.019C38.0105 60.019 38.084 59.935 38.084 59.83C38.084 59.7215 38.007 59.6375 37.895 59.6375ZM39.3664 60.271C38.9009 60.271 38.5264 60.6035 38.5264 61.167C38.5264 61.7025 38.8834 62.0385 39.3384 62.0385C39.7444 62.0385 40.1819 61.7655 40.1819 61.139C40.1819 60.6245 39.8529 60.271 39.3664 60.271ZM39.3594 60.502C39.7234 60.502 39.8669 60.8625 39.8669 61.1495C39.8669 61.531 39.6464 61.8075 39.3524 61.8075C39.0514 61.8075 38.8414 61.5275 38.8414 61.1565C38.8414 60.838 38.9989 60.502 39.3594 60.502ZM40.6573 62H40.9653V60.9815C40.9653 60.929 40.9723 60.8765 40.9863 60.838C41.0423 60.6665 41.1998 60.523 41.3993 60.523C41.6898 60.523 41.7913 60.7505 41.7913 61.0235V62H42.0993V60.992C42.0993 60.411 41.7353 60.271 41.5008 60.271C41.2208 60.271 41.0248 60.4285 40.9408 60.586H40.9338L40.9163 60.306H40.6433C40.6538 60.446 40.6573 60.586 40.6573 60.7645V62Z" fill="#EB0718" fill-opacity="0.5"/>
<defs>
<linearGradient id="paint0_linear" x1="-25" y1="2.49999" x2="359.5" y2="387" gradientUnits="userSpaceOnUse">
<stop stop-color="white" stop-opacity="0.4"/>
<stop offset="1" stop-color="white" stop-opacity="0"/>
</linearGradient>
</defs>
</svg>
