<svg viewBox="0 0 44 54" fill="none" xmlns="http://www.w3.org/2000/svg">
<path d="M0.588159 18.5053V12.3464L13.1156 0H19.5624V2.00772H13.9588L2.62331 13.1772V18.5053H0.588159ZM24.41 0H30.8323L43.3598 12.3464V18.5053H41.3247V13.1772L29.9892 2.00772H24.4098V0H24.41ZM43.3598 23.282V29.8036L30.8323 42.1476H24.41V40.1399H29.9894L41.3249 28.9728V23.2817H43.3601L43.3598 23.282ZM19.5621 42.1476H13.1154L0.587891 29.8036V23.282H2.62304V28.9731L13.9585 40.1402H19.5621V42.1479V42.1476Z" fill="#E60D2E"/>
<path fill-rule="evenodd" clip-rule="evenodd" d="M11.4172 14.2656L11.4245 14.2489L11.4269 14.2346C11.7781 13.1104 11.8847 12.079 12.4978 8.7012L22.0237 5.43799L31.5276 8.70358C32.1382 12.0814 32.2472 13.1127 32.5984 14.2394L32.6009 14.2513L32.6081 14.2679C32.9038 15.2038 33.3737 16.2206 34.447 18.7152L34.052 24.5614L33.0853 25.9052L32.7389 32.6108L26.4957 37.3422L17.5294 37.3398L11.2862 32.6084L10.9398 25.9028L9.97312 24.559L9.57812 18.7152C10.6514 16.2183 11.1213 15.2014 11.417 14.2656H11.4172ZM31.8232 31.1404L27.9519 33.5252L27.9833 34.4251L27.9906 34.5873L31.7846 32.2501L31.8232 31.1402V31.1404ZM31.896 29.1616L27.8816 31.6323L27.9202 32.6444L27.942 32.6801L31.8571 30.2715L31.8957 29.1616H31.896ZM31.9688 27.1874L27.8139 29.7466L27.8501 30.7658L27.8695 30.7967L31.9274 28.2974L31.9685 27.1874H31.9688ZM32.0219 25.1773L27.7435 27.8103L27.7822 28.8726L32.0023 26.2754L32.041 25.2083L32.0217 25.1773H32.0219ZM12.2072 31.1404L16.081 33.5252L16.0471 34.4251L16.0423 34.5873L12.2483 32.2501L12.2072 31.1402V31.1404ZM12.1345 29.1616L16.1489 31.6323L16.1127 32.6444L16.0909 32.6801L12.1758 30.2715L12.1347 29.1616H12.1345ZM12.0641 27.1874L16.219 29.7466L16.1803 30.7658L16.161 30.7967L12.1031 28.2974L12.0644 27.1874H12.0641ZM12.011 25.1773L16.2894 27.8103L16.2507 28.8726L12.0306 26.2754L11.9919 25.2083L12.0112 25.1773H12.011ZM22.0454 19.4529L31.896 15.6621C32.3707 16.7197 32.8482 17.7772 33.3205 18.8369C33.2091 20.2025 33.0976 21.5702 32.9838 22.9357C31.0214 24.1507 29.0518 25.3514 27.0846 26.5569L24.9914 23.7115L22.0116 22.6851L19.0294 23.7067L16.9362 26.5545C14.9714 25.349 12.9994 24.1459 11.0394 22.9309C10.9232 21.5654 10.8141 20.2001 10.7003 18.8345C11.175 17.7746 11.6501 16.7146 12.1272 15.6573L22.0454 19.4529Z" fill="#E60D2E"/>
<path d="M28.6981 17.9133V19.2837H28.291V17.9133H28.6981Z" fill="#E60D2E"/>
<path d="M28.6981 22.432V23.8023H28.291V22.432H28.6981Z" fill="#E60D2E"/>
<path d="M25.5039 20.6586H26.897V21.0594H25.5039V20.6586Z" fill="#E60D2E"/>
<path d="M30.0918 20.6586H31.4846V21.0594H30.0918V20.6586Z" fill="#E60D2E"/>
<path d="M25.9961 20.3603V19.8398L27.4569 18.3981H27.9754V18.7992H27.6263L26.4029 20.0047V20.3603H25.9961Z" fill="#E60D2E"/>
<path d="M27.9851 23.3179H27.4569L25.9961 21.8761V21.3676H26.4029V21.7113L27.6263 22.917H27.9851V23.3179Z" fill="#E60D2E"/>
<path d="M31.0149 21.3602V21.8807L29.5517 23.3224H29.0332V22.9216H29.382L30.6078 21.7135V21.3602H31.0149Z" fill="#E60D2E"/>
<path d="M29.0117 18.3862H29.5399L31.0031 19.828V20.3389H30.5936V19.9952L29.3702 18.7871H29.0117V18.3862Z" fill="#E60D2E"/>
<path d="M4.08211 53.4604C3.83748 53.6562 3.57809 53.7922 3.30446 53.8758C3.03084 53.957 2.73519 53.9999 2.42021 53.9999C2.04481 53.9999 1.7054 53.9234 1.4076 53.7755C1.10713 53.6252 0.85525 53.4223 0.644459 53.1667C0.436084 52.9114 0.276312 52.6105 0.167291 52.2692C0.0558531 51.9255 0 51.5625 0 51.1759C0 50.8155 0.0483344 50.4716 0.150105 50.1445C0.249459 49.8199 0.401981 49.5333 0.607939 49.2875C0.811481 49.0417 1.07061 48.8483 1.38559 48.7052C1.69815 48.562 2.06871 48.4903 2.49755 48.4903C2.81011 48.4903 3.11059 48.5427 3.3963 48.6477C3.68228 48.7552 3.93173 48.9102 4.14494 49.1108L3.60467 49.7363C3.52465 49.6839 3.44007 49.6336 3.3528 49.586C3.26553 49.5384 3.17826 49.4952 3.08642 49.4595C2.99432 49.4238 2.90463 49.3949 2.81521 49.3735C2.72311 49.3521 2.63825 49.3402 2.55608 49.3402C2.32354 49.3402 2.12967 49.3878 1.96748 49.4857C1.80529 49.5836 1.67425 49.7148 1.57006 49.8797C1.46829 50.0469 1.39552 50.2401 1.34719 50.462C1.30127 50.684 1.27683 50.9179 1.27683 51.1664C1.27683 51.3119 1.2865 51.4625 1.30825 51.6151C1.32758 51.7702 1.359 51.9207 1.40277 52.0686C1.44386 52.2165 1.49971 52.3552 1.56496 52.484C1.6329 52.6129 1.71265 52.7275 1.80234 52.8254C1.89444 52.9233 1.99863 53.0021 2.1149 53.0593C2.23117 53.1167 2.36194 53.1453 2.50748 53.1453C2.58992 53.1453 2.67209 53.1381 2.75211 53.1238C2.83213 53.1119 2.91671 53.0905 3.0064 53.0593C3.09367 53.0307 3.19061 52.9899 3.29479 52.9423C3.39898 52.8923 3.51767 52.8325 3.64844 52.7608L4.08211 53.4601V53.4604ZM6.76628 53.9999C6.3592 53.9999 5.99588 53.9306 5.67124 53.7922C5.34901 53.6538 5.07538 53.4604 4.84767 53.2146C4.62238 52.9688 4.45026 52.6775 4.32915 52.3409C4.20805 52.0043 4.14736 51.6392 4.14736 51.2452C4.14736 50.8489 4.20563 50.4837 4.32432 50.1472C4.44059 49.8106 4.6103 49.5193 4.83317 49.2735C5.05605 49.0277 5.32726 48.8367 5.65432 48.6983C5.97896 48.5599 6.34953 48.4906 6.76628 48.4906C7.17094 48.4906 7.53668 48.5599 7.8589 48.6983C8.18355 48.8367 8.45718 49.0277 8.68247 49.2735C8.90776 49.5193 9.07988 49.8106 9.20099 50.1472C9.31968 50.4837 9.38036 50.8489 9.38036 51.2452C9.38036 51.6392 9.32209 52.0043 9.20582 52.3409C9.08713 52.6775 8.91984 52.9688 8.69697 53.2146C8.47409 53.4604 8.2002 53.6538 7.87582 53.7922C7.55117 53.9306 7.18061 53.9999 6.76628 53.9999ZM8.10836 51.3479C8.10836 51.0949 8.0842 50.8489 8.03318 50.6126C7.98484 50.3763 7.90724 50.1662 7.79822 49.9847C7.6892 49.8008 7.54634 49.6553 7.37422 49.5455C7.20209 49.4357 6.99157 49.3807 6.74426 49.3807C6.5093 49.3807 6.31059 49.4283 6.14115 49.5238C5.97386 49.6217 5.83826 49.7506 5.72924 49.913C5.62263 50.0752 5.54503 50.2615 5.49669 50.4716C5.44594 50.684 5.42151 50.9013 5.42151 51.1256C5.42151 51.3833 5.44568 51.6318 5.49669 51.8705C5.54503 52.1091 5.62505 52.3192 5.73407 52.5031C5.84309 52.687 5.98353 52.8325 6.15807 52.9447C6.33019 53.0545 6.5383 53.1095 6.7832 53.1095C7.01815 53.1095 7.21686 53.0595 7.38388 52.9593C7.55118 52.859 7.6892 52.7277 7.7958 52.5653C7.90482 52.4004 7.98243 52.2144 8.03318 52.002C8.08393 51.7919 8.10836 51.5746 8.10836 51.3479ZM14.5793 48.4546V53.938H13.4262L11.9023 51.4244L11.3621 50.2094L11.3403 50.2141L11.4808 51.4577V53.938H10.2332V49.4024L10.1121 48.5715L11.4107 48.4641L12.9611 51.0304L13.5038 52.3266L13.5256 52.3219L13.351 51.0066V48.5766L14.5793 48.4549V48.4546ZM16.9511 49.8797V51.059H17.1861C17.3483 51.059 17.489 51.0328 17.6101 50.9801C17.7312 50.9277 17.8306 50.8608 17.9106 50.7748C17.9882 50.6888 18.0462 50.5861 18.0851 50.4716C18.1238 50.357 18.1434 50.2353 18.1434 50.1088C18.1434 49.9416 18.1168 49.8032 18.0585 49.6934C18.0027 49.5836 17.9278 49.4928 17.8381 49.4285C17.7484 49.3616 17.6466 49.3164 17.5352 49.2902C17.4213 49.264 17.3099 49.2521 17.2009 49.2521C17.1525 49.2521 17.1112 49.2521 17.0822 49.2521C17.0532 49.2521 17.029 49.2521 17.0094 49.2521C16.9877 49.2521 16.9683 49.2521 16.9511 49.2521C16.9318 49.2544 16.9125 49.2568 16.8905 49.2592L16.9511 49.8799V49.8797ZM17.1233 51.9136C17.0967 51.8803 17.065 51.8586 17.0312 51.8538C16.9973 51.8466 16.9705 51.8443 16.9511 51.8443V53.9377H15.6695V49.4045L15.529 48.6144C15.6405 48.6025 15.764 48.5906 15.902 48.5763C16.04 48.5644 16.1807 48.5525 16.3236 48.543C16.4689 48.5334 16.6096 48.5263 16.7476 48.5191C16.8832 48.5144 17.0043 48.512 17.1109 48.512C17.4452 48.512 17.7481 48.543 18.0217 48.6099C18.2954 48.6745 18.5306 48.7721 18.7266 48.9036C18.9205 49.0348 19.073 49.1973 19.182 49.3881C19.2886 49.5815 19.3418 49.8035 19.3418 50.0564C19.3418 50.3141 19.3031 50.5361 19.2207 50.7224C19.1407 50.9063 19.0293 51.0661 18.8912 51.195C18.7532 51.3262 18.5932 51.4336 18.4116 51.5172C18.2299 51.6008 18.0411 51.6699 17.8448 51.7226L18.3561 51.8419L19.9452 53.9377H18.6031L17.123 51.9133L17.1233 51.9136ZM23.9212 53.1191L23.8243 53.938H20.3356L20.3963 53.1095V49.4024L20.2704 48.5501H23.788V49.369H21.6221L21.678 49.8657V50.6486H23.5458V51.4148H21.678V52.6465L21.6466 53.1191H23.9215H23.9212ZM24.3597 53.938L25.8108 49.3259L25.9392 48.5715L27.3154 48.4617L29.0621 53.938H27.817L27.393 52.4055H25.9636L25.5517 53.938H24.3597ZM26.6782 49.0491L26.4843 50.3835L26.179 51.6175H27.1771L26.8669 50.3835L26.6779 49.0491H26.6782ZM30.7651 53.1193H33.0231L32.9238 53.9382H29.4303L29.5151 53.105V49.4026L29.3916 48.5718L30.7944 48.462V52.6468L30.7654 53.1193H30.7651ZM33.4931 53.9382V49.4026L33.3719 48.5718L34.7747 48.462V53.9382H33.4931ZM36.7613 53.9382V49.3693H35.3271V48.5504H39.465V49.3693H38.0429V53.9382H36.7613ZM41.512 49.8323L41.9022 51.1619L42.1154 49.8323L42.7767 48.5504H44.0001L42.4207 51.6035V53.9382H41.1414V51.6035L39.5765 48.5789L40.812 48.462L41.512 49.8323Z" fill="#E60D2E"/>
</svg>
