<svg viewBox="0 0 50 50" fill="none" xmlns="http://www.w3.org/2000/svg">
<path d="M0 21.9605V14.65L14.65 0H22.1803V2.39003H15.6299L2.37944 15.6405V21.9605H0ZM27.8502 0H35.3606L50 14.65V21.9605H47.6206V15.6405L34.3701 2.39003H27.8502V0V0ZM50 27.6198V35.3592L35.3606 49.9987H27.8502V47.6192H34.3701L47.6206 34.3688V27.6184H50V27.6198ZM22.1803 50H14.65L0 35.3606V27.6211H2.37944V34.3714L15.6299 47.6219H22.1803V50.0013V50Z" fill="#E60D2E"/>
<path fill-rule="evenodd" clip-rule="evenodd" d="M12.6604 16.9297L12.671 16.9099V16.89C13.0815 15.5606 13.2112 14.3305 13.921 10.3303L25.0608 6.45068L36.1714 10.3303C36.8812 14.3398 37.0109 15.5606 37.4214 16.89V16.9099L37.432 16.9297C37.7816 18.0394 38.3324 19.2496 39.5824 22.2103L39.1229 29.1408L37.9934 30.731L37.5829 38.6916L30.2924 44.3019H19.812L12.5121 38.6916L12.1016 30.731L10.9722 29.1408L10.5127 22.2011C11.7733 19.2417 12.3122 18.0407 12.6631 16.9311L12.6604 16.9297ZM36.521 36.9504L31.9912 39.78L32.0309 40.8407V41.03L36.4707 38.26L36.521 36.9504ZM36.6005 34.6001L31.9104 37.5304L31.9502 38.73L31.9806 38.7697L36.5501 35.9097L36.6005 34.6001ZM36.6799 32.2604L31.8297 35.29L31.8694 36.5002L31.8892 36.5399L36.6389 33.5699L36.6786 32.2604H36.6799ZM36.7501 29.8703L31.7396 33.0006L31.7899 34.2611L36.7196 31.1706L36.7699 29.9101L36.7501 29.8703ZM13.5794 36.9504L18.1092 39.78L18.0694 40.8407V41.03L13.6297 38.26L13.5794 36.9504ZM13.4999 34.6001L18.1899 37.5304L18.1502 38.73L18.1197 38.7697L13.5502 35.9097L13.4999 34.6001ZM13.4205 32.2604L18.2707 35.29L18.231 36.5002L18.2111 36.5399L13.4615 33.5699L13.4218 32.2604H13.4205ZM13.3503 29.8703L18.3607 33.0006L18.3104 34.2611L13.3807 31.1706L13.3304 29.9101L13.3503 29.8703ZM25.0806 23.0803L36.6005 18.5809C37.15 19.8415 37.7101 21.0915 38.2609 22.3507C38.1311 23.9701 38.0106 25.5908 37.8703 27.2102C35.5809 28.6508 33.2703 30.0796 30.9796 31.5096L28.53 28.1291L25.0396 26.9189L21.5598 28.1291L19.1102 31.5096C16.8208 30.069 14.5102 28.6495 12.2208 27.2102C12.0805 25.5908 11.9507 23.9701 11.8209 22.3507C12.381 21.0901 12.9305 19.8309 13.4906 18.5809L25.0806 23.0803Z" fill="#E60D2E"/>
<path d="M32.8597 21.2498V22.8811H32.3896V21.2498H32.8597Z" fill="#E60D2E"/>
<path d="M32.8597 26.6096V28.2409H32.3896V26.6096H32.8597Z" fill="#E60D2E"/>
<path d="M29.1299 24.5104H30.7599V24.9897H29.1299V24.5104Z" fill="#E60D2E"/>
<path d="M34.4912 24.5104H36.1212V24.9897H34.4912V24.5104Z" fill="#E60D2E"/>
<path d="M29.7109 24.1602V23.5405L31.4204 21.8311H32.0202V22.3104H31.6203L30.181 23.7404V24.1602H29.7109Z" fill="#E60D2E"/>
<path d="M32.0401 27.6703H31.4204L29.7109 25.9609V25.3505H30.181V25.7609L31.611 27.191H32.0401V27.6703Z" fill="#E60D2E"/>
<path d="M35.5708 25.3398V25.9609L33.8614 27.6703H33.251V27.191H33.6615L35.0915 25.7609V25.3398H35.5708Z" fill="#E60D2E"/>
<path d="M33.2295 21.8204H33.8492L35.5599 23.5299V24.131H35.0899V23.7205L33.6492 22.2905H33.2295V21.8204Z" fill="#E60D2E"/>
</svg>
