<svg xmlns="http://www.w3.org/2000/svg" xml:space="preserve" style="fill-rule:evenodd; clip-rule:evenodd"
viewBox="0 0 14.06 14.06">
  <path d="M12.94 12.28c0,0.36 -0.29,0.66 -0.66,0.66l-10.5 0c-0.36,0 -0.66,-0.29 -0.66,-0.66l0 -10.5c0,-0.36 0.3,-0.66 0.66,-0.66l10.5 0c0.36,0 0.66,0.29 0.66,0.66l0 10.5zm-3.67 -3.92l0 4.58 -1.83 0 0 -4.58 -1.54 0 0 -1.78 1.54 0 0 -1.32c0,-1.52 0.93,-2.35 2.29,-2.35 0.65,0 1.21,0.04 1.37,0.07l0 1.6 -0.94 0c-0.74,0 -0.89,0.34 -0.89,0.86l0 1.14 1.77 0 -0.23 1.78 -1.54 0z"/>
</svg>
