<svg xmlns="http://www.w3.org/2000/svg" xml:space="preserve" style="fill-rule:evenodd; clip-rule:evenodd"
viewBox="0 0 20.57 20.57">
  <path d="M13.16 3.09l-5.76 0c-2.38,0 -4.32,1.93 -4.32,4.31l0 5.76c0,2.39 1.94,4.32 4.32,4.32l5.76 0c2.39,0 4.32,-1.93 4.32,-4.32l0 -5.76c0,-2.38 -1.93,-4.31 -4.32,-4.31zm-5.76 -1.44c-3.18,0 -5.75,2.57 -5.75,5.75l0 5.76c0,3.18 2.57,5.76 5.75,5.76l5.76 0c3.18,0 5.76,-2.58 5.76,-5.76l0 -5.76c0,-3.18 -2.58,-5.75 -5.76,-5.75l-5.76 0zm2.88 11.51c1.59,0 2.88,-1.29 2.88,-2.88 0,-1.59 -1.29,-2.88 -2.88,-2.88 -1.59,0 -2.88,1.29 -2.88,2.88 0,1.59 1.29,2.88 2.88,2.88zm0 1.44c2.39,0 4.32,-1.93 4.32,-4.32 0,-2.38 -1.93,-4.32 -4.32,-4.32 -2.38,0 -4.32,1.94 -4.32,4.32 0,2.39 1.94,4.32 4.32,4.32zm4.68 -7.2c0.6,0 1.08,-0.48 1.08,-1.08 0,-0.59 -0.48,-1.08 -1.08,-1.08 -0.59,0 -1.08,0.49 -1.08,1.08 0,0.6 0.49,1.08 1.08,1.08z"/>
</svg>
