<svg xmlns="http://www.w3.org/2000/svg" xml:space="preserve" style="fill-rule:evenodd; clip-rule:evenodd"
viewBox="0 0 6.4 6.4">
  <path d="M6.14 1.39c-0.22,0.1 -0.45,0.16 -0.69,0.19 0.25,-0.15 0.44,-0.38 0.53,-0.66 -0.24,0.14 -0.49,0.23 -0.77,0.29 -0.22,-0.23 -0.53,-0.38 -0.88,-0.38 -0.66,0 -1.2,0.54 -1.2,1.2 0,0.09 0.01,0.18 0.03,0.27 -1,-0.05 -1.89,-0.53 -2.49,-1.25 -0.1,0.18 -0.16,0.38 -0.16,0.6 0,0.42 0.21,0.78 0.54,1 -0.2,-0.01 -0.39,-0.06 -0.55,-0.15 0,0 0,0.01 0,0.01 0,0.58 0.42,1.07 0.97,1.18 -0.1,0.02 -0.21,0.04 -0.32,0.04 -0.08,0 -0.15,-0.01 -0.23,-0.02 0.16,0.47 0.6,0.82 1.13,0.83 -0.41,0.32 -0.93,0.51 -1.5,0.51 -0.1,0 -0.19,0 -0.29,-0.01 0.54,0.34 1.17,0.53 1.85,0.53 2.22,0 3.43,-1.82 3.43,-3.4 0,-0.06 0,-0.11 0,-0.16 0.23,-0.17 0.44,-0.38 0.6,-0.62l0 0z"/>
</svg>
