<svg xmlns="http://www.w3.org/2000/svg" xml:space="preserve" style="fill-rule:evenodd; clip-rule:evenodd"
viewBox="0 0 3.87 3.87">
  <path d="M3.43 0.65c0.16,0.05 0.29,0.18 0.33,0.35 0.09,0.3 0.08,0.94 0.08,0.94 0,0 0,0.63 -0.08,0.93 -0.04,0.17 -0.17,0.3 -0.33,0.35 -0.3,0.08 -1.5,0.08 -1.5,0.08 0,0 -1.19,0 -1.49,-0.09 -0.16,-0.04 -0.29,-0.17 -0.34,-0.34 -0.08,-0.3 -0.08,-0.94 -0.08,-0.94 0,0 0,-0.63 0.08,-0.93 0.05,-0.17 0.18,-0.31 0.34,-0.35 0.3,-0.08 1.49,-0.08 1.49,-0.08 0,0 1.2,0 1.5,0.08zm-1.88 0.7l1 0.58 -1 0.59 0 -1.17z"/>
</svg>
