<svg xmlns="http://www.w3.org/2000/svg" xml:space="preserve" style="fill-rule:evenodd; clip-rule:evenodd"
viewBox="0 0 0.53 0.53">
  <path fill="#E60D2E" d="M0.27 0.37c-0.05,-0.04 -0.09,-0.07 -0.11,-0.1 -0.03,-0.04 -0.04,-0.06 -0.04,-0.08 0,-0.03 0.03,-0.05 0.06,-0.05 0.01,0 0.03,0.01 0.04,0.02l0.05 0.05 0.04 -0.05c0.01,-0.01 0.03,-0.02 0.04,-0.02 0.03,0 0.06,0.02 0.06,0.05 0,0.02 -0.01,0.04 -0.04,0.08 -0.02,0.03 -0.06,0.06 -0.1,0.1zm0 0.08l-0.03 -0.03 0 0c-0.1,-0.09 -0.17,-0.15 -0.17,-0.23 0,-0.06 0.05,-0.11 0.11,-0.11 0.02,0 0.04,0.01 0.06,0.02 0.01,0.01 0.02,0.01 0.03,0.02 0,-0.01 0.01,-0.01 0.03,-0.02 0.01,-0.01 0.03,-0.02 0.05,-0.02 0.06,0 0.11,0.05 0.11,0.11 0,0.08 -0.06,0.14 -0.17,0.23l0 0 -0.02 0.03z"/>
</svg>
