<svg class="hud-svg" viewBox="0 0 118 53" fill="none"
  xmlns="http://www.w3.org/2000/svg">
  <g opacity="0.4">
    <rect opacity="0.4" x="54.5" y="6.5" width="15" height="15" rx="7.5" transform="rotate(90 54.5 6.5)" stroke="white"/>
    <rect opacity="0.4" x="35.5" y="6.5" width="15" height="15" rx="7.5" transform="rotate(90 35.5 6.5)" stroke="white"/>
    <rect opacity="0.4" x="15.5" y="6.5" width="15" height="15" rx="7.5" transform="rotate(90 15.5 6.5)" stroke="white"/>
    <rect x="117.5" y="0.5" width="27" height="27" rx="13.5" transform="rotate(90 117.5 0.5)" stroke="#EB0718"/>
    <path class="hidden-path" d="M105.89 18H101.378V10.824H105.89V12.024H102.638V13.836H105.662V15.036H102.638V16.8H105.89V18Z" fill="white"/>
    <rect x="62.5" y="3.5" width="21" height="21" stroke="#0EE2FF"/>
    <path class="hidden-path" d="M75.2231 16.26C75.2231 16.54 75.1631 16.768 75.0431 16.944C74.9631 17.056 74.8271 17.208 74.6351 17.4C74.4431 17.584 74.2831 17.712 74.1551 17.784C73.8991 17.928 73.6591 18 73.4351 18H70.1471V10.824H73.4351C73.7151 10.824 73.9591 10.892 74.1671 11.028C74.2871 11.1 74.4391 11.232 74.6231 11.424C74.8071 11.616 74.9431 11.776 75.0311 11.904C75.1591 12.08 75.2231 12.308 75.2231 12.588V16.26ZM71.4071 16.8H73.3511C73.3991 16.8 73.4271 16.796 73.4351 16.788C73.5311 16.732 73.6431 16.644 73.7711 16.524C73.8991 16.396 73.9631 16.3 73.9631 16.236V12.624C73.9631 12.6 73.9591 12.58 73.9511 12.564C73.7991 12.316 73.6231 12.14 73.4231 12.036C73.4151 12.028 73.3791 12.024 73.3151 12.024H71.4071V16.8Z" fill="white"/>
    <path class="hidden-path" opacity="0.4" d="M48.9163 15.84C48.8497 15.9933 48.7797 16.12 48.7063 16.22C48.293 16.7733 47.8697 17.05 47.4363 17.05H46.1863C45.9663 17.05 45.7597 16.99 45.5663 16.87C45.4663 16.81 45.3363 16.7 45.1763 16.54C45.0163 16.38 44.903 16.2533 44.8363 16.16C44.7297 16 44.6763 15.81 44.6763 15.59V12.44C44.6763 12.2267 44.7297 12.04 44.8363 11.88C44.903 11.78 45.0163 11.65 45.1763 11.49C45.343 11.3233 45.473 11.2133 45.5663 11.16C45.7797 11.04 45.9863 10.98 46.1863 10.98H47.4363C47.863 10.98 48.2863 11.2567 48.7063 11.81C48.7463 11.8633 48.8163 11.98 48.9163 12.16L47.8963 12.45C47.6963 12.2033 47.5463 12.05 47.4463 11.99C47.4397 11.9833 47.4263 11.98 47.4063 11.98H46.2263L46.1863 11.99C46.013 12.0833 45.863 12.23 45.7363 12.43C45.7297 12.4433 45.7263 12.48 45.7263 12.54V15.58C45.7263 15.6333 45.7797 15.7133 45.8863 15.82C45.9997 15.92 46.0997 15.9933 46.1863 16.04C46.193 16.0467 46.2163 16.05 46.2563 16.05H47.3963C47.4163 16.05 47.433 16.0467 47.4463 16.04C47.5063 16.0133 47.573 15.96 47.6463 15.88C47.7263 15.8 47.7897 15.7267 47.8363 15.66L47.8963 15.57L48.9163 15.84Z" fill="white"/>
    <path class="hidden-path" opacity="0.4" d="M29.8966 15.64C29.8966 15.8733 29.8399 16.0733 29.7266 16.24C29.6799 16.3067 29.5966 16.4033 29.4766 16.53C29.3566 16.65 29.2632 16.7333 29.1966 16.78C28.9899 16.9267 28.7499 17 28.4766 17H25.6666V11.02H28.4766C28.7366 11.02 28.9766 11.0967 29.1966 11.25C29.2632 11.2967 29.3566 11.3833 29.4766 11.51C29.5966 11.63 29.6799 11.7233 29.7266 11.79C29.8399 11.9567 29.8966 12.1633 29.8966 12.41V13.15C29.8966 13.47 29.7666 13.76 29.5066 14.02C29.7666 14.28 29.8966 14.5667 29.8966 14.88V15.64ZM28.8366 13.2C28.8432 13.1867 28.8466 13.1633 28.8466 13.13V12.42L28.8366 12.37C28.7899 12.29 28.7266 12.2133 28.6466 12.14C28.5732 12.06 28.5132 12.02 28.4666 12.02H26.7166V13.53H28.4766C28.5232 13.53 28.5866 13.4933 28.6666 13.42C28.7466 13.3467 28.8032 13.2733 28.8366 13.2ZM28.8366 15.67C28.8432 15.65 28.8466 15.6267 28.8466 15.6V14.89L28.8366 14.84C28.7899 14.76 28.7266 14.6833 28.6466 14.61C28.5732 14.5367 28.5132 14.5 28.4666 14.5H26.7166V16H28.4766C28.5232 16 28.5866 15.9633 28.6666 15.89C28.7466 15.8167 28.8032 15.7433 28.8366 15.67Z" fill="white"/>
    <path class="hidden-path" opacity="0.4" d="M10.4059 17H9.28586L8.84586 15.73H6.57586L6.13586 17H5.01586L7.10586 11.02H8.32586L10.4059 17ZM8.51586 14.73L7.71586 12.37L6.90586 14.73H8.51586Z" fill="white"/>
    <g class="hidden-path">
      <path class="hidden-path" d="M84 45L80 37H88L84 45Z" fill="white"/>
      <rect width="34" height="4" transform="matrix(-1 0 0 1 118 49)" fill="#EB0718"/>
      <rect y="49" width="84" height="4" fill="#0EE2FF"/>
      <path d="M70.57 38.84L68.11 44H66.92L69.37 39.02H66.42V38.02H70.57V38.84ZM75.2155 42.81H74.6055V44H73.5555V42.81H70.8755V41.91L73.3955 38.02H74.6055V41.81H75.2155V42.81ZM73.5555 41.81V39.54L72.1055 41.81H73.5555Z" fill="#0EE2FF"/>
    </g>
    <path class="hidden-path" d="M95.31 42.66V41.85C95.31 41.83 95.3067 41.8133 95.3 41.8C95.26 41.7267 95.2 41.6533 95.12 41.58C95.0467 41.5067 94.9867 41.47 94.94 41.47H94.93H93.66V40.48H94.93H94.94C94.9867 40.48 95.0467 40.4433 95.12 40.37C95.2 40.2967 95.26 40.2233 95.3 40.15L95.31 40.1V39.38L95.3 39.33C95.2533 39.25 95.19 39.1767 95.11 39.11C95.0367 39.0367 94.9767 39 94.93 39H93.79C93.7767 39 93.7633 39.0033 93.75 39.01C93.6633 39.05 93.5667 39.12 93.46 39.22C93.36 39.3133 93.2933 39.4133 93.26 39.52L92.24 39.24C92.3267 39.06 92.4067 38.9167 92.48 38.81C92.9133 38.2633 93.34 37.99 93.76 37.99H94.94C95.2 37.99 95.4333 38.0633 95.64 38.21C95.8467 38.3633 96.0267 38.5467 96.18 38.76C96.3 38.94 96.36 39.1433 96.36 39.37V40.12C96.36 40.42 96.2267 40.7033 95.96 40.97C96.2267 41.2367 96.36 41.5233 96.36 41.83V42.67C96.36 42.8967 96.3 43.1 96.18 43.28C96.1333 43.3467 96.0467 43.4433 95.92 43.57C95.8 43.6967 95.7067 43.7833 95.64 43.83C95.4333 43.9767 95.2 44.05 94.94 44.05H93.76C93.3267 44.05 92.9 43.7767 92.48 43.23C92.3533 43.0567 92.27 42.9133 92.23 42.8L93.25 42.53C93.43 42.7967 93.5933 42.9667 93.74 43.04C93.7533 43.0467 93.77 43.05 93.79 43.05H94.93C94.97 43.05 95.03 43.0133 95.11 42.94C95.19 42.8667 95.2533 42.79 95.3 42.71C95.3067 42.6967 95.31 42.68 95.31 42.66ZM101.246 42.58C101.246 42.8 101.192 42.99 101.086 43.15C101.012 43.25 100.896 43.3833 100.736 43.55C100.582 43.71 100.456 43.8167 100.356 43.87C100.162 43.99 99.9589 44.05 99.7455 44.05H98.6355C98.4155 44.05 98.2089 43.99 98.0155 43.87C97.9222 43.8167 97.7922 43.71 97.6255 43.55C97.4655 43.3833 97.3522 43.25 97.2855 43.15C97.1789 42.99 97.1255 42.8 97.1255 42.58V39.45C97.1255 39.23 97.1789 39.04 97.2855 38.88C97.3522 38.78 97.4655 38.65 97.6255 38.49C97.7922 38.3233 97.9222 38.2133 98.0155 38.16C98.2089 38.04 98.4155 37.98 98.6355 37.98H99.7455C99.9589 37.98 100.162 38.04 100.356 38.16C100.456 38.2133 100.582 38.3233 100.736 38.49C100.896 38.65 101.012 38.78 101.086 38.88C101.192 39.04 101.246 39.23 101.246 39.45V42.58ZM98.1755 39.47V42.57C98.1755 42.59 98.1789 42.6033 98.1855 42.61C98.3255 42.8167 98.4722 42.96 98.6255 43.04C98.6389 43.0467 98.6555 43.05 98.6755 43.05H99.7055C99.7255 43.05 99.7422 43.0467 99.7555 43.04C99.9089 42.96 100.052 42.8167 100.186 42.61L100.196 42.57V39.47C100.196 39.4433 100.192 39.4267 100.186 39.42C100.052 39.2133 99.9089 39.07 99.7555 38.99C99.7422 38.9833 99.7255 38.98 99.7055 38.98H98.6755C98.6489 38.98 98.6322 38.9833 98.6255 38.99C98.4722 39.0633 98.3255 39.2067 98.1855 39.42L98.1755 39.47Z" fill="#EB0718"/>
  </g>
</svg>
